<?xml version="1.0" encoding="utf-8"?>
<!-- Generator: Adobe Illustrator 23.0.2, SVG Export Plug-In . SVG Version: 6.00 Build 0)  -->
<svg version="1.1" id="Layer_1" xmlns="http://www.w3.org/2000/svg" xmlns:xlink="http://www.w3.org/1999/xlink" x="0px" y="0px"
	 viewBox="0 0 366 255.1" style="enable-background:new 0 0 366 255.1;" xml:space="preserve">
<style type="text/css">
	.st0{fill:none;stroke:#22F4BB;stroke-miterlimit:10;}
</style>
<g>
	<path class="st0" d="M297.3,155.3c-2.8,1.4-5.7,2.8-8.5,4.2"/>
	<path class="st0" d="M202.8,198.2c0.7-0.3,1.3-0.6,1.9-1"/>
	<path class="st0" d="M208.8,195.7c0.6-0.2,1.2-0.6,1.7-0.9"/>
	<path class="st0" d="M214.8,193.3c0.5-0.2,1.1-0.5,1.6-0.8"/>
	<path class="st0" d="M216.7,192.5c-0.4,0.2-0.8,0.3-1.2,0.4"/>
	<path class="st0" d="M220.8,190.8c0.5-0.2,1-0.4,1.4-0.7"/>
	<path class="st0" d="M226.6,188.3c0.4-0.2,0.9-0.4,1.3-0.7"/>
	<path class="st0" d="M232.4,185.9c0.4-0.2,0.8-0.4,1.2-0.6"/>
	<path class="st0" d="M281.9,163c0.4-0.2,0.8-0.4,1.2-0.7"/>
	<path class="st0" d="M287.1,160.4c0.4-0.2,0.9-0.5,1.3-0.7"/>
	<path class="st0" d="M208.8,195.7c-1.1,0.4-2.1,0.9-3.2,1.3"/>
	<path class="st0" d="M220.8,190.8c-1.1,0.4-2.1,0.9-3.2,1.3"/>
	<path class="st0" d="M238.2,183.4c-1.1,0.5-2.1,0.9-3.2,1.4"/>
	<path class="st0" d="M249.5,178.3c-1.1,0.5-2.1,1-3.2,1.4"/>
	<path class="st0" d="M276.7,165.6c-1.1,0.5-2.2,1.1-3.3,1.6"/>
	<path class="st0" d="M281.9,163c-1.1,0.6-2.2,1.1-3.3,1.7"/>
	<path class="st0" d="M196.7,200.6c0.7-0.3,1.4-0.7,2.1-1.1"/>
	<path class="st0" d="M61.3,134.7c-1-0.6-1.9-1.2-2.7-2.1"/>
	<path class="st0" d="M55.5,129.7c-1.6-1.6-3.2-3.4-4.6-5.2"/>
	<path class="st0" d="M186.8,204.6c-16.2,6.4-38.2,4.6-52.3-6.4"/>
	<path class="st0" d="M134.3,198c-3.1-2.4-6.2-4.8-9.2-7.2"/>
	<path class="st0" d="M125.1,190.8c-19-14.7-37.2-30.1-54.6-46.6"/>
	<line class="st0" x1="224.1" y1="189.3" x2="224.1" y2="189.1"/>
	<path class="st0" d="M218.6,191.4c0.7-0.1,1.4-0.3,2.1-0.6"/>
	<path class="st0" d="M229.8,186.9c-0.4,0.2-0.9,0.5-1.3,0.7"/>
	<line class="st0" x1="229.8" y1="186.9" x2="229.8" y2="186.6"/>
	<path class="st0" d="M235.5,184.4c-0.4,0.2-0.8,0.4-1.2,0.6"/>
	<path class="st0" d="M235.5,184.1c0.9-0.1,1.8-0.4,2.6-0.8"/>
	<path class="st0" d="M257.8,174.5c-0.3,0.2-0.6,0.4-1,0.5"/>
	<path class="st0" d="M268.7,169.3c-0.3,0.2-0.7,0.4-1,0.5"/>
	<path class="st0" d="M290.2,158.7c-0.5,0.3-1,0.6-1.5,0.9"/>
	<path class="st0" d="M279.9,163.8c0.7-0.2,1.4-0.5,2-0.8"/>
	<path class="st0" d="M274.2,166.4c0.9-0.2,1.7-0.5,2.5-0.9"/>
	<path class="st0" d="M279.5,164.1c-0.4,0.2-0.8,0.4-1.2,0.6"/>
	<line class="st0" x1="279.5" y1="164.1" x2="279.5" y2="163.9"/>
	<path class="st0" d="M274.2,166.7c-0.4,0.2-0.7,0.4-1.1,0.6"/>
	<path class="st0" d="M212.2,194c0.2,0,0.4,0,0.6-0.1"/>
	<line class="st0" x1="218.3" y1="191.7" x2="218.3" y2="191.5"/>
	<path class="st0" d="M206.7,196.3c0.7-0.1,1.4-0.3,2.1-0.6"/>
	<line class="st0" x1="212.5" y1="194.1" x2="212.5" y2="193.9"/>
	<line class="st0" x1="206.7" y1="196.4" x2="206.7" y2="196.1"/>
	<path class="st0" d="M206.7,196.1c0.1,0,0.4-0.1,0.3,0c-0.1,0.1-0.2,0.2-0.3,0.2"/>
	<path class="st0" d="M204.7,197.2c0.6-0.4,1.2-0.8,2-1"/>
	<path class="st0" d="M283.1,162.3c0.3-0.2,0.7-0.4,1-0.6c0.2-0.1,0.4-0.2,0.5-0.3c0.2-0.1,0.3-0.3,0.6-0.2"/>
	<path class="st0" d="M277.7,165c0.3-0.2,0.7-0.4,1-0.6c0.1-0.1,0.9-0.5,1.1-0.5"/>
	<path class="st0" d="M272.4,167.6c0.3-0.2,0.7-0.4,1.1-0.6c0.1-0.1,0.9-0.5,1.1-0.5"/>
	<path class="st0" d="M216.4,192.5c0.2-0.1,1.9-1.1,2.2-1.1"/>
	<path class="st0" d="M210.6,194.8c0.4-0.2,0.8-0.5,1.1-0.7c0.2-0.1,0.4-0.2,0.6-0.3c0.2-0.1,0.7-0.2,0.4,0"/>
	<path class="st0" d="M201,198.4C201,198.4,201,198.4,201,198.4"/>
	<path class="st0" d="M222.2,190.1c0.2-0.1,1.9-1.1,2.2-1.1"/>
	<path class="st0" d="M227.9,187.7c0.3-0.2,1.8-1,2.2-1.1"/>
	<path class="st0" d="M233.6,185.3c0.3-0.2,1.8-1,2.2-1.1"/>
	<path class="st0" d="M239.3,182.8c0.3-0.1,1.8-1,2.2-1.1"/>
	<path class="st0" d="M244.9,180.3c0.2-0.1,1.9-1.1,2.2-1.1"/>
	<path class="st0" d="M246.8,179.1c1-0.2,1.8-0.4,2.7-0.8"/>
	<path class="st0" d="M250.5,177.8c0.2-0.1,1.8-1.1,2.2-1.1"/>
	<path class="st0" d="M256,175.3c0.2-0.1,1.9-1.1,2.2-1.1"/>
	<path class="st0" d="M261.5,172.7c0.2-0.1,1.9-1.1,2.1-1.1"/>
	<path class="st0" d="M198.8,199.5c0.2-0.2,1.8-1.2,2.2-1.1"/>
	<path class="st0" d="M284.9,161.4c-0.4,0.3-0.8,0.5-1.3,0.7"/>
	<path class="st0" d="M128.3,193.3c-0.2-0.1-0.4-0.3-0.6-0.4"/>
	<path class="st0" d="M111.5,180C111.5,180,111.6,180,111.5,180c0.1,0.1,0.2,0.2,0.2,0.2c0.1,0.1,0.2,0.1,0.2,0.2
		c0.2,0.1,0.3,0.2,0.5,0.4c0.3,0.2,0.7,0.5,1,0.7"/>
	<path class="st0" d="M124.2,190c-0.2-0.1-0.4-0.3-0.6-0.4"/>
	<path class="st0" d="M56.8,90.3c2.2-1.3,4.6-2.4,7-3.3"/>
	<path class="st0" d="M95.1,75.4c4.6-1.7,9.3-3.3,13.9-4.9"/>
	<path class="st0" d="M45.1,113.4c0-2.5,0.1-5.1,0.1-7.6"/>
	<path class="st0" d="M222.5,53.2c0.1,0,0.2,0.1,0.3,0.1"/>
	<path class="st0" d="M310.8,107c4.9,3.3,10.1,8.7,10.1,15.4"/>
	<path class="st0" d="M143.6,134.7c-5.1,1.5-10.2,3.1-15.2,4.7"/>
	<line class="st0" x1="142.7" y1="133.7" x2="142.7" y2="133.6"/>
	<path class="st0" d="M229.6,173.4c15.9-6.6,31.7-13.5,47.4-20.7"/>
	<path class="st0" d="M191.2,197.5C231.3,182,270.6,165,309,145.4"/>
	<path class="st0" d="M128.8,191.6c8.5,6.4,20.2,9.4,30.4,10.2c10.5,0.8,22-0.4,32-4.3"/>
	<path class="st0" d="M113.4,144.1C113.4,144.1,113.3,144.1,113.4,144.1"/>
	<path class="st0" d="M114.7,144.1c-0.4,0.2-0.8,0.2-1.3,0"/>
	<path class="st0" d="M121.9,141.5c-2.4,0.9-4.8,1.7-7.2,2.6"/>
	<path class="st0" d="M127.1,139.3c-0.2-0.1-0.4-0.2-0.4-0.4"/>
	<path class="st0" d="M144.3,134.2C144.3,134.3,144.2,134.3,144.3,134.2"/>
	<path class="st0" d="M128.3,139.4c-0.4,0.1-0.8,0.2-1.2,0"/>
	<path class="st0" d="M87.5,150c-7.6-6.5-15.1-13.1-22.4-19.9"/>
	<path class="st0" d="M64.7,138c20.3,19.2,41.8,36.8,64.1,53.6"/>
	<path class="st0" d="M61.2,134.6c1.2,1.1,2.4,2.2,3.5,3.4"/>
	<path class="st0" d="M56.5,130.1c0.1,0.1,0.3,0.3,0.4,0.4"/>
	<path class="st0" d="M49.5,123.1c0.8,0.8,1.5,1.5,2.3,2.3"/>
	<path class="st0" d="M216.6,187.4C216.6,187.5,216.6,187.5,216.6,187.4"/>
	<path class="st0" d="M64.7,138c0.1,0.2,0.3,0.3,0.4,0.5"/>
	<path class="st0" d="M119.8,186.6c0.6,0.4,1.1,0.9,1.7,1.2"/>
	<path class="st0" d="M113,143.7c0-0.3,0.5-0.6,0.7-0.7"/>
	<path class="st0" d="M142.7,133.7C142.7,133.7,142.7,133.7,142.7,133.7"/>
	<path class="st0" d="M122.5,140.8c0-0.2-0.1-0.3-0.3-0.4"/>
	<path class="st0" d="M113.3,144.1C113.3,144.1,113.4,144.1,113.3,144.1"/>
	<path class="st0" d="M144.2,134.2c0.1-0.3,0-0.4-0.3-0.5"/>
	<path class="st0" d="M126.8,139.1C126.8,139.1,126.8,139.1,126.8,139.1"/>
	<path class="st0" d="M126.8,139c0,0,0-0.1,0-0.1"/>
	<path class="st0" d="M128.3,139.4C128.3,139.4,128.3,139.4,128.3,139.4"/>
	<path class="st0" d="M314.5,141.9c-4.8,5.6-10.3,9.9-16.9,13.2"/>
	<path class="st0" d="M212.8,193.9c-0.1,0.1-0.2,0.1-0.2,0.2"/>
	<path class="st0" d="M56.9,130.5c-0.1-0.1-0.2-0.2-0.3-0.3"/>
	<line class="st0" x1="252.3" y1="176.8" x2="252.3" y2="176.8"/>
	<line class="st0" x1="120.9" y1="140.4" x2="120.9" y2="140.4"/>
	<path class="st0" d="M314.5,141.9c3.5-2.9,6.4-6.8,6.4-11.7"/>
	<path class="st0" d="M113,143.8C113,143.7,113,143.7,113,143.8"/>
	<path class="st0" d="M122.6,140.9c-0.1,0.4-0.4,0.5-0.7,0.6"/>
	<path class="st0" d="M144.2,134.3c-0.2,0.2-0.4,0.3-0.6,0.4"/>
	<path class="st0" d="M51.8,125.4c1.6,1.6,3.1,3.1,4.7,4.7"/>
	<path class="st0" d="M56.9,130.5c1.4,1.4,2.9,2.8,4.3,4.2"/>
	<path class="st0" d="M238.2,183.4c0.4-0.2,0.7-0.3,1.1-0.6"/>
	<path class="st0" d="M243.9,180.8c0.3-0.2,0.7-0.3,1-0.5"/>
	<path class="st0" d="M249.5,178.3c0.3-0.2,0.7-0.3,1-0.5"/>
	<path class="st0" d="M255,175.8c0.3-0.1,0.6-0.3,1-0.5"/>
	<path class="st0" d="M260.5,173.2c0.3-0.2,0.6-0.3,0.9-0.5"/>
	<path class="st0" d="M266,170.7c0.3-0.2,0.7-0.3,1-0.5"/>
	<path class="st0" d="M271.3,168.1c0.3-0.2,0.7-0.3,1-0.5"/>
	<path class="st0" d="M276.7,165.6c0.4-0.2,0.7-0.4,1.1-0.6"/>
	<path class="st0" d="M202.8,198.2c-1.4,0.6-2.8,1.1-4.2,1.7"/>
	<path class="st0" d="M243.9,180.8c-1.1,0.5-2.1,0.9-3.2,1.4"/>
	<path class="st0" d="M255,175.8c-1.1,0.5-2.1,1-3.2,1.5"/>
	<path class="st0" d="M266,170.7c-0.9,0.4-1.8,0.8-2.6,1.2"/>
	<path class="st0" d="M287.1,160.4c-1.1,0.6-2.3,1.1-3.4,1.7"/>
	<path class="st0" d="M241.2,181.6c0.9-0.1,1.8-0.4,2.7-0.8"/>
	<path class="st0" d="M246.7,179.5c-0.3,0.2-0.7,0.4-1,0.5"/>
	<path class="st0" d="M252.3,176.6c0.9-0.2,1.8-0.4,2.7-0.8"/>
	<path class="st0" d="M263.3,171.6c0.9-0.2,1.8-0.5,2.6-0.9"/>
	<path class="st0" d="M285.9,160.9c0.4-0.2,0.8-0.3,1.2-0.5"/>
	<path class="st0" d="M258.2,174.2c-0.1,0.1-0.2,0.2-0.3,0.2"/>
	<path class="st0" d="M198.4,199.9c-0.3,0.1-0.5,0.2-0.8,0.3"/>
	<path class="st0" d="M120.2,186.8c-0.1-0.1-0.2-0.1-0.3-0.2c-0.1,0-0.1-0.1-0.2-0.1c0,0-0.2-0.2-0.2-0.1"/>
	<path class="st0" d="M120.9,140.4c0.5-0.2,0.8-0.2,1.3,0"/>
	<path class="st0" d="M113.7,143c2.4-0.9,4.8-1.7,7.2-2.6"/>
	<path class="st0" d="M113,143.7C113,143.7,113,143.7,113,143.7"/>
	<path class="st0" d="M127.5,138.3c5.1-1.6,10.1-3.1,15.2-4.6"/>
	<path class="st0" d="M142.7,133.7c0.4-0.1,0.8-0.2,1.2,0"/>
	<path class="st0" d="M113,143.7C113,143.7,113,143.7,113,143.7"/>
	<path class="st0" d="M113.4,144.1C113.4,144.1,113.4,144.1,113.4,144.1"/>
	<path class="st0" d="M126.8,138.9c0.1-0.5,0.4-0.5,0.7-0.6"/>
	<path class="st0" d="M245.7,180c-0.3,0.1-0.5,0.2-0.8,0.3"/>
	<path class="st0" d="M251.3,177.5c-0.3,0.1-0.6,0.2-0.8,0.3"/>
	<path class="st0" d="M256.8,175c-0.3,0.1-0.6,0.2-0.8,0.4"/>
	<path class="st0" d="M58.6,132.7c-0.9-0.9-1.8-1.8-2.8-2.7"/>
	<path class="st0" d="M224.1,189.3c-0.5,0.3-0.9,0.5-1.4,0.7"/>
	<path class="st0" d="M241.2,182c-0.4,0.2-0.7,0.4-1.1,0.6"/>
	<path class="st0" d="M252.3,177c-0.3,0.2-0.7,0.4-1,0.5"/>
	<path class="st0" d="M218.3,191.7c-0.5,0.3-1,0.6-1.6,0.8"/>
	<path class="st0" d="M212.5,194.1c-0.6,0.4-1.1,0.7-1.8,0.9"/>
	<path class="st0" d="M206.7,196.4c-0.6,0.4-1.3,0.7-1.9,1"/>
	<path class="st0" d="M200.7,198.7c-0.7,0.5-1.4,0.8-2.2,1.1"/>
	<line class="st0" x1="285.2" y1="161.1" x2="285.2" y2="161.1"/>
	<path class="st0" d="M201.3,198.1c-0.1,0-0.2,0-0.3,0"/>
	<path class="st0" d="M128,193.1c0.6,0.4,1.1,0.9,1.7,1.3"/>
	<path class="st0" d="M224.1,189.1c0.1,0,0.1,0,0.2,0"/>
	<path class="st0" d="M224.4,189c0.8-0.1,1.5-0.4,2.3-0.7"/>
	<path class="st0" d="M229.8,186.6c0.9-0.1,1.8-0.4,2.6-0.7"/>
	<line class="st0" x1="241.2" y1="181.8" x2="241.2" y2="182"/>
	<line class="st0" x1="246.8" y1="179.4" x2="246.7" y2="179.5"/>
	<path class="st0" d="M257.9,174.1c0.9-0.2,1.8-0.5,2.7-0.9"/>
	<path class="st0" d="M285.2,161.1c0.2-0.1,0.5-0.2,0.7-0.2"/>
	<path class="st0" d="M290.2,158.6c0.1,0,0.3-0.3,0.4-0.1"/>
	<path class="st0" d="M279.6,163.8c0.1,0,0.2,0,0.3-0.1"/>
	<line class="st0" x1="274.2" y1="166.6" x2="274.2" y2="166.4"/>
	<path class="st0" d="M205.4,192.5c0.1,0,0.1,0.1,0.2,0.1"/>
	<path class="st0" d="M212.8,193.9c0.7-0.1,1.4-0.3,2.1-0.6"/>
	<path class="st0" d="M206,196.4c0.2,0,0.4,0,0.6-0.1"/>
	<line class="st0" x1="212.5" y1="193.9" x2="212.5" y2="193.8"/>
	<path class="st0" d="M125.2,190.8c0.1,0.1,0.2,0.2,0.4,0.3"/>
	<path class="st0" d="M288.7,159.6c-0.3,0.1-0.6,0.3-0.8,0.4"/>
	<path class="st0" d="M290.5,158.4c0,0.1-0.1,0.1-0.2,0.2c-0.1,0-0.1,0.1-0.2,0.1"/>
	<path class="st0" d="M285.2,161.2c-0.1,0.1-0.2,0.2-0.4,0.3"/>
	<path class="st0" d="M198.6,199.8c-0.1,0-0.1,0-0.2,0.1"/>
	<path class="st0" d="M204.7,197.4c-0.3,0.1-0.7,0.2-1,0.3"/>
	<path class="st0" d="M210.8,195c-0.3,0.1-0.7,0.2-1,0.3"/>
	<path class="st0" d="M222.7,190c-0.3,0.1-0.6,0.3-1,0.4"/>
	<path class="st0" d="M228.5,187.5c-0.3,0.1-0.6,0.3-1,0.4"/>
	<path class="st0" d="M234.3,185c-0.3,0.1-0.6,0.3-1,0.4"/>
	<path class="st0" d="M240,182.5c-0.2,0.1-0.5,0.2-0.8,0.3"/>
	<path class="st0" d="M262.3,172.4c-0.3,0.1-0.5,0.2-0.8,0.4"/>
	<path class="st0" d="M267.7,169.9c-0.3,0.1-0.5,0.2-0.8,0.3"/>
	<path class="st0" d="M273.1,167.3c-0.2,0.1-0.5,0.2-0.7,0.3"/>
	<path class="st0" d="M278.4,164.7c-0.2,0.1-0.4,0.2-0.6,0.3"/>
	<path class="st0" d="M283.6,162.1c-0.3,0.1-0.6,0.3-0.9,0.4"/>
	<path class="st0" d="M214.8,193.3c-1.1,0.4-2.1,0.9-3.2,1.3"/>
	<path class="st0" d="M226.6,188.3c-1.1,0.5-2.1,0.9-3.2,1.3"/>
	<path class="st0" d="M232.4,185.9c-1.1,0.5-2.1,0.9-3.2,1.4"/>
	<path class="st0" d="M260.5,173.2c-0.9,0.4-1.8,0.8-2.7,1.2"/>
	<path class="st0" d="M271.3,168.1c-1.1,0.5-2.2,1.1-3.3,1.6"/>
	<path class="st0" d="M196.7,200.6c-3.2,1.3-6.4,2.6-9.7,3.9"/>
	<path class="st0" d="M201,198.4c0,0.2-0.2,0.2-0.3,0.3"/>
	<line class="st0" x1="235.5" y1="184.4" x2="235.5" y2="184.3"/>
	<line class="st0" x1="252.3" y1="177" x2="252.3" y2="176.8"/>
	<line class="st0" x1="257.8" y1="174.5" x2="257.8" y2="174.3"/>
	<path class="st0" d="M263.3,171.9c-0.3,0.2-0.7,0.4-1,0.5"/>
	<line class="st0" x1="263.3" y1="171.9" x2="263.3" y2="171.8"/>
	<path class="st0" d="M289.5,159c0.2-0.1,0.5-0.3,0.7-0.4"/>
	<line class="st0" x1="274.2" y1="166.7" x2="274.2" y2="166.6"/>
	<path class="st0" d="M279.9,163.8c-0.1,0.1-0.2,0.2-0.4,0.3"/>
	<path class="st0" d="M274.5,166.5c-0.1,0.1-0.2,0.2-0.3,0.2"/>
	<path class="st0" d="M218.6,191.5c-0.1,0.1-0.2,0.2-0.3,0.2"/>
	<path class="st0" d="M224.4,189.1c-0.1,0.1-0.2,0.2-0.3,0.2"/>
	<path class="st0" d="M230.1,186.7c-0.1,0.1-0.2,0.2-0.3,0.2"/>
	<path class="st0" d="M235.8,184.2c-0.1,0.1-0.2,0.2-0.3,0.2"/>
	<path class="st0" d="M241.5,181.8c-0.1,0.1-0.2,0.2-0.3,0.2"/>
	<path class="st0" d="M247.1,179.3c-0.1,0.1-0.2,0.2-0.3,0.2"/>
	<path class="st0" d="M252.6,176.8c-0.1,0.1-0.2,0.2-0.3,0.2"/>
	<path class="st0" d="M263.6,171.7c-0.1,0.1-0.2,0.2-0.3,0.2"/>
	<path class="st0" d="M269.1,169.1c-0.1,0.1-0.2,0.2-0.3,0.2"/>
	<path class="st0" d="M266.9,170.2c0.3-0.2,0.7-0.4,1.1-0.6c0.1-0.1,0.9-0.5,1.1-0.5"/>
	<path class="st0" d="M288.4,159.6c0.3-0.2,0.7-0.4,1.1-0.7"/>
	<path class="st0" d="M56.6,130.2c0,0,0-0.1-0.1-0.1"/>
	<path class="st0" d="M128.3,193.3c0.4,0.3,0.9,0.6,1.4,0.9"/>
	<path class="st0" d="M121.5,187.9c0.4,0.2,0.7,0.4,1.1,0.7"/>
	<path class="st0" d="M112.2,180.3c-0.2-0.1-0.4-0.3-0.6-0.3"/>
	<path class="st0" d="M116.1,183.6c-0.2-0.1-0.9-0.6-0.6-0.3c0.2,0.2,0.4,0.3,0.6,0.5c0.4,0.3,0.8,0.6,1.3,0.9"/>
	<path class="st0" d="M96.6,167.2c-0.2-0.1-0.9-0.6-0.6-0.3c0.2,0.2,0.4,0.3,0.6,0.5c0.4,0.3,0.8,0.6,1.3,0.9"/>
	<path class="st0" d="M100.5,170.5c-0.2-0.1-0.9-0.6-0.6-0.3c0.2,0.2,0.4,0.3,0.6,0.5c0.4,0.3,0.8,0.6,1.3,0.9"/>
	<path class="st0" d="M104.3,173.8c-0.2-0.1-0.9-0.6-0.6-0.3c0.2,0.2,0.4,0.3,0.6,0.5c0.4,0.3,0.8,0.6,1.3,0.9"/>
	<path class="st0" d="M108.2,177.1c-0.2-0.1-0.9-0.6-0.6-0.3c0.2,0.2,0.4,0.3,0.6,0.5c0.4,0.3,0.8,0.6,1.3,0.9"/>
	<path class="st0" d="M63.8,87c1.3-0.5,2.6-1,3.9-1.5"/>
	<path class="st0" d="M109.9,70.1c10.4-3.6,20.9-7.2,31.5-10.6"/>
	<path class="st0" d="M250,68.6c6,3.4,11.9,7,17.8,10.5"/>
	<path class="st0" d="M141.4,59.5c10.5-3.4,21.1-6.7,31.7-9.8"/>
	<path class="st0" d="M173.1,49.7c0.2-0.1,0.4-0.1,0.6-0.2"/>
	<path class="st0" d="M303,101.7c2.5,1.7,4.9,3.3,7.4,5"/>
	<path class="st0" d="M67.7,85.5c9.1-3.5,18.2-6.9,27.4-10.1"/>
	<path class="st0" d="M51.4,94.2c1.6-1.4,3.4-2.7,5.3-3.8"/>
	<path class="st0" d="M302.3,101.7C302.4,101.7,302.4,101.7,302.3,101.7"/>
	<path class="st0" d="M249.3,68.5C249.3,68.5,249.3,68.6,249.3,68.5"/>
	<path class="st0" d="M224.8,54.8c0,0-0.1,0-0.1-0.1"/>
	<path class="st0" d="M45.3,105.8c0.1-4.6,2.8-8.5,6-11.4"/>
	<path class="st0" d="M109,70.4c0.3-0.1,0.6-0.2,0.9-0.3"/>
	<path class="st0" d="M45.1,113.4c-0.1,3.8,1.8,7.1,4.4,9.7"/>
	<path class="st0" d="M298.1,98.4c1.6,1.1,3.3,2.2,4.9,3.3"/>
	<path class="st0" d="M272.5,82.1c8.6,5.3,17.1,10.7,25.5,16.3"/>
	<path class="st0" d="M268.8,79.8c1.2,0.8,2.4,1.5,3.6,2.3"/>
	<path class="st0" d="M267.9,79.2c0.3,0.2,0.6,0.4,0.9,0.6"/>
	<path class="st0" d="M245.7,66.1c1.4,0.8,2.8,1.7,4.2,2.5"/>
	<path class="st0" d="M245.6,66C245.7,66,245.7,66,245.6,66"/>
	<path class="st0" d="M225.6,54.8c1.1,0.6,2.2,1.2,3.2,1.8"/>
	<path class="st0" d="M228.9,56.6c0.2,0.1,0.5,0.3,0.7,0.4"/>
	<path class="st0" d="M229.6,57.1c5.4,2.9,10.7,5.9,16,8.9"/>
	<path class="st0" d="M173.7,49.5c14.3-4.2,35.2-3.7,48.8,3.6"/>
	<line class="st0" x1="320.9" y1="122.4" x2="320.9" y2="130.2"/>
	<path class="st0" d="M310.4,106.7c0.1,0.1,0.2,0.2,0.4,0.2"/>
	<path class="st0" d="M222.8,53.3c0.9,0.5,1.8,1,2.8,1.5"/>
	<path class="st0" d="M126.7,138.9C126.7,138.9,126.7,138.9,126.7,138.9"/>
	<path class="st0" d="M142.7,133.6c-5.1,1.5-10.2,3-15.2,4.6"/>
	<path class="st0" d="M144,133.6c-0.4-0.1-0.8-0.1-1.3,0"/>
	<path class="st0" d="M309,145.4c2-1,3.8-2.1,5.5-3.5"/>
	<path class="st0" d="M120.9,140.4c-2.4,0.8-4.8,1.7-7.2,2.6"/>
	<line class="st0" x1="113.7" y1="142.9" x2="113.7" y2="143"/>
	<path class="st0" d="M113.7,142.9c-0.3,0.1-0.8,0.4-0.7,0.7"/>
	<path class="st0" d="M122.3,140.3c-0.5-0.2-0.9-0.1-1.4,0"/>
	<path class="st0" d="M113.3,144c-0.1-0.1-0.2-0.1-0.3-0.3"/>
	<path class="st0" d="M144,133.6c0.3,0.1,0.5,0.3,0.3,0.6"/>
	<path class="st0" d="M122.3,140.3c0.2,0.1,0.3,0.2,0.3,0.5"/>
	<path class="st0" d="M303.2,102.3c2.2,1.5,4.3,2.9,6.5,4.4"/>
	<path class="st0" d="M221.2,54.7c0-0.1,0-0.1-0.1-0.2"/>
	<path class="st0" d="M221.1,54.7c0-0.1,0-0.1-0.1-0.2"/>
	<path class="st0" d="M122.6,140.8C122.6,140.8,122.6,140.9,122.6,140.8"/>
	<path class="st0" d="M127.5,138.3c-0.2,0.1-0.7,0.3-0.8,0.6"/>
	<path class="st0" d="M61.7,127c-4.1-3.9-8.2-7.8-12.2-11.8"/>
	<path class="st0" d="M91.7,153.5c-1.1-0.9-2.2-1.8-3.3-2.8"/>
	<path class="st0" d="M129.2,183c-0.1-0.1-0.2-0.2-0.3-0.2"/>
	<path class="st0" d="M307.9,136.1c0.2-0.1,0.4-0.2,0.5-0.3"/>
	<path class="st0" d="M190.3,187.3c0.3-0.1,0.5-0.2,0.7-0.3"/>
	<path class="st0" d="M130.1,181.7c-0.1-0.1-0.2-0.2-0.3-0.2"/>
	<path class="st0" d="M316.4,132.1c0.1-0.5-0.4-1-0.8-1.2"/>
	<path class="st0" d="M309.1,137.2c2.7-1.3,5.1-2.9,7.2-5"/>
	<path class="st0" d="M308.5,135.9c0.5,0.4,0.7,0.7,0.7,1.3"/>
	<path class="st0" d="M308.5,135.9c2.6-1.3,5-2.8,7-4.9"/>
	<path class="st0" d="M309.9,106.7c0.1,0.1,0.2,0.2,0.4,0.2"/>
	<path class="st0" d="M199,122.9c0.1,0.2,0.2,0.5,0.3,0.7"/>
	<path class="st0" d="M199,122.9c-0.5,0-1,0.1-1.4,0.1"/>
	<path class="st0" d="M199.3,123.6c-0.5,0-1,0.1-1.4,0.1"/>
	<path class="st0" d="M197.5,123c0.1,0.2,0.2,0.5,0.3,0.7"/>
	<line class="st0" x1="127.5" y1="138.3" x2="127.5" y2="138.3"/>
	<path class="st0" d="M222.2,53.1c0.1,0,0.2,0.1,0.3,0.1"/>
	<path class="st0" d="M213.2,54.7c2.6-0.1,5.3-0.1,7.9-0.1"/>
	<path class="st0" d="M213,54.1c2.7,0.1,5.4,0.2,8,0.4"/>
	<path class="st0" d="M216.9,56.6c2.6-0.1,5.1-0.1,7.7,0"/>
	<path class="st0" d="M309.9,106.7c0.2,0,0.3-0.1,0.5,0.1"/>
	<path class="st0" d="M194,115.4c-0.4-0.5-0.7-1.1-1.1-1.6"/>
	<path class="st0" d="M89.2,149.4c-0.3-0.2-0.5-0.5-0.8-0.7"/>
	<path class="st0" d="M88.3,150.7c-0.3-0.2-0.5-0.5-0.8-0.7"/>
	<path class="st0" d="M88.4,148.7c-0.5,0.2-0.9,0.8-0.9,1.3"/>
	<path class="st0" d="M92.5,152.2c-1.1-0.9-2.2-1.9-3.3-2.8"/>
	<path class="st0" d="M88.3,150.7c0-0.7,0.3-1,0.9-1.3"/>
	<path class="st0" d="M126.7,138.9c-1.5,0.5-2.9,1-4.4,1.5"/>
	<path class="st0" d="M197.5,123c-18.3,1.9-35.9,5.6-53.6,10.6"/>
	<path class="st0" d="M197.9,123.7c-18.3,1.9-36,5.6-53.6,10.5"/>
	<path class="st0" d="M190.9,188.8c0-0.6-0.2-1.1-0.6-1.5"/>
	<path class="st0" d="M229,172c-12.6,5.2-25.3,10.2-38,15.1"/>
	<path class="st0" d="M191.6,188.5c12.7-4.9,25.4-9.9,38-15.1"/>
	<path class="st0" d="M191.6,188.5c0-0.6-0.2-1.1-0.6-1.5"/>
	<path class="st0" d="M276.4,151.3c0.4,0.4,0.6,0.8,0.6,1.4"/>
	<path class="st0" d="M309.1,137.2c-0.2,0.1-0.4,0.2-0.5,0.3"/>
	<path class="st0" d="M308.6,137.5c0-0.6-0.2-1-0.7-1.3"/>
	<path class="st0" d="M190.9,188.8c0.2-0.1,0.5-0.2,0.7-0.3"/>
	<path class="st0" d="M276.4,151.3c-15.6,7.2-31.4,14.1-47.4,20.7"/>
	<path class="st0" d="M229.6,173.4c0-0.6-0.2-1-0.6-1.4"/>
	<path class="st0" d="M222.2,53.1c-13.5-7.2-34.1-7.7-48.3-3.6"/>
	<path class="st0" d="M168.4,57.8c0.2,0,0.3-0.1,0.5-0.1"/>
	<path class="st0" d="M168.8,58.5c0.2,0,0.4-0.1,0.5-0.1"/>
	<path class="st0" d="M213,54.1c0.1,0.2,0.2,0.4,0.2,0.7"/>
	<path class="st0" d="M218.1,57.2c-0.4-0.2-0.8-0.4-1.1-0.6"/>
	<path class="st0" d="M207.5,58.1c-0.1-0.1-0.1-0.2-0.2-0.4"/>
	<path class="st0" d="M218.2,57.4c0.1,0,0.2,0,0.3,0"/>
	<path class="st0" d="M209,63.3c-0.4,0-0.8,0-1.2,0"/>
	<path class="st0" d="M218.1,57.2c0,0.1,0.1,0.2,0.1,0.2"/>
	<path class="st0" d="M218.3,57.2c0,0.1,0.1,0.2,0.1,0.2"/>
	<path class="st0" d="M218.1,57.2c0.1,0,0.2,0,0.3,0"/>
	<path class="st0" d="M225.5,57c-0.3-0.2-0.6-0.3-0.9-0.5"/>
	<path class="st0" d="M225.5,57.2c-2.4,0.1-4.7,0.1-7.1,0.2"/>
	<path class="st0" d="M218.3,57.2c2.4-0.1,4.8-0.1,7.1-0.1"/>
	<path class="st0" d="M245.3,66c0.1,0,0.2,0,0.3,0"/>
	<path class="st0" d="M225.5,57c0,0,0,0.1,0.1,0.1"/>
	<path class="st0" d="M249.5,68.5C249.5,68.5,249.6,68.5,249.5,68.5"/>
	<path class="st0" d="M267.4,79.1C267.5,79.1,267.5,79.1,267.4,79.1"/>
	<path class="st0" d="M208.6,75.1c0.3,0.4,0.4,0.8,0.6,1.3"/>
	<path class="st0" d="M268.4,79.7c0.1,0,0.3,0,0.4,0"/>
	<path class="st0" d="M272,82C272,82,272,82,272,82"/>
	<path class="st0" d="M187.6,89.6c-0.2-0.2-0.4-0.4-0.5-0.6"/>
	<path class="st0" d="M297.6,98.3c0.1,0,0.3,0,0.4,0.1"/>
	<path class="st0" d="M65.9,128.9c-1.1-1-2.2-2-3.3-3.1"/>
	<path class="st0" d="M65.1,130.1c-1.1-1-2.2-2-3.3-3.1"/>
	<path class="st0" d="M62.6,125.8c-0.5,0.2-0.9,0.7-0.9,1.2"/>
	<path class="st0" d="M297.7,98.3C297.7,98.3,297.6,98.3,297.7,98.3"/>
	<path class="st0" d="M302.5,101.7C302.5,101.7,302.5,101.7,302.5,101.7"/>
	<path class="st0" d="M192.9,113.8c-0.2-0.2-0.3-0.3-0.4-0.6"/>
	<path class="st0" d="M50.4,114c-0.6,0.2-0.8,0.5-0.9,1.2"/>
	<path class="st0" d="M62.6,125.8c-4.1-3.9-8.2-7.8-12.2-11.8"/>
	<path class="st0" d="M182.4,78.5C182.4,78.5,182.4,78.5,182.4,78.5"/>
	<path class="st0" d="M182.4,78.5c-0.2-0.5-0.3-0.9-0.7-1.3"/>
	<path class="st0" d="M147.4,62.4c-0.1-0.2-0.2-0.3-0.4-0.4"/>
	<path class="st0" d="M147.5,62.3c0,0-0.1,0-0.1,0"/>
	<path class="st0" d="M147,61.9c0,0,0.1,0,0.1,0"/>
	<path class="st0" d="M147.5,62.3c-0.1-0.2-0.2-0.3-0.4-0.4"/>
	<path class="st0" d="M147.5,62.3c5.3-1.1,10.6-2.1,16-3"/>
	<path class="st0" d="M147.1,61.9c5.3-1.1,10.6-2.2,15.9-3.1"/>
	<path class="st0" d="M163.5,59.4c-0.1-0.2-0.3-0.4-0.4-0.6"/>
	<path class="st0" d="M164.8,62.7c1.9-0.4,3.7-0.7,5.6-1"/>
	<path class="st0" d="M163.1,58.8c1.8-0.3,3.5-0.6,5.3-1"/>
	<path class="st0" d="M164.8,62.7c0.1,0.2,0.1,0.3,0.2,0.5"/>
	<path class="st0" d="M170.4,61.7c0.1,0.2,0.2,0.4,0.3,0.5"/>
	<path class="st0" d="M171.1,62.7c-1.9,0.3-3.8,0.7-5.7,1"/>
	<path class="st0" d="M165.4,63.7c-0.2-0.1-0.3-0.2-0.4-0.4"/>
	<path class="st0" d="M165,63.3c1.9-0.4,3.8-0.7,5.7-1"/>
	<path class="st0" d="M170.7,62.2c0.1,0.2,0.2,0.3,0.4,0.4"/>
	<path class="st0" d="M190.6,63.9c-7.6,0.6-15,1.5-22.5,2.7"/>
	<path class="st0" d="M165.3,63.7c0,0,0.1,0,0.1,0"/>
	<path class="st0" d="M171.1,62.7c12.1-2,24.2-3.7,36.4-4.6"/>
	<path class="st0" d="M170.7,62.2c12.1-2.1,24.2-3.7,36.5-4.5"/>
	<path class="st0" d="M191.2,65.4c5.7-0.4,11.3-0.7,17-0.9"/>
	<path class="st0" d="M207.8,63.3c-5.8,0-11.5,0.2-17.3,0.7"/>
	<path class="st0" d="M208.2,64.5c-0.1-0.4-0.2-0.9-0.4-1.3"/>
	<path class="st0" d="M200.9,70c-0.2,0-0.5,0.1-0.7,0.1"/>
	<path class="st0" d="M201.3,70.7c5.3-0.5,10.5-1,15.8-1.3"/>
	<path class="st0" d="M201.3,70.7c-0.2-0.2-0.3-0.5-0.4-0.7"/>
	<path class="st0" d="M216.8,68.7c-5.3,0.3-10.6,0.7-15.9,1.3"/>
	<path class="st0" d="M217.1,69.4c-0.2-0.2-0.2-0.4-0.3-0.7"/>
	<path class="st0" d="M200.6,70.8c-0.2-0.2-0.3-0.4-0.4-0.7"/>
	<path class="st0" d="M201.3,70.7c-0.2,0-0.5,0.1-0.7,0.1"/>
	<path class="st0" d="M208.6,75.1c-9,0.3-17.9,1-26.9,2.1"/>
	<path class="st0" d="M181.7,77.2C181.7,77.2,181.7,77.2,181.7,77.2"/>
	<path class="st0" d="M182.5,78.5c8.9-1,17.8-1.7,26.7-2"/>
	<path class="st0" d="M181.7,77.2c0.4,0.4,0.5,0.8,0.7,1.3"/>
	<path class="st0" d="M47.9,110.8c-0.5,0.1-0.9,0.6-0.9,1.1"/>
	<path class="st0" d="M46.6,107.5c-0.5,0.1-1,0.5-1,1"/>
	<path class="st0" d="M46.6,107.5c-1.3-5.3,1.7-10,5.3-13.3"/>
	<path class="st0" d="M61,91.2c-3.1,0.9-6.1,1.9-9.1,2.9"/>
	<path class="st0" d="M61.2,91.4c-0.1-0.1-0.1-0.1-0.2-0.2"/>
	<path class="st0" d="M57.3,90.3c-0.2-0.1-0.3-0.1-0.4,0"/>
	<path class="st0" d="M67.9,85.5c-0.1,0-0.2-0.1-0.3,0"/>
	<path class="st0" d="M88.2,81.5c8.6-2.4,17.3-4.6,26-6.8"/>
	<path class="st0" d="M68.9,86.9c6.4-1.9,12.8-3.7,19.3-5.4"/>
	<path class="st0" d="M118.5,73.7c-0.1,0-0.1-0.1-0.1-0.1"/>
	<path class="st0" d="M149.7,66.7c0.2,0,0.5-0.1,0.7-0.1"/>
	<path class="st0" d="M149.4,66.4c0.1,0.1,0.2,0.2,0.3,0.3"/>
	<path class="st0" d="M149.4,66.4c0.2,0,0.5-0.1,0.7-0.1"/>
	<path class="st0" d="M165.3,63.7c-0.2-0.1-0.3-0.2-0.4-0.4"/>
	<path class="st0" d="M164.9,63.3c0,0,0.1,0,0.1,0"/>
	<path class="st0" d="M165.3,63.7c-5,0.9-9.9,1.9-14.9,2.9"/>
	<path class="st0" d="M150.1,66.2c0.1,0.1,0.2,0.2,0.3,0.3"/>
	<path class="st0" d="M150.1,66.2c4.9-1,9.9-2,14.9-3"/>
	<path class="st0" d="M156.3,69.6c4.1-0.7,8.3-1.3,12.4-1.8"/>
	<path class="st0" d="M168.1,66.6c-4.1,0.6-8.2,1.3-12.4,2.1"/>
	<path class="st0" d="M168.7,67.8c-0.2-0.4-0.3-0.8-0.7-1.1"/>
	<path class="st0" d="M156.2,69.6c0,0,0.1,0,0.1,0"/>
	<path class="st0" d="M178,73.8c7.5-1.2,15-2.2,22.6-3"/>
	<path class="st0" d="M200.2,70.1c-7.6,0.8-15.1,1.9-22.6,3.1"/>
	<path class="st0" d="M156.1,77.7c7.3-1.4,14.5-2.8,21.9-3.9"/>
	<path class="st0" d="M156.1,77.7c-0.2-0.1-0.3-0.3-0.5-0.5"/>
	<path class="st0" d="M177.5,73.1c-7.3,1.2-14.6,2.5-21.9,4"/>
	<path class="st0" d="M119.5,86c12.1-3.1,24.3-5.9,36.6-8.3"/>
	<path class="st0" d="M119.5,86c-0.1-0.1-0.2-0.2-0.3-0.3"/>
	<path class="st0" d="M113.9,87.5c1.9-0.5,3.7-1,5.6-1.4"/>
	<path class="st0" d="M113.9,87.5c-0.1-0.1-0.2-0.2-0.3-0.3"/>
	<path class="st0" d="M113.6,87.2c1.8-0.5,3.7-1,5.5-1.5"/>
	<path class="st0" d="M84.7,95.6c9.7-2.8,19.4-5.6,29.2-8.1"/>
	<path class="st0" d="M84.7,95.6c-0.1-0.1-0.1-0.1-0.2-0.2"/>
	<path class="st0" d="M77.4,86.9c-0.1-0.1-0.2-0.2-0.3-0.3"/>
	<path class="st0" d="M69,87c6.4-1.8,12.9-3.6,19.3-5.4"/>
	<path class="st0" d="M69,87c0,0-0.1-0.1-0.1-0.1"/>
	<path class="st0" d="M68.5,87.1c0.2,0,0.3-0.1,0.5-0.1"/>
	<path class="st0" d="M68.4,87C68.4,87,68.5,87.1,68.4,87"/>
	<path class="st0" d="M68.4,87c0.2,0,0.3-0.1,0.5-0.1"/>
	<path class="st0" d="M114.3,74.7c-8.7,2.2-17.3,4.5-26,6.9"/>
	<path class="st0" d="M88.2,81.5c0,0,0.1,0.1,0.2,0.1"/>
	<path class="st0" d="M107.2,79.1c-0.2,0.1-0.5,0.1-0.7,0.2"/>
	<path class="st0" d="M114.3,74.7c1.4-0.3,2.8-0.7,4.1-1"/>
	<path class="st0" d="M115.1,77.2c-0.2,0.1-0.4,0.1-0.6,0.2"/>
	<path class="st0" d="M114.2,74.6c0,0,0.1,0.1,0.1,0.1"/>
	<path class="st0" d="M114.2,74.6c1.4-0.3,2.8-0.7,4.1-1"/>
	<path class="st0" d="M119.2,85.7c12.1-3.2,24.2-6.1,36.5-8.6"/>
	<path class="st0" d="M114.9,77.9c0.2-0.1,0.4-0.1,0.6-0.1"/>
	<path class="st0" d="M106.8,79.8c0.2-0.1,0.5-0.1,0.7-0.2"/>
	<path class="st0" d="M84.6,95.4c9.6-2.9,19.3-5.6,29.1-8.2"/>
	<path class="st0" d="M77.4,86.9c0.3-0.1,0.6-0.2,0.9-0.2"/>
	<path class="st0" d="M78,86.4c-0.3,0.1-0.6,0.2-0.9,0.2"/>
	<path class="st0" d="M78.3,86.7c-0.1-0.1-0.2-0.2-0.3-0.3"/>
	<path class="st0" d="M106.8,79.8c-0.1-0.2-0.2-0.3-0.4-0.4"/>
	<path class="st0" d="M107.6,79.6c-0.1-0.2-0.2-0.3-0.4-0.4"/>
	<path class="st0" d="M114.5,77.3c-2.4,0.6-4.8,1.2-7.3,1.8"/>
	<path class="st0" d="M115.5,77.7c13.5-3.2,27-5.9,40.7-8.1"/>
	<path class="st0" d="M156.2,69.6c-0.2-0.3-0.3-0.7-0.6-0.9"/>
	<path class="st0" d="M155.7,68.7c0,0-0.1,0-0.1,0"/>
	<path class="st0" d="M155.7,68.7c0.3,0.3,0.5,0.6,0.6,0.9"/>
	<path class="st0" d="M168.7,67.8c7.5-1,15-1.8,22.5-2.4"/>
	<path class="st0" d="M190.6,63.9c0.3,0.4,0.5,0.9,0.6,1.4"/>
	<path class="st0" d="M208.2,64.5c0.4,0,0.8,0,1.2,0"/>
	<path class="st0" d="M209.4,64.5c-0.1-0.4-0.2-0.9-0.4-1.2"/>
	<path class="st0" d="M209.4,64.5c5.5-0.1,11,0,16.5,0.2"/>
	<path class="st0" d="M173.7,49.5c0.1,0,0.1,0,0.2,0"/>
	<path class="st0" d="M173.1,49.7c0.1,0,0.1,0,0.2,0"/>
	<path class="st0" d="M229.2,57C229.2,57,229.2,57,229.2,57"/>
	<path class="st0" d="M228.9,56.6c-0.1-0.1-0.3-0.1-0.4,0"/>
	<path class="st0" d="M65.9,128.9C65.9,128.9,65.9,128.9,65.9,128.9"/>
	<path class="st0" d="M141.4,59.5c0.1,0,0.1,0,0.2,0"/>
	<path class="st0" d="M109.9,70.1c0.1,0,0.2,0,0.3,0"/>
	<path class="st0" d="M95.1,75.4c0.1,0,0.2,0,0.3,0"/>
	<path class="st0" d="M63.8,87c0.1,0,0.2,0,0.3,0"/>
	<path class="st0" d="M225.2,54.8c-0.9-0.5-1.8-1-2.8-1.5"/>
	<path class="st0" d="M127.1,139.3c-1.5,0.5-3,1-4.5,1.5"/>
	<path class="st0" d="M168.9,57.7c14.7-2.5,29.2-4,44.1-3.7"/>
	<path class="st0" d="M173.9,49.5c-0.2,0.1-0.4,0.1-0.6,0.2"/>
	<path class="st0" d="M310.8,107c-0.2-0.1-0.3-0.1-0.5-0.1"/>
	<path class="st0" d="M141.6,59.6c10.5-3.4,21.1-6.7,31.7-9.8"/>
	<path class="st0" d="M169.4,58.5c-0.1-0.3-0.3-0.5-0.5-0.7"/>
	<path class="st0" d="M170.4,61.7c15.4-2.8,30.8-4.8,46.5-5.1"/>
	<path class="st0" d="M169.4,58.5c13.3-2.1,30.4-3.4,43.9-3.7"/>
	<path class="st0" d="M218.2,57.4c-3.6,0.2-7.1,0.4-10.7,0.7"/>
	<path class="st0" d="M207.3,57.7c3.6-0.2,7.2-0.4,10.8-0.5"/>
	<path class="st0" d="M229.2,57.1c5.4,2.9,10.7,5.9,16.1,8.9"/>
	<path class="st0" d="M225.5,57c1.2,0,2.5,0,3.7,0"/>
	<path class="st0" d="M228.5,56.6c-1.3,0-2.6-0.1-3.9-0.1"/>
	<path class="st0" d="M229.2,57c-0.2-0.1-0.5-0.3-0.7-0.4"/>
	<path class="st0" d="M225.3,54.8c1.1,0.6,2.1,1.2,3.2,1.8"/>
	<path class="st0" d="M225.9,64.7c6.5,0.2,13,0.7,19.5,1.3"/>
	<path class="st0" d="M245.3,66c-6.5-0.9-13-1.6-19.6-2"/>
	<path class="st0" d="M245.4,66c1.4,0.8,2.8,1.7,4.2,2.5"/>
	<path class="st0" d="M249.6,68.6c6,3.4,11.9,6.9,17.8,10.5"/>
	<path class="st0" d="M267.4,79.1c-19.6-3.2-39-4.6-58.8-4"/>
	<path class="st0" d="M267.5,79.1c0.3,0.2,0.6,0.4,0.9,0.6"/>
	<path class="st0" d="M268.4,79.7c-30.5-3.4-54.8-3.7-85.3,0.3"/>
	<path class="st0" d="M268.4,79.7c1.2,0.8,2.4,1.5,3.6,2.3"/>
	<path class="st0" d="M272,82c8.6,5.3,17.1,10.7,25.6,16.2"/>
	<path class="st0" d="M297.7,98.3c1.6,1.1,3.2,2.2,4.8,3.3"/>
	<path class="st0" d="M65.1,130.1C65.1,130.1,65.1,130.1,65.1,130.1"/>
	<path class="st0" d="M50.4,114c-1-1-1.8-2-2.5-3.2"/>
	<path class="st0" d="M47,112c0.7,1.2,1.6,2.3,2.6,3.2"/>
	<path class="st0" d="M110.1,70.1c10.4-3.7,20.9-7.2,31.4-10.6"/>
	<path class="st0" d="M110.1,70.1c12.3-2.7,24.6-5.6,36.9-8.2"/>
	<path class="st0" d="M109.2,70.5c12.8-2.5,25.4-5.6,38.2-8.1"/>
	<path class="st0" d="M110.1,70.1c-0.3,0.1-0.6,0.2-0.9,0.4"/>
	<path class="st0" d="M95.4,75.4c4.6-1.7,9.3-3.3,13.9-4.9"/>
	<path class="st0" d="M75,83.6c12.3-3.2,24.6-6.5,37-9.4c12.4-2.9,24.8-5.7,37.2-8.3"/>
	<path class="st0" d="M95.4,75.4c-6.8,2.7-13.6,5.4-20.3,8.2"/>
	<path class="st0" d="M149.2,65.9c5.2-1.1,10.4-2.2,15.6-3.2"/>
	<path class="st0" d="M168.8,58.5c-1.8,0.3-3.6,0.6-5.4,0.9"/>
	<path class="st0" d="M168.4,57.8c0.2,0.2,0.3,0.5,0.5,0.7"/>
	<path class="st0" d="M51.8,94.2C51.8,94.2,51.9,94.2,51.8,94.2"/>
	<path class="st0" d="M51.8,94.2c3.1-1,6.2-1.9,9.4-2.8"/>
	<path class="st0" d="M51.9,94.1c1.6-1.4,3.4-2.7,5.3-3.7"/>
	<path class="st0" d="M57.3,90.3c3.7-1.1,7.4-2.2,11.1-3.3"/>
	<path class="st0" d="M75,83.6c-2.4,0.6-4.7,1.3-7.1,1.9"/>
	<path class="st0" d="M67.9,85.5c-1.3,0.5-2.6,1-3.9,1.5"/>
	<path class="st0" d="M64.1,87.1c-2.4,0.9-4.6,2-6.8,3.3"/>
	<path class="st0" d="M95.4,75.4c-9.2,3.3-18.3,6.7-27.4,10.1"/>
	<path class="st0" d="M149.4,66.4c0-0.2-0.1-0.3-0.1-0.4"/>
	<path class="st0" d="M149.7,66.7c-10.5,2.1-20.9,4.4-31.2,7"/>
	<path class="st0" d="M118.3,73.6c10.3-2.6,20.7-5,31.1-7.2"/>
	<path class="st0" d="M155.6,68.7c-13.6,2.4-27.1,5.2-40.5,8.5"/>
	<path class="st0" d="M61.2,91.4c5.4-1.6,10.8-3,16.2-4.5"/>
	<path class="st0" d="M77.1,86.7c-5.4,1.4-10.8,2.9-16.1,4.5"/>
	<path class="st0" d="M115.5,77.7c-0.1-0.2-0.3-0.4-0.4-0.5"/>
	<path class="st0" d="M78.3,86.7c9.5-2.4,19-4.7,28.5-7"/>
	<path class="st0" d="M106.5,79.3C97,81.6,87.5,84,78,86.4"/>
	<path class="st0" d="M107.6,79.6c2.4-0.6,4.9-1.1,7.3-1.7"/>
	<path class="st0" d="M114.5,77.3c0.2,0.2,0.3,0.3,0.4,0.5"/>
	<path class="st0" d="M225.7,63.9c-5.5-0.4-11.1-0.6-16.7-0.7"/>
	<path class="st0" d="M225.7,63.9c0.1,0.3,0.1,0.5,0.2,0.8"/>
	<path class="st0" d="M65.1,138.4c1.7,2,3.4,3.9,5.4,5.7"/>
	<line class="st0" x1="290.2" y1="158.7" x2="290.2" y2="158.6"/>
	<line class="st0" x1="200.8" y1="198.4" x2="200.7" y2="198.7"/>
	<path class="st0" d="M289.5,159c2.8-1.9,4.8-4.3,6.6-7.1"/>
	<path class="st0" d="M109,70.4c0.1,0,0.2,0,0.3,0"/>
	<path class="st0" d="M65.1,130c0.1-0.6,0.3-0.9,0.8-1.1"/>
	<path class="st0" d="M186.8,204.6c2.2-0.9,3.6-5.1,4.1-6.9"/>
	<line class="st0" x1="128.8" y1="191.6" x2="129.2" y2="183"/>
	<line class="st0" x1="49.6" y1="115.2" x2="49.5" y2="123.1"/>
	<path class="st0" d="M128.9,182.8c-12.7-9.4-25.1-19.2-37.2-29.3"/>
	<path class="st0" d="M129.8,181.4c-0.6,0.3-0.8,0.7-0.9,1.4"/>
	<path class="st0" d="M310.3,106.9c3.7,2.6,7.6,6.3,9.1,10.9c1.6,5.1-0.3,9.6-3.8,13.1"/>
	<path class="st0" d="M315.5,130.9c-9.5-2.2-19.1-4-28.7-5.4c-9.7-1.5-19.3-2.5-29.1-3c-18.4-1.1-40-0.7-58.4,1.1"/>
	<path class="st0" d="M315.5,130.9c-18.2-4.4-39.2-7.7-57.9-8.9c-18.4-1.2-40.3-1-58.6,0.8"/>
	<path class="st0" d="M89.2,149.4c33.8-15.6,68.1-27.1,104.8-34"/>
	<path class="st0" d="M92.6,152.2c12.1,10.1,24.6,19.8,37.2,29.2"/>
	<path class="st0" d="M225.2,54.8c0.1,0,0.3,0,0.4,0.1"/>
	<path class="st0" d="M222.8,53.3c-0.1-0.1-0.2-0.1-0.3,0"/>
	<path class="st0" d="M221.2,54.7c1.4,0,2.7,0.1,4.1,0.1"/>
	<path class="st0" d="M221.1,54.4c1.4,0.1,2.8,0.2,4.1,0.3"/>
	<path class="st0" d="M302.5,101.7c2.5,1.7,4.9,3.3,7.4,5"/>
	<path class="st0" d="M303,101.7c-0.2-0.1-0.3-0.1-0.5-0.1"/>
	<path class="st0" d="M194,115.4c19.1-3.6,38.3-5.9,57.7-7.5c19.4-1.6,38.7-2,58.2-1.3"/>
	<path class="st0" d="M113.3,144c-7,2.5-13.9,5.3-20.8,8.2"/>
	<path class="st0" d="M113,143.7c-6.9,2.6-13.7,5.4-20.5,8.5"/>
	<path class="st0" d="M190.9,188.8c-17.8,6.8-45.4,6.3-61.6-5.8"/>
	<path class="st0" d="M130.1,181.7c15.9,11.8,42.8,12.2,60.2,5.6"/>
	<path class="st0" d="M129.2,183c0-0.7,0.3-1,0.9-1.4"/>
	<path class="st0" d="M276.4,151.3c10.6-4.9,21.1-9.9,31.6-15.2"/>
	<line class="st0" x1="309.1" y1="137.2" x2="309" y2="145.4"/>
	<line class="st0" x1="191.2" y1="197.5" x2="190.9" y2="188.8"/>
	<path class="st0" d="M277,152.7c10.6-4.9,21.1-10,31.6-15.2"/>
	<path class="st0" d="M316.4,132.1c2.6-2.6,4.5-5.9,4.5-9.8"/>
	<path class="st0" d="M222.7,53.3c-0.1-0.2-0.3-0.2-0.5-0.1"/>
	<path class="st0" d="M229.6,57.1c-0.1-0.1-0.3-0.1-0.4,0"/>
	<path class="st0" d="M225.5,57.2c1.2,0,2.5-0.1,3.7-0.1"/>
	<path class="st0" d="M225.3,54.8c0.1,0,0.2,0,0.4,0"/>
	<path class="st0" d="M245.4,66c0.1,0,0.2,0,0.3,0"/>
	<path class="st0" d="M249.6,68.6c-10.8-0.2-21.7,0.1-32.5,0.8"/>
	<path class="st0" d="M249.5,68.5c-10.9-0.4-21.8-0.5-32.7,0.2"/>
	<path class="st0" d="M249.6,68.6c0.2,0,0.3,0,0.4,0"/>
	<path class="st0" d="M267.4,79.1c0.2,0,0.3,0,0.4,0.1"/>
	<path class="st0" d="M267.5,79.1c0.1,0,0.3,0,0.4,0.1"/>
	<path class="st0" d="M209.2,76.4c19.6-0.7,38.9,0.5,58.3,2.7"/>
	<path class="st0" d="M272,82c-31.4,0.5-53.4,2-84.4,7.6"/>
	<path class="st0" d="M272,82c-31.4-0.2-53.9,1.4-84.8,7"/>
	<path class="st0" d="M272,82c0.2,0,0.3,0,0.4,0"/>
	<path class="st0" d="M297.6,98.3c-39.7-6.8-78.2-7.6-118.1-2.2c-19.7,2.7-38.8,7.2-57.8,12.8c-19,5.6-37.7,11.8-55.8,20"/>
	<path class="st0" d="M65.9,128.9c18.3-7.4,37-13.5,56-18.9c19-5.4,38.1-9.8,57.8-12.5c42.2-5.9,75.9-4.4,117.9,0.8"/>
	<path class="st0" d="M297.7,98.3c0.2,0,0.3,0,0.4,0.1"/>
	<path class="st0" d="M192.5,113.3C156.1,121,122,133,88.4,148.7"/>
	<path class="st0" d="M88.4,148.7c-7.6-6.5-15.1-13.1-22.5-19.8"/>
	<path class="st0" d="M192.9,113.8c33.9-7.2,74.9-11.8,109.6-12.1"/>
	<path class="st0" d="M302.5,101.7c-34.5-0.3-76.3,4.5-110,11.6"/>
	<path class="st0" d="M88.4,148.7c33.8-15.3,68.1-27.2,104.5-34.9"/>
	<path class="st0" d="M47.9,110.9c-0.5,0.1-0.9,0.6-0.9,1.1"/>
	<path class="st0" d="M183.1,80c-22.8,3-45.1,7.7-67.2,13.6C96,98.9,69.6,106.4,50.4,114"/>
	<path class="st0" d="M181.7,77.2c-23,2.7-45.4,7.3-67.8,13.2c-18.2,4.8-48.6,12.9-66,20.4"/>
	<path class="st0" d="M47.9,110.9c20.2-7.4,45.6-14.2,66.5-19.5c22.5-5.7,45-10.2,68-12.9"/>
	<path class="st0" d="M45.6,108.5c-0.2-0.9-0.3-1.8-0.3-2.8"/>
	<path class="st0" d="M47.9,110.8c-0.6-1.1-1-2.1-1.3-3.3"/>
	<path class="st0" d="M47,111.9c-0.6-1.1-1.1-2.2-1.4-3.4"/>
	<path class="st0" d="M51.8,94.2c-0.2,0-0.4,0-0.6,0.2"/>
	<path class="st0" d="M51.9,94.1c-0.2,0-0.3,0-0.5,0.1"/>
	<path class="st0" d="M57.2,90.4c-0.2-0.1-0.3-0.1-0.5,0"/>
	<path class="st0" d="M57.2,90.4c3.8-1.1,7.5-2.2,11.3-3.3"/>
	<path class="st0" d="M178,73.8c-0.2-0.2-0.3-0.4-0.5-0.6"/>
	<path class="st0" d="M46.6,107.5c12.6-4.3,25.2-8.3,38-12.1"/>
	<path class="st0" d="M46.6,107.5c12.7-4.2,25.4-8.2,38.2-11.9"/>
	<path class="st0" d="M187.2,89c-42.2,7.6-84.9,20.7-124.5,36.8"/>
	<path class="st0" d="M62.6,125.8c40.8-15.7,81.9-28.4,125-36.2"/>
	<path class="st0" d="M91.7,153.5c0-0.7,0.3-1,0.8-1.3"/>
	<path class="st0" d="M134.5,198.1c-2.1-1.6-3.5-3.6-4.8-5.9"/>
	<path class="st0" d="M51.8,125.4c1.2,1.6,2.6,3.2,4,4.6"/>
	<path class="st0" d="M61.2,134.6c-2-1.1-3.4-2.5-4.6-4.5"/>
	<line class="st0" x1="284.9" y1="161.3" x2="284.9" y2="161.4"/>
	<path class="st0" d="M201,198.4c2.2-1.8,3.5-4.1,4.8-6.6"/>
	<path class="st0" d="M297.3,155.3c4.5-2.2,7.7-5.4,10.6-9.3"/>
	<path class="st0" d="M125.1,190.8c-2.4-1.9-4.2-4.1-5.9-6.5"/>
	<path class="st0" d="M122.2,140.4c-3.1,1.1-6.2,2.2-9.2,3.3"/>
	<path class="st0" d="M143.9,133.7c-5.8,1.6-11.5,3.3-17.1,5.2"/>
	<path class="st0" d="M144.2,134.3c-5.7,1.6-11.4,3.3-17.1,5.1"/>
	<path class="st0" d="M122.5,140.9c-3.1,1-6.1,2.1-9.2,3.2"/>
</g>
</svg>
