<?xml version="1.0" encoding="utf-8"?>

<!-- Generator: Adobe Illustrator 23.0.0, SVG Export Plug-In . SVG Version: 6.00 Build 0)  -->
<svg version="1.1" id="Layer_1" xmlns="http://www.w3.org/2000/svg" xmlns:xlink="http://www.w3.org/1999/xlink" x="0px" y="0px"
	 viewBox="0 0 366 255.1" style="enable-background:new 0 0 366 255.1;" xml:space="preserve">
<style type="text/css">
	.st0{fill:#22F4BB;}
</style>
<g>
	<polygon class="st0" points="84.5,112.8 84.1,112.7 83.8,113.3 222.7,193.1 222.9,193.2 223.2,192.6 	"/>
	<path class="st0" d="M280.7,203.2c0-1.3-0.4-2.5-1.3-2.8c-0.7-0.4-1.6-0.4-2.5,0.1l-4.3,2.5c-0.1,0.1-0.2,0.2-0.3,0.2
		c-1.5,0.8-2.5,2.6-2.8,4.6l0,0c-0.1,0.6-0.2,1.1-0.2,1.8c0,1.5,0.4,2.6,1.3,3c0.3,0.1,0.7,0.2,1,0.2c0.4,0,1-0.1,1.2-0.3h0.1h0.1
		l0,0c0.2,0,0.3,0,0.6,0c0.1,0,0.2,0,0.3,0c1.2-0.1,2.5-1.1,3.3-2.4l0.1-0.1c1.8-1,3.4-4,3.4-6.6l0,0
		C280.7,203.3,280.7,203.3,280.7,203.2C280.7,203.3,280.7,203.2,280.7,203.2z M271.2,210.7L271.2,210.7c-0.6-0.6-0.8-1.2-0.8-2
		c0-0.2,0-0.6,0-0.8c0.2-2,1.6-3.8,3.1-4.3c-1.3,0.9-2.5,2.6-2.7,4.5C270.6,209,270.8,209.9,271.2,210.7z M270.6,211.4l1.2,0.6
		c-0.3,0.1-0.7,0-1-0.1c-0.1-0.1-0.2-0.1-0.2-0.2c-0.1-0.2-0.2-0.4-0.3-0.7C270.4,211.1,270.5,211.3,270.6,211.4z M273.4,211.7
		L273.4,211.7l-1.1-0.6c-0.7-0.7-0.9-1.7-0.8-2.9c0.2-2.2,1.8-4.1,3.5-4.4c0,0,0.1,0,0.2,0c0.6,0,1,0.1,1.3,0.6
		c0.7,0.7,0.9,1.7,0.8,2.9c-0.1,0.6-0.2,1.2-0.4,1.7c0,0-0.1,0-0.1,0.1l-0.2,0.1v0.1c0,0.1,0,0.2-0.1,0.3l-0.4,0.8
		c-0.1,0.1-0.2,0.2-0.3,0.3c-0.6,0.4-1.1,0.8-1.8,0.9l0,0C273.8,211.8,273.6,211.8,273.4,211.7z M278.1,207.5c0.2-1.5-0.2-2.8-1-3.6
		c-0.4-0.6-1.1-0.8-1.8-0.8l-1.1-0.2l3-1.8c0.7-0.3,1.2-0.3,1.7-0.1c0.6,0.3,0.9,1.2,0.9,2.4c0,1.8-0.8,3.7-1.8,4.9
		C278.1,207.9,278.1,207.7,278.1,207.5z"/>
	<path class="st0" d="M282.6,200.9c-0.7,0.1-1.1,0.8-1.2,1.5c0,0.3,0.1,0.8,0.3,1c0.2,0.1,0.4,0.2,0.7,0.2c0.8-0.1,1.2-0.8,1.3-1.5
		c0-0.3-0.1-0.8-0.3-1C283.2,201,282.8,200.9,282.6,200.9z M282.8,201.5c0.1,0.1,0.1,0.2,0.1,0.4c0,0.4-0.3,0.8-0.6,0.8h-0.1
		c-0.1-0.1-0.1-0.2-0.1-0.4C282.2,201.9,282.5,201.5,282.8,201.5L282.8,201.5z"/>
	<path class="st0" d="M305.8,184.3c-0.3,0-0.6,0-0.8,0.1l-11.2,6.2c-2,1.1-3.7,4.1-3.7,6.8c0,1.6,0.6,2.9,1.6,3.5
		c0.4,0.2,0.9,0.3,1.3,0.3s0.9-0.1,1.5-0.3l0.4,1.1c0,0.1,0.2,0.2,0.3,0.1c0,0,0.1,0,0.1-0.1l0,0c-0.1,0-0.1,0-0.2-0.1l-0.3-1
		c0,0,0.1,0,0.1-0.1l0,0c0,0,0,0,0.1,0h0.1l0,0c0.1,0,0.3-0.1,0.4-0.1l0,0h0.1c0.6,0.2,0.9,0.7,0.9,1.3c0,0.3-0.1,0.7-0.2,0.9
		c0.2-0.3,0.3-0.8,0.3-1.2c-0.1-0.3-0.3-0.8-0.9-1l0.3-0.2l0,0c0.1-0.1,0.2-0.1,0.3-0.2c0.4-0.2,0.8-0.6,1.1-1l7.8-4.1
		c0.6-0.2,0.7-0.9,0.4-1.3c-0.1-0.2-0.3-0.3-0.6-0.4c-0.3,0-0.6,0-0.8,0.1l-5.7,3.1c0-0.1,0.1-0.2,0.1-0.4c0.2-1.3-0.1-2.5-0.9-3.3
		c-0.6-0.6-1.2-0.8-2-0.7l-0.7-0.1l10.5-5.8c0.2-0.1,0.3-0.3,0.4-0.6c0-0.3,0-0.6-0.1-0.8C306.3,184.5,306,184.4,305.8,184.3z
		 M305,193.8h0.1l0.1,0.1v0.1l-0.1,0.1l-6.5,3.6c0.1-0.1,0.1-0.2,0.1-0.4L305,193.8z M298.3,195.9c-0.2,2-1.7,3.7-3.1,3.9
		c-0.2,0-0.6,0-0.8,0l0,0c-0.2-0.1-0.4-0.2-0.6-0.3l0,0l0,0c-0.6-0.6-0.8-1.5-0.7-2.6c0.2-2,1.7-3.7,3.1-3.9c0.1,0,0.1,0,0.1,0
		l0.4,0.1V193c0.3,0.1,0.6,0.2,0.9,0.4C298.2,193.9,298.4,194.8,298.3,195.9z M292,199.7l1.1,0.4c-0.3,0-0.6-0.1-0.9-0.2
		c-0.8-0.4-1.2-1.2-1.2-2.6C291.1,198.3,291.5,199.2,292,199.7z M293.2,194.1c0.2-0.4,0.6-0.8,0.8-1.1c0.1-0.1,0.3-0.2,0.4-0.2
		C293.9,193.1,293.5,193.6,293.2,194.1z M294.4,191.4c-0.4,0.2-0.9,0.7-1.3,1.1c-0.6,0.4-1,0.9-1.3,1.6c0.6-1.3,1.5-2.5,2.5-3
		l11.2-6.2c0,0,0,0,0.1,0l0.1,0.1v0.1l-0.1,0.1L294.4,191.4z"/>
	<polygon class="st0" points="271.4,216.4 270.8,214.6 271.4,216.6 271.4,216.7 271.5,216.7 272.1,214.1 272.5,213.9 272.5,216.9 
		272.2,217 272.2,215 272.2,214.9 272.1,214.9 271.5,217.3 271.3,217.4 270.7,215.7 270.7,215.5 270.6,215.7 270.6,217.8 
		270.3,217.9 270.3,214.9 270.8,214.6 270.8,214.5 270.2,214.9 270.2,218.1 270.7,218 270.7,216.2 271.2,217.7 271.2,217.8 
		271.6,217.6 272.1,215.7 272.1,217.3 272.6,217 272.6,213.8 272,214.1 	"/>
	<path class="st0" d="M274,213.4c-0.2,0.1-0.3,0.2-0.4,0.4c-0.1,0.2-0.1,0.4-0.1,0.7v0.6c0,0.2,0,0.4,0.1,0.6c0,0,0.1,0.1,0.2,0.1
		c0,0,0.1,0,0.2,0c0.2-0.1,0.3-0.2,0.4-0.4c0.1-0.2,0.1-0.4,0.1-0.7v-0.6c0-0.2,0-0.4-0.1-0.6C274.3,213.4,274.2,213.3,274,213.4z
		 M274.3,214.5c0,0.2,0,0.4-0.1,0.7c-0.1,0.1-0.2,0.2-0.3,0.3c-0.1,0.1-0.2,0.1-0.2,0c-0.1,0-0.1-0.2-0.1-0.4v-0.6
		c0-0.2,0-0.4,0.1-0.7c0.1-0.1,0.2-0.2,0.3-0.3h0.1c0.2,0,0.2,0.2,0.2,0.4V214.5z"/>
	<path class="st0" d="M273.8,212.9c-0.2,0.2-0.4,0.4-0.7,0.8c-0.1,0.3-0.2,0.7-0.2,1.1v0.6c0,0.4,0.1,0.7,0.3,0.9
		c0.1,0.1,0.2,0.1,0.3,0.1s0.2,0,0.4-0.1c0.2-0.2,0.4-0.4,0.7-0.8c0.1-0.3,0.2-0.7,0.2-1.1v-0.6c0-0.4-0.1-0.7-0.3-0.9
		S274.1,212.7,273.8,212.9z M274.7,214.4c0,0.3,0,0.7-0.2,1s-0.4,0.6-0.7,0.7c-0.2,0.1-0.4,0.1-0.6,0c-0.1-0.1-0.2-0.4-0.2-0.8v-0.6
		c0-0.3,0-0.7,0.2-1c0.2-0.3,0.4-0.6,0.7-0.7c0.1-0.1,0.2-0.1,0.3-0.1c0.1,0,0.2,0,0.2,0.1c0.1,0.1,0.2,0.4,0.2,0.8v0.6H274.7z"/>
	<path class="st0" d="M275.9,212.3l-0.3,0.2v2.4l0.3-0.2c0.2-0.1,0.3-0.2,0.4-0.4c-0.1,0.1-0.2,0.2-0.3,0.3l-0.2,0.1v-2l0.2-0.1
		c0.2-0.1,0.3-0.1,0.3,0c0.1,0.1,0.1,0.2,0.1,0.4c0-0.2,0-0.4-0.1-0.6C276.2,212.3,276.1,212.2,275.9,212.3z"/>
	<path class="st0" d="M276.5,213.5c0,0.2,0,0.4-0.1,0.7C276.5,214,276.5,213.8,276.5,213.5L276.5,213.5z"/>
	<path class="st0" d="M276.7,212c-0.2-0.1-0.4-0.1-0.8,0l-0.8,0.4v3.3l1-0.3c0.2-0.2,0.4-0.4,0.7-0.8c0.1-0.3,0.2-0.7,0.2-1.1v-0.6
		C277,212.4,276.9,212.1,276.7,212z M276.9,213.4c0,0.3,0,0.7-0.2,1c-0.2,0.3-0.4,0.6-0.7,0.7l-0.7,0.3v-3l0.8-0.3
		c0.2-0.1,0.4-0.1,0.6,0c0.1,0.1,0.2,0.4,0.2,0.8C276.9,212.9,276.9,213.4,276.9,213.4z"/>
	<polygon class="st0" points="277.2,214.5 278.8,214 278.8,213.3 278.7,213.3 278.7,213.6 277.3,214.3 277.3,211.3 278.7,210.7 
		278.7,211.1 277.7,211.5 277.7,212.4 278.6,212 278.6,212.3 277.7,212.7 277.7,213.8 277.8,213.6 277.8,213 278.7,212.5 
		278.7,211.8 277.8,212.3 277.8,211.6 278.8,211.2 278.8,210.5 277.2,211.3 	"/>
	<polygon class="st0" points="278.7,213.3 278.7,213.3 277.8,213.6 277.8,213.8 	"/>
	<path class="st0" d="M295.4,202L295.4,202h0.1c0.1,0,0.1-0.2,0.1-0.3l0,0C295.6,201.8,295.6,201.9,295.4,202z"/>
	<path class="st0" d="M295.6,201.6c0-0.1,0-0.1,0-0.2l-0.2-0.7h-0.1L295.6,201.6z"/>
	<path class="st0" d="M293.5,202.4h0.1l0.1,0.1c0,0.3,0.1,0.7,0.4,0.9c0.2,0.2,0.6,0.2,0.9,0.1c0.7-0.2,1.2-0.9,1.2-1.7
		c0-0.6-0.3-1-0.9-1.1l0,0c0.4,0.1,0.7,0.4,0.7,0.9c0,0.7-0.4,1.3-1.1,1.6c-0.2,0.1-0.6,0-0.8-0.1c-0.2-0.2-0.3-0.4-0.3-0.8
		c0-0.1,0-0.2-0.1-0.2c-0.1,0-0.1-0.1-0.2,0c-0.2,0-0.3,0.2-0.3,0.4c0,0.3,0.1,0.7,0.2,0.9c-0.1-0.2-0.1-0.4-0.1-0.7
		C293.3,202.7,293.4,202.4,293.5,202.4z"/>
	<path class="st0" d="M294.9,204c-0.1,0.1-0.3,0.1-0.4,0.1c-0.2,0-0.6,0-0.8-0.2c-0.1-0.1-0.1-0.2-0.2-0.2c0.1,0.1,0.2,0.3,0.3,0.3
		c0.3,0.2,0.7,0.3,1.1,0.2c0.7-0.2,1.1-0.8,1.5-1.5C296.2,203.3,295.6,203.9,294.9,204z"/>
	<path class="st0" d="M293.5,203.6c0,0,0-0.1-0.1-0.1C293.5,203.6,293.5,203.6,293.5,203.6z"/>
	<path class="st0" d="M118.2,172.2c-0.6,0-1,0.6-1,1.2c0,0.7,0.4,1.2,1,1.2s1-0.6,1-1.2C119.2,172.7,118.8,172.2,118.2,172.2z
		 M118,173.4c0-0.3,0.1-0.6,0.2-0.6c0.1,0,0.2,0.2,0.2,0.6c0,0.3-0.1,0.6-0.2,0.6S118,173.7,118,173.4z"/>
	<path class="st0" d="M139.8,185.4c-0.6,0-1,0.6-1,1.2c0,0.7,0.4,1.2,1,1.2s1-0.6,1-1.2S140.4,185.4,139.8,185.4z M139.8,187.2
		c-0.1,0-0.2-0.2-0.2-0.6c0-0.3,0.1-0.6,0.2-0.6c0,0,0.2,0.2,0.2,0.6C140.1,187,139.9,187.2,139.8,187.2z"/>
	<path class="st0" d="M161,199.4c-0.6,0-1,0.6-1,1.2c0,0.7,0.4,1.2,1,1.2s1-0.6,1-1.2S161.6,199.4,161,199.4z M160.8,200.6
		c0-0.3,0.1-0.6,0.2-0.6c0,0,0.2,0.2,0.2,0.6c0,0.3-0.1,0.6-0.2,0.6C160.9,201.2,160.8,201,160.8,200.6z"/>
	<path class="st0" d="M336.5,140.8L336.5,140.8c-1.1-5.9-7.2-9-7.5-9.2l-0.7-0.3c-3.3-1.7-8.3-4.3-14.6-7.4l-0.3-0.1
		c-11.5-5.8-27.2-13.9-43-21.9c0.1-9.3-2-11.8-7.1-13.9c-0.8-0.3-1.6-0.8-2.4-1.1c-6.3-3.4-12,0.4-12.9,1.1
		c-0.2,0.1-1.1,0.6-2.4,1.2l-8.1-4.1c-16.7-8.6-26.9-13.8-30-15.6c-13-7.3-29.5-0.9-31.3-0.1l-0.8,0.2
		c-12.4,4.9-44.3,17.6-67.1,26.6c-1.1-14.5-5.8-71.4-6.6-79.1c-0.9-9.2-5.5-11.8-8.4-13.2c-0.2-0.2-0.6-0.3-0.7-0.4
		c-0.1,0-0.1-0.1-0.3-0.2c-2.9-1.6-5.5-0.7-9.6,0.8l-0.8,0.2c-2.1,0.8-4.7,1.7-8.1,2.6c-11.3,3-10,15.8-9.6,18.3l9.2,88.7
		c-4,5.4-4.3,10.6-4.3,10.6c0,0.3,0.1,1.1,0.3,4.7c0.4,5.9,1.1,15.9,1.2,21c0.2,6.7,2.5,9.8,3.8,11l0,0l0.4,0.3
		c0.1,0.1,0.2,0.1,0.3,0.2l137.7,90.1c0.1,0.1,3.4,2.5,7.5,2.5c1.5,0,3-0.3,4.3-0.9c1.1-0.4,6.4-3.3,9.2-4.7
		c1.6,1.5,3.6,2.8,5.5,3.8c2.5,1.3,4.6,1.8,6.3,1.5h0.3l0.3-0.1c2.1-0.8,2.9-1.2,4.7-2.4c1.5-1,3.8-2.5,8.4-5.2
		c10.4-6.1,10.3-12.1,10-13.9v-2.6c22-11.9,45.5-24.8,53.3-29l1.5-0.8c1.3-0.8,2.1-1.2,2.2-1.2s5.8-3.7,6.3-9.8
		c0.2-2.8-0.8-5.6-3.1-8.1c1-10.5,2-24.2,2.4-29l0.6-0.2l0.4-0.4l0.1-0.1C336,147.3,337.1,143.9,336.5,140.8z M334.4,142
		c0-0.1,0-0.2,0-0.3C334.4,141.9,334.4,141.9,334.4,142z M328,181.8l0.1,0.1c-0.1-0.2-0.3-0.3-0.4-0.6l0,0L328,181.8z M258,243.1
		c-4.8,2.8-7.2,4.4-8.5,5.3c-1.6,1-2.1,1.3-3.8,1.9h-0.1c0-3.5,0-132.1-0.1-138.6c0-6.2,3-7.6,3.1-7.7l17.8-8.7
		c0.4,1.5,0.7,3.5,0.7,6.6l-0.8,130.6v0.2C266.3,232.7,267.6,237.6,258,243.1z M74.8,10.1c3.8-1,6.6-2,8.9-2.8
		c3.6-1.3,5.4-2,6.9-1.1c0.3,0.2,0.7,0.3,1,0.6c0.6,0.3,1.2,0.7,1.8,1c-3.5,1.2-14.6,5.3-17.3,6.5c-3.6,1.7-2.8,7.7-2.8,8l8.4,87
		h0.2c-2,1.1-3.7,2.6-5,3.9l-9.2-88.5C67.6,24,65.5,12.6,74.8,10.1z M71.6,10.2L71.6,10.2L71.6,10.2z M72.9,9.4
		C73,9.4,73,9.4,72.9,9.4C73,9.4,73,9.4,72.9,9.4z M325.8,186.3c-0.4,0.8-1.6,2-2,2.2l-2.2,1.2l0.1-2.2l1.7-1c0,0,1.6-0.7,2.6-2.1
		C325.9,185.1,325.9,185.7,325.8,186.3z M319.4,188.9l1.6-0.9l-0.1,1.7L319.4,188.9z M320.4,190.4l-4.8,2.7
		c-0.2,0.1-0.3,0.1-0.4,0.1c-0.1-0.1-0.2-0.3-0.2-0.6c0-0.7,0.4-1.5,1-1.8l2.6-1.5L320.4,190.4z M324.6,182.1
		C324.6,182.3,324.5,182.3,324.6,182.1c-0.2,0.1-0.3,0.2-0.4,0.2c-0.1,0.1-0.2,0.1-0.4,0.2l-1.8,1.1l0.1-2.2l2-1.2
		c0,0,1.1-0.6,2.1-1.3c0,0.8-0.1,1.5-0.1,2.1c-0.3,0.2-0.7,0.6-1.1,0.9C324.9,182,324.8,182.1,324.6,182.1z M319.4,185.3
		L319.4,185.3c-0.1,0-0.1,0-0.2,0c-0.1-0.1-0.2-0.3-0.2-0.6c0-0.3,0.1-0.8,0.3-1.2l1.6,0.9L319.4,185.3
		C319.5,185.3,319.4,185.3,319.4,185.3z M328,159.5v0.2v0.1c-0.1,1.2-2.4,2.7-3.1,3l-1.6,0.8l0.1-1.7c1.2-0.7,3.7-2.2,4.8-4.1
		C328.1,158.4,328.1,158.9,328,159.5L328,159.5z M321.1,178l-3.6,1.9c-0.1,0-0.2,0.1-0.3,0c-0.1-0.1-0.2-0.3-0.2-0.6
		c0-0.6,0.4-1.5,0.9-1.7l1.3-0.7L321.1,178z M319.9,176.5l1.8-0.9l-0.1,1.9L319.9,176.5z M322.5,175.2l2.6-1.3c0.1,0,0.9-0.3,1.6-1
		c0,0.4-0.1,0.9-0.1,1.5c-0.4,0.9-1.3,1.6-1.8,1.8l-2.5,1.3L322.5,175.2z M307.4,178.4L307.4,178.4l6.5-3.5c0.1,0,0.2-0.1,0.2-0.2
		h0.1l-0.1-0.1v-0.1l-0.1-0.1c-0.1,0-0.1-0.1-0.2-0.1c-0.2,0-0.2,0-0.2-0.3v-0.3l6.5-3.4l1.5,0.8L307.4,178.4z M279.6,192.3
		c0.1-0.2,0.1-0.4,0.1-0.7v-0.2c0.7-0.4,3.7-2.1,4.9-2.7c0,0.4,0.1,0.7,0.2,0.8L279.6,192.3z M278.9,191.6c0,0.4-0.2,0.7-0.3,1
		l-0.9-0.4L278.9,191.6L278.9,191.6z M313,174.9l-5.3,2.8c0.1-0.2,0.1-0.4,0.1-0.7v-0.2c0.8-0.4,3.8-2,4.9-2.7
		C312.8,174.5,312.9,174.7,313,174.9z M307,177c0,0.4-0.2,0.7-0.4,1.1l-0.9-0.4L307,177L307,177z M322.3,169l-0.1,1.5l-1.3-0.7
		L322.3,169z M306.7,178.8l-0.2,0.1L306.7,178.8L306.7,178.8z M323,168.7l1.1-0.6c0.1-0.1,1.9-0.8,3.1-2.2c-0.6,2.7-3.8,4.1-4,4.3
		l-0.3,0.2L323,168.7z M327.6,162.9v0.3c-0.2,2.8-3.7,4.1-3.8,4.1l-3.9,2h-0.1l-0.1,0.1l-52,26.9v-3l55.3-28.5l0.2,0.1v-0.3l2-1
		c0.1-0.1,1.6-0.9,2.7-2c0,0.4-0.1,0.8-0.1,1.2L327.6,162.9z M323.1,156.9l-1.5-0.8l1.6-0.8L323.1,156.9z M307,163.7
		c0,0.3,0.1,0.4,0.2,0.6L302,167c0.1-0.2,0.1-0.4,0.1-0.7v-0.2L307,163.7z M282.7,176c0,0.4,0.1,0.7,0.2,0.8l-5.3,2.8
		c0.1-0.2,0.1-0.4,0.1-0.7v-0.2c0.7-0.3,3-1.7,4.4-2.4L282.7,176z M277.1,178.9c0,0.4-0.2,0.7-0.4,1l-0.9-0.4L277.1,178.9
		L277.1,178.9z M277.2,180.5l6.6-3.6c0.1,0,0.2-0.1,0.2-0.2h0.1l-0.1-0.1v-0.1l-0.1-0.1c-0.1,0-0.1-0.1-0.2-0.1
		c-0.2,0-0.2,0-0.2-0.3v-0.2l17.8-9.1c0,0.3-0.2,0.6-0.4,1l-0.8,1.3l8.6-4.7l-0.4-0.3c-0.1,0-0.1-0.1-0.2-0.1c-0.2,0-0.2,0-0.2-0.3
		v-0.1l13-6.6l1.7,0.9C312.5,162.5,294.9,171.4,277.2,180.5L277.2,180.5z M287,180.7l1-0.6c0,0.3-0.2,0.6-0.3,0.9L287,180.7z
		 M293.9,177.9l-5.3,2.8c0.1-0.2,0.1-0.4,0.1-0.7v-0.2c0.1,0,0.2-0.1,0.4-0.2l4.5-2.2C293.8,177.5,293.9,177.8,293.9,177.9z
		 M321.5,163l1.1-0.6l0,0l-0.1,1.3L321.5,163z M294.7,178c0.1,0,0.2-0.1,0.2-0.2h0.1l-0.1-0.1v-0.1l-0.1-0.1c-0.1,0-0.1-0.1-0.2-0.1
		c-0.2,0-0.2,0-0.2-0.3V177l26.3-13.4l1.5,0.9l-34,17.5l0.1-0.1c0,0,0-0.1,0-0.2L294.7,178z M327.9,155.9v0.3c-0.2,2.1-3.6,4.3-5,5
		h-0.1v0.1c-0.2,0.1-0.4,0.2-0.4,0.2l-1.6,0.8h-0.1l-0.1,0.1L294,176.1h-0.1c-0.1,0-0.1,0-3,1.6c-0.1,0.1-0.3,0.2-0.4,0.2l-4.7,2.5
		c0,0,0,0-0.1,0l-0.1,0.1l-17.9,9.2v-3.4c24.2-12.3,50.1-25.6,55.4-28.2l0.2-0.1l0.3,0.2v-0.3l0.4-0.2c0.7-0.4,3-1.8,4.4-3.1
		c0,0.4-0.1,1-0.1,1.6L327.9,155.9z M276.8,180.8c-0.1,0-0.2,0.1-0.2,0.1L276.8,180.8L276.8,180.8z M286.1,181.1l1.3,0.6l-0.2,0.3
		l0.3-0.3l0.2,0.1h0.1h0.2l-20.3,10.4v-1.8L286.1,181.1z M279.1,193.1l6.5-3.5c0.1,0,0.2-0.1,0.2-0.2l0.1-0.1l-0.1-0.1v-0.1
		l-0.1-0.1c-0.1,0-0.1-0.1-0.2-0.1c-0.2,0-0.2,0-0.2-0.3v-0.3l19.6-10.2l1.6,0.7l-0.1,0.3l-27.2,14.3v-0.3
		C279.1,193.2,279.1,193.1,279.1,193.1z M319.9,182.9L319.9,182.9l1.5-0.9l-0.1,1.7L319.9,182.9z M328.6,152.9
		c-0.2,0.9-2.5,2.6-4.8,3.9l0.1-1.9c2.4-1,3.8-2.1,4.7-3C328.6,152.2,328.6,152.6,328.6,152.9z M267.8,182l60.9-31.4
		c-0.3,0.7-1.6,2.1-5,3.5h-0.3v0.2l-2.6,1.3l-0.1-0.1l-0.1,0.2l-12.9,6.6l0,0c-0.1,0-0.1,0-3,1.6c0,0,0,0-0.1,0l-36.5,18.7
		L267.8,182z M275.1,179.9l1.5,0.7l-0.1,0.3c-2.9,1.5-5.7,2.9-8.6,4.4v-1.7L275.1,179.9z M267.7,197.3l9.1-4.7l1.6,0.7l-0.2,0.4
		l0.4-0.3l0.1,0.1h0.1l0,0l-11.2,5.8L267.7,197.3z M267.8,180.8V175c24-12.1,40.7-20.4,49.9-24.5c8.4-3.8,12.7-7.6,12.7-11.2
		c0-2.7-2.4-4.6-3.7-5.4c0.1,0,0.1,0.1,0.2,0.1l0.7,0.3c0,0,4.9,2.6,5.7,6.7c0.4,2.4-0.6,4.8-2.9,7.4L267.8,180.8z M268.3,104.3
		c23.8,12.1,47.1,24,57.4,29.1l-0.3,0.7l0.2,0.1c0.1,0.1,4,2,4,5.2c0,3.4-4.1,6.8-12.2,10.5c-11.3,5-33.1,16-49.5,24.3L268.3,104.3z
		 M267.7,200.3l54.7-28.8l0.3,0.2v-0.3l0.8-0.4c0,0,2.4-1,3.7-3c-0.1,0.7-0.2,1.9-0.3,3.6c-0.6,1-1.9,1.7-2,1.7l-2.8,1.5h-0.2v0.1
		l-2.6,1.3h-0.1v0.1l-1.6,0.8c-0.8,0.4-1.3,1.5-1.3,2.5c0,0.6,0.2,1,0.6,1.2c0.2,0.1,0.3,0.1,0.6,0.1s0.4,0,0.6-0.2l4-2.1l0.3,0.2
		v-0.4l2.9-1.5c0.3-0.1,0.9-0.6,1.3-1c0,0.6-0.1,1.2-0.1,1.9c-0.6,0.7-1.8,1.6-2.7,1.9l-2,1.2h-0.2v0.1l-2,1.2
		c-0.1,0.1-0.3,0.2-0.4,0.3l0,0l0,0c-0.6,0.6-0.9,1.3-0.9,2.1c0,0.6,0.2,1,0.6,1.2c0.2,0.1,0.3,0.1,0.6,0.1s0.4,0,0.7,0l1.8-1.1
		l0.2,0.1v-0.2l2.2-1.3c0.2-0.1,1.1-0.6,1.9-1.1c0,0.1,0,0.1,0,0.2H326l-0.1,0.3c-0.7,2.1-2.7,3-2.8,3l-2,1.1l0,0l0,0l-2.6,1.5l0,0
		l0,0l-2.9,1.7c-0.8,0.4-1.5,1.6-1.5,2.6c0,0.6,0.2,1,0.6,1.2c0.2,0.1,0.3,0.1,0.6,0.1c0.2,0,0.4,0,0.8-0.1l5.4-3l0.1,0.1v-0.2
		l2.7-1.5c0.2-0.2,0.8-0.7,1.3-1.2c-0.3,1.3-0.8,1.9-1,1.9c-0.6,0.3-5,2.8-12,6.6l-44.8,24.8L267.7,200.3z M332.4,137.2
		C332.5,137.2,332.5,137.2,332.4,137.2C332.5,137.2,332.5,137.2,332.4,137.2z M332.8,137.8c0,0.1,0.1,0.1,0.1,0.2
		C332.9,137.9,332.8,137.8,332.8,137.8z M333.2,138.3c0.1,0.1,0.1,0.2,0.2,0.3C333.4,138.5,333.3,138.4,333.2,138.3z M333.6,139
		c0.1,0.1,0.1,0.3,0.2,0.4C333.7,139.2,333.6,139.1,333.6,139z M333.9,139.8c0,0.1,0.1,0.3,0.1,0.4
		C334.1,140.1,333.9,139.9,333.9,139.8z M244.3,250.3c-0.8-0.1-1.8-0.6-2.9-1.1c0-8-0.8-138.1-0.9-142.8c-0.1-4.5,4.3-5.9,4.5-6.1
		l18.5-8.6c1,0.6,1.9,1.1,2.5,2.2l-17.9,8.9c-0.2,0.1-3.9,1.8-3.8,8.9C244.3,118.1,244.3,247.3,244.3,250.3z M215.1,249.1
		l-22.9-14.9L77.4,158.8c0,0-1.6-0.9-2.5-4l139.8,90.3c0.2,0.2,1.2,0.9,2.7,0.9c0.7,0,1.2-0.1,1.8-0.4c0.2,1.1,0.8,2.6,1.7,3.1
		c0.3,0.2,0.7,0.3,1,0.3s0.6-0.1,0.9-0.2l0.2-0.1l-0.2-1l-0.2,0.1c-0.3,0.1-0.7,0.1-0.9,0c-0.3-0.2-0.6-0.7-0.8-1.1
		c0.2,0,0.3,0,0.6,0c1.1,0,2.8-0.2,4.8-1.3c0.6-0.3,3-1.6,6.8-3.8c0,1.3,0.1,2.2,0.1,2.4c0.1,0.3,0.3,0.8,0.7,1.2
		c-6.1,3.3-9.5,5-10.2,5.3c-1.6,0.7-3.1,0.7-4.5,0.4C216.9,250.3,215.1,249.1,215.1,249.1z M96.2,10.3l-16,5.6c0,0-4,1.3-3.7,5.8
		c0.3,4.1,8.3,85.2,8.4,86l0.3-0.1c-0.8,0.3-1.5,0.7-2.1,1l-8.4-86.4c0-0.1-0.7-5.5,2.1-6.8c2.9-1.3,15.7-6.1,17.8-6.7
		C95.2,9.1,95.7,9.7,96.2,10.3z M231.7,107.1c0.1,8.3,0.4,55.4,0.8,92l-5.4,2.8c-0.1,0-6.8,4.5-7.3,14.5l-0.6,19.7h-0.1l0.1,0.1
		l-0.2,6.6l-0.1-0.1l-0.2,0.2c-0.3,0.4-0.8,0.7-1.3,0.7c-0.7,0-1.2-0.3-1.3-0.4L74.4,151.6c-0.1-0.6-0.1-1.1-0.1-1.7
		c-0.2-6.4-1.1-20.2-1.5-24.3l142.2,89c0.3,0.2,1.2,0.9,2.4,0.9c0.2,0,0.4,0,0.6,0h0.1c0.4-0.1,0.7-0.3,0.9-1l0.1-0.2l-0.2-0.1
		c-0.7-0.4-2-1.1-2.5-1.5L72.8,123.3c0.6-2.9,3-10.8,12.8-14.6c12.2-4.8,91-36.1,91.8-36.3c0.1,0,7.3-3,15.7-3c4.9,0,9.2,1,12.8,3
		c3.8,2.1,16.8,8.9,38.4,19.9c-2,0.9-4.4,2-6.7,2.9C231.3,97.7,231.7,106.7,231.7,107.1z M220.7,230.5l9.2-4.9l1.6,0.2l-10.9,5.8
		L220.7,230.5z M229.5,224.3v0.7l-8.7,4.5v-0.4L229.5,224.3z M232.6,225.2l-2.5-0.3V224l2.7-1.5c0,0.9,0,1.7,0,2.5L232.6,225.2z
		 M229.5,217.6l-8.5,4.5v-0.8l8.5-4.4V217.6z M221,222.9l9.1-4.7l0.1-0.1l1.5,0.2l-10.6,5.6v-1H221z M220.5,236.8v-0.6l8.6-4.7v0.3
		L220.5,236.8z M220.5,237.6l9.4-5.3l1.3,0.2l-10.8,5.8v-0.7H220.5z M220.6,244.1l-0.2-0.2v-0.1v-0.2l9.4-5.3l1.5,0.2L220.6,244.1z
		 M220.4,242.7v-0.3l8.9-4.7v0.1L220.4,242.7z M74.7,153.6v-1l141,91.2c0.2,0.1,0.9,0.6,1.8,0.6c0.6,0,1.1-0.1,1.6-0.6
		c0,0.1,0,0.4,0.1,1c-0.6,0.3-1.1,0.4-1.7,0.4c-1,0-1.8-0.4-2.4-0.8L74.7,153.6C74.8,153.7,74.8,153.6,74.7,153.6z M225.8,244.3
		c-2.5,1.3-4.5,1.2-5.2,1c0-0.1,0-0.1,0-0.2l12.6-6.7c0,0.7,0,1.2,0,1.8C229,242.4,226.4,244,225.8,244.3z M220.4,241.3v-1.9
		l12.6-6.7c0,0.7,0,1.2,0,1.9L220.4,241.3z M220.6,235.3l0.1-2.8l12.2-6.5c0,0.9,0,1.8,0,2.7L220.6,235.3z M232.9,221.6l-12.1,6.5
		l0.1-3.1l11.9-6.3C232.9,219.7,232.9,220.6,232.9,221.6z M232.7,217.8l-2.6-0.3v-0.9l2.6-1.3C232.7,216.1,232.9,216.9,232.7,217.8
		L232.7,217.8z M225.5,205.1l4.1-2v0.4l-4.9,2.7C224.9,205.8,225.1,205.5,225.5,205.1z M232.1,203.8l-1.8-0.2v-0.7l2.4-1.1
		c0,0.6,0,1.2,0,1.8C232.4,203.6,232.3,203.7,232.1,203.8z M223.8,207.5l6.2-3.3l0.9,0.1c-4.1,2.1-6.4,3.4-7.6,4
		C223.4,208,223.6,207.7,223.8,207.5z M232.6,200.6l-5.5,2.7c0.4-0.3,0.7-0.6,0.7-0.6l4.7-2.5C232.6,200.4,232.6,200.5,232.6,200.6z
		 M221.1,216.4c0-0.2,0-0.4,0-0.7l8.6-4.6c0,0,0,0,0.1,0l1.1,0.2L221.1,216.4L221.1,216.4z M229.5,210.5l-8.3,4.4
		c0-0.2,0-0.3,0.1-0.6l8.2-4.1C229.5,210.2,229.5,210.5,229.5,210.5z M232.7,207.6l-2.8,1.5l0,0c-0.1,0-0.2,0.1-0.3,0.2l-8.1,4.1
		c0.2-1.5,0.7-2.7,1.1-3.8c0.9-0.4,3.4-1.8,10-5.3C232.6,205.5,232.6,206.6,232.7,207.6z M233.1,237.5l-0.8,0.4l-2.4-0.3v-0.3
		l3.3-1.7C233.1,236.2,233.1,236.8,233.1,237.5z M233,231.7l-0.6,0.3l-2.1-0.3l0,0l-0.3-0.1v-0.3l3.1-1.7
		C233,230.2,233,231,233,231.7z M232.7,214.3l-11.8,6.1l0.1-2.9l11.7-5.9C232.7,212.4,232.7,213.4,232.7,214.3z M232.1,210.8
		l-1.9-0.3v-0.7l2.5-1.2c0,0.7,0,1.2,0,1.9L232.1,210.8z M72.8,124.5l0.2-0.6l143.1,89.2c0.3,0.2,1.6,0.9,2.1,1.2
		c-0.1,0.1-0.1,0.1-0.2,0.1c-0.1,0-0.1,0-0.2,0c-0.1,0-0.2,0-0.3,0c-0.8,0-1.7-0.7-1.9-0.8L72.8,124.5
		C72.8,124.6,72.8,124.6,72.8,124.5z M86,107.3c-0.4-4.3-8.1-81.7-8.4-85.6c-0.2-3.5,2.8-4.6,2.9-4.6l16.3-5.6
		c0.8,1.5,1.3,3.3,1.6,5.8c0.8,8.5,6.6,80.9,6.8,82.5C96.6,103.1,89.5,105.9,86,107.3z M235.3,244.6c-0.4-0.4-0.8-0.9-0.8-1.1
		c-0.2-0.9-0.3-14-0.6-32.5l0.1-0.1c-0.1-0.1-0.1-0.1-0.1-0.2l0,0l0,0l0,0c-0.3-30.4-0.7-75-0.9-103.6c0,0-0.4-8.4,5-10.6
		c5.8-2.5,11.8-5.5,11.9-5.5l0.1-0.1c0.1,0,2.5-1.9,5.6-1.9c1.2,0,2.5,0.3,3.7,0.9c1,0.6,1.9,0.9,2.7,1.2c0.1,0,0.1,0,0.2,0.1
		l-17.6,8.1c0,0.1-5.4,1.9-5.3,7.3c0.1,4.9,0.9,134.6,0.9,142.1c-1.9-1.1-3.6-2.6-4.7-3.7l0,0L235.3,244.6z M249.3,89.8L249.3,89.8
		L249.3,89.8C249.4,89.8,249.3,89.8,249.3,89.8z M106.4,99.2L106.4,99.2L106.4,99.2L106.4,99.2z M93.9,6.5c0.3,0.2,0.8,0.4,1.1,0.8
		C94.7,7,94.3,6.7,93.9,6.5z M72,122.1V122C72,122,72,122,72,122.1z M239.6,249.5c-0.1-0.1-0.2-0.1-0.3-0.2
		C239.4,249.4,239.5,249.4,239.6,249.5z M238.1,248.5c-0.1-0.1-0.1-0.1-0.2-0.2C237.9,248.4,238,248.5,238.1,248.5z M236.7,247.5
		c-0.1,0-0.1-0.1-0.2-0.1C236.6,247.4,236.6,247.4,236.7,247.5z M243.7,251.4c-0.1,0-0.2,0-0.3-0.1
		C243.5,251.4,243.6,251.4,243.7,251.4z M242.6,251.1c-0.1,0-0.2-0.1-0.4-0.1C242.3,251,242.5,251,242.6,251.1z M305.6,201.6
		c11.2-6.2,19.1-10.4,19.4-10.6c0.2-0.1,1.8-1.3,2-6.8c0-0.4,0.1-1,0.1-1.5c1.8,1.8,2.6,3.7,2.5,5.7c-0.1,1.8-1,3.5-2,4.7
		c-0.1,0.1-0.1,0.2-0.2,0.3l0,0c-1.1,1.2-2.1,2-2.2,2.1c-0.3,0.1-30.1,16.5-57.6,31.4v-4.4L305.6,201.6z M328.7,182.5
		c0.1,0.1,0.1,0.1,0.2,0.2C328.8,182.7,328.7,182.6,328.7,182.5z M329.2,183.4c0,0.1,0.1,0.1,0.1,0.2
		C329.4,183.5,329.4,183.5,329.2,183.4z M329.8,184.3c0,0,0,0.1,0.1,0.1C329.9,184.4,329.9,184.3,329.8,184.3z M334.3,143.9
		c0,0.1,0,0.1,0,0.2C334.3,144,334.3,143.9,334.3,143.9z M334.4,142.8c0,0.1,0,0.1,0,0.2C334.4,142.9,334.4,142.9,334.4,142.8z
		 M92.3,5.6L92.3,5.6c-0.2-0.1-0.3-0.2-0.4-0.3c0.1,0,0.2,0.1,0.3,0.2L92.3,5.6z M91.3,5.1L91.3,5.1c-0.9-0.6-2-0.6-3.1-0.4
		C89.4,4.4,90.3,4.5,91.3,5.1z M87.3,4.8c0.1,0,0.3-0.1,0.4-0.1C87.5,4.7,87.4,4.7,87.3,4.8z M70.3,11C70.3,11.1,70.3,11.1,70.3,11
		C70.3,11.1,70.3,11.1,70.3,11z M69.3,12.1L69.3,12.1L69.3,12.1z M66.6,24.6c0-0.1,0-0.2,0-0.3C66.6,24.6,66.6,24.7,66.6,24.6
		l9.3,89.7c-0.1,0.1-0.2,0.3-0.3,0.4l0.1-0.1l0.2-0.3L66.6,24.6z M66.6,24.1c0,0.1,0,0.1,0,0.2C66.6,24.2,66.6,24.1,66.6,24.1z
		 M72.2,121.5c0-0.2,0.1-0.3,0.2-0.6C72.4,121.1,72.2,121.3,72.2,121.5z M72.5,120.7c0-0.1,0.1-0.3,0.1-0.4
		C72.5,120.4,72.5,120.6,72.5,120.7z M72.6,120.2c0.1-0.1,0.1-0.3,0.2-0.6C72.8,119.8,72.7,119.9,72.6,120.2z M72.8,119.6
		c0.1-0.3,0.3-0.7,0.4-1.1C73.1,118.8,73,119.3,72.8,119.6z M73.4,118.4c0.1-0.1,0.1-0.3,0.2-0.4C73.6,118,73.5,118.1,73.4,118.4z
		 M73.8,117.6c0.1-0.1,0.1-0.2,0.2-0.4C73.9,117.3,73.8,117.5,73.8,117.6z M74.3,116.7c0.1-0.1,0.1-0.2,0.2-0.3
		C74.4,116.5,74.4,116.6,74.3,116.7z M74.9,115.6c0-0.1,0.1-0.1,0.1-0.2C75,115.5,75,115.6,74.9,115.6z M73.1,150
		c-0.1-5.2-0.9-15.1-1.2-21.1c-0.2-2.6-0.3-4.3-0.3-4.5l0,0C71.6,125.1,72.9,142.6,73.1,150c0.2,5.8,2,8.4,3,9.3
		C75.3,158.4,73.4,155.9,73.1,150z M77.7,160.3L77.7,160.3l136.8,89.6c0,0,0.1,0,0.1,0.1l-0.1-0.1L77.7,160.3z M216.7,251
		c1.1,0.4,2.6,0.9,4.3,0.9c0.4,0,1,0,1.6-0.1c-0.6,0.1-1,0.1-1.6,0.1C219.3,251.9,217.8,251.4,216.7,251z M216.3,250.7
		c0.1,0,0.2,0.1,0.3,0.1C216.4,250.8,216.4,250.7,216.3,250.7z M234.8,245.7l-0.7,0.3c-5.3,2.8-9,4.7-9.8,5c-0.4,0.2-1,0.3-1.6,0.4
		c0.6-0.1,1.1-0.2,1.7-0.4S228.5,249.1,234.8,245.7c0.2,0.2,0.4,0.4,0.7,0.7c0,0-0.1,0-0.1-0.1L234.8,245.7z M240.6,250.2
		c0.1,0,0.1,0.1,0.2,0.1c0.2,0.1,0.3,0.2,0.6,0.2c-0.2-0.1-0.3-0.1-0.6-0.2C240.8,250.3,240.7,250.2,240.6,250.2z M244.6,251.5
		c0.1,0,0.1,0,0.2,0C244.7,251.5,244.6,251.5,244.6,251.5z M245.6,251.5L245.6,251.5L245.6,251.5L245.6,251.5z M258.6,244.1
		c-4.7,2.8-7.1,4.3-8.5,5.3c-1.7,1.1-2.2,1.5-4.1,2.1l0,0l0,0c1.9-0.7,2.5-1,4.1-2.1C251.6,248.4,253.9,246.9,258.6,244.1
		c6.7-3.9,8.5-7.6,8.9-9.9C267.3,236.5,265.5,240.2,258.6,244.1z M267.6,233.6c0-0.1,0-0.2,0-0.2S267.6,233.5,267.6,233.6z
		 M267.6,234.1c0-0.1,0-0.3,0-0.4C267.6,233.9,267.6,234,267.6,234.1z M267.6,232.9C267.6,233,267.6,233,267.6,232.9
		C267.6,233,267.6,233,267.6,232.9z M323.5,197.7l-1.5,0.8c-7.8,4.3-31.8,17.4-53.9,29.4l-0.6,0.3l0,0
		c27.6-14.9,57.9-31.6,58.3-31.7l0,0C325.8,196.5,324.9,196.9,323.5,197.7z M328.3,194.1c1-1.2,2-2.8,2.4-4.7
		C330.4,191.2,329.4,192.9,328.3,194.1z M328,194.5c0.1-0.1,0.1-0.1,0.2-0.2C328.2,194.2,328.1,194.4,328,194.5z M330.8,188.9
		c0-0.1,0-0.2,0-0.3l0,0C330.8,188.6,330.8,188.8,330.8,188.9z M330.9,188c0-0.1,0-0.2,0-0.3C330.9,187.7,330.9,187.9,330.9,188z
		 M330.2,185.1C330.2,185.2,330.2,185.2,330.2,185.1C330.2,185.2,330.2,185.2,330.2,185.1z M330.6,186L330.6,186L330.6,186z
		 M330.8,186.9L330.8,186.9L330.8,186.9z M330,150.2v0.2C330,150.3,330,150.2,330,150.2l1.3-0.7l0,0L330,150.2z M331.6,149.4
		c0.1-0.2,0.3-0.4,0.4-0.6C331.8,149,331.7,149.2,331.6,149.4L331.6,149.4z M333.9,144.9c0,0.1,0,0.1,0,0.2
		C333.9,145,333.9,144.9,333.9,144.9z M333.6,145.9c0,0.1-0.1,0.1-0.1,0.2L333.6,145.9z M333.2,146.8c-0.1,0.1-0.1,0.2-0.2,0.3
		C333.1,147.1,333.1,147,333.2,146.8z M332.6,147.8c-0.1,0.1-0.2,0.3-0.3,0.4C332.4,148.2,332.5,148,332.6,147.8z"/>
</g>
</svg>
