<?xml version="1.0" encoding="utf-8"?>
<!-- Generator: Adobe Illustrator 24.0.0, SVG Export Plug-In . SVG Version: 6.00 Build 0)  -->
<svg version="1.1" id="Layer_1" xmlns="http://www.w3.org/2000/svg" xmlns:xlink="http://www.w3.org/1999/xlink" x="0px" y="0px"
	 viewBox="0 0 366 255" style="enable-background:new 0 0 366 255;" xml:space="preserve">
<style type="text/css">
	.st0{fill:none;stroke:#22F4BB;stroke-width:5;stroke-miterlimit:10;}
	.st1{fill:none;stroke:#22F4BB;stroke-width:2.5578;stroke-miterlimit:10;}
	.st2{fill:#22F4BB;}
</style>
<g>
	<path id="路径_3020" class="st0" d="M128.5,15.8c-1.4,0.3-2.5,1.2-3.1,2.5c-0.3,0.8-0.8,2.5-0.8,2.7c-0.1,0.5-0.1,1-0.1,1.4
		c-0.6,0.5-0.9,1.2-0.9,1.9c-0.3,1.5-5.9,24.6-7.9,36.5s-5.4,20.5-10.5,72.4c-5.1,51.9-5.9,83.7-5.8,89.5c0,0.3,1.2,1.3,2.6,1.6
		c-0.1,1.9,0.1,3.9,0.6,5.8c0.5,1.9,1.5,3.5,3,4.7c0.6,0.2,1.2,0.3,1.7,0.5c1.1,0.2,21.4,3.9,21.9,3.9c0.6,0.1,1.2-0.1,1.7-0.6
		c0.3-0.4,0.6-0.9,0.7-1.4l13.8,2c0,0,3.5,2.5,3.9,2.7s0.9,0.3,1.4,0.3c0.6,0.1,10.1,1.2,10.7,1.2c1.2,0,2.3,0,3.5-0.1
		c1.2-0.1,32-3.6,32.4-3.7c0.3,0,0.7-0.3,0.8-0.6c0.3-0.6,0.6-1.2,0.6-1.8c0,0,10.3-1.5,14.1-2.2c3.8-0.6,20.7-4.2,25.5-5.4
		c4.8-1.2,8.8-2.5,8.8-2.5c0.6,0.5,1.2,0.8,1.9,1.1c0.8,0.1,1.5,0,2.3-0.3c0.9-0.3,11.2-3.6,11.6-3.9c2.1-1.6,3.6-3.9,4.3-6.5
		c0.4-1.5,0.6-3,0.6-4.5c0,0,2.5-0.8,2.5-1.6c0-0.8-1.4-26.4-1.9-38.4c-0.5-11.9-3.6-48.3-5.8-68.8c-2.1-20.5-10-73.6-11.3-81.6
		c-0.8-5.4-1.2-5.4-1.6-6.2c0.1-0.6,0.1-1.2,0-1.9c0-1.5-0.6-3-1.7-4.1c-1.3-1.3-3-2.1-4.9-2.5c-1.2-0.1-19.6-0.7-26.8-0.7
		c-7.1,0-28.4,0.3-38.2,1.4S146,12,128.5,15.8z"/>
	<path id="路径_3021" class="st1" d="M125.6,22.9c0,0,1.6,1.4,8.1,3.3c6.5,1.9,42.8,12,81.9,11.8c13.8-5.2,33.8-21.4,33.8-21.4"/>
	<path id="路径_3022" class="st1" d="M123.9,29c3.4,2,6.9,3.5,10.7,4.5c6.5,1.9,42.8,12,81.9,11.8c13.8-5.2,34.3-22.3,34.3-22.3"
		/>
	<path id="路径_3023" class="st1" d="M100.7,224c0,0,47.1,8.9,60.3,10c1.9,0.2,9.3-0.3,12.3-0.5c3-0.2,73.8-8.2,96.6-22.2"/>
	<path id="路径_3024" class="st1" d="M173.7,211.6c-4.1,9.4-8.3,18.6-10.9,22.4"/>
	<path id="路径_3025" class="st1" d="M182.9,190.4c-0.1,0.6-0.2,1.2-0.6,1.8"/>
	<path id="路径_3026" class="st1" d="M217.3,44.9c0,0-2.3,33.1-5.5,50.8c-3.9,21.4-13.9,55.6-24.4,84"/>
	<path class="st2" d="M183.9,189.8c0.7,0,1.4-1.2,1.7-1.9l1.9-4.9c0.3-0.8,0.6-2.2-0.1-2.5l-0.6-0.3c-0.1,0-0.1-0.1-0.3-0.1
		c-0.7,0-1.4,1.1-1.7,1.8l-1.9,4.5c-0.3,0.8-0.7,2.5-0.1,2.9l0.9,0.5C183.7,189.8,183.8,189.8,183.9,189.8 M183.9,191.5
		c-0.3,0-0.6-0.1-0.9-0.1H183l-0.1-0.1l-0.9-0.5l-0.1-0.1l-0.1-0.1c-0.8-0.6-1.2-1.5-1-3c0.1-0.8,0.3-1.6,0.5-2.1l0,0l0,0l1.9-4.5
		c0.2-0.6,1.2-2.9,3.3-2.9c0.3,0,0.6,0.1,0.9,0.1h0.1h0.1l0.6,0.3l0,0l0,0c0.5,0.2,1.5,0.9,1.4,2.8c-0.1,0.8-0.3,1.6-0.4,2l0,0l0,0
		l-1.9,4.9l0,0l0,0C186.8,189.4,185.8,191.5,183.9,191.5z"/>
	<path class="st2" d="M174.5,211.1c0.8,0,1.9-1.9,2.3-2.7l5-11.1c0.3-0.8,1.6-3.6,0.8-4l-0.8-0.3c-0.1,0-0.1,0-0.1,0
		c-0.8,0-2.5,3.4-2.9,4.2l-4.5,9.8c-0.3,0.8-1.4,3.4-0.7,3.8l0.8,0.4C174.4,211.1,174.4,211.1,174.5,211.1 M174.5,212.8
		c-0.3,0-0.6-0.1-0.9-0.2h-0.1h-0.1l-0.8-0.4c-0.4-0.2-1.2-0.8-1.2-2.2c0-0.5,0.1-1,0.3-1.6c0.2-0.8,0.6-1.7,0.8-2.3l0,0l0,0
		l4.5-9.8c0.2-0.5,0.8-1.6,1.3-2.5c1-1.6,1.9-2.7,3.2-2.7c0.3,0,0.6,0.1,0.8,0.2l0,0l0,0l0.8,0.3c0.4,0.2,1.3,0.8,1.3,2.3
		c0,0.5-0.1,1-0.3,1.7c-0.3,1-0.7,1.9-0.9,2.4l-5,11.1c-0.2,0.5-0.6,1.2-1.2,1.9C176.7,211.8,175.8,212.8,174.5,212.8z"/>
</g>
</svg>
