<?xml version="1.0" encoding="utf-8"?>
<!-- Generator: Adobe Illustrator 23.0.2, SVG Export Plug-In . SVG Version: 6.00 Build 0)  -->
<svg version="1.1" id="Layer_1" xmlns="http://www.w3.org/2000/svg" xmlns:xlink="http://www.w3.org/1999/xlink" x="0px" y="0px"
	 viewBox="0 0 150 150" style="enable-background:new 0 0 150 150;" xml:space="preserve">
<style type="text/css">
	.st0{fill:#22F4BB;}
	.st1{fill:#2D3341;}
</style>
<path class="st0" d="M111,36.3c-12.8,0-24.6-1.9-34.3-5c-1.1-0.4-2.3-0.4-3.4,0c-9.7,3.2-21.5,5-34.3,5h-3c-2.8-0.1-5.2,2-5.5,4.8
	c-0.3,3-0.5,6-0.5,9.1c0,31.5,17.8,58.3,42.9,68.7c1.4,0.6,2.9,0.6,4.3,0c25-10.4,42.9-37.2,42.9-68.7c0-3.1-0.2-6.1-0.5-9.1
	c-0.3-2.8-2.7-4.9-5.5-4.8H111z"/>
<path class="st1" d="M74.3,101h-0.2c-0.9,0-1.7-0.4-2.3-1.1l-6.6-7.4c-1.2-1.4-1.1-3.4,0.3-4.7c1.4-1.2,3.4-1.1,4.7,0.3l4.4,4.9
	l10.1-9c1.4-1.2,3.4-1.1,4.7,0.3c1.2,1.4,1.1,3.4-0.3,4.7l-12.6,11.3C75.9,100.7,75.1,101,74.3,101z"/>
<g>
	<path class="st1" d="M70.5,67.8l3-15.9h4.6l-5,22.4h-4.6l-3.6-15l-3.6,15h-4.6l-5-22.4h4.6l3,15.9L63,51.9h3.9L70.5,67.8z"/>
	<path class="st1" d="M98.4,71.5c-0.8,1-2,1.8-3.5,2.3c-1.5,0.5-3.2,0.8-5,0.8c-1.9,0-3.6-0.4-5.1-1.3c-1.5-0.8-2.6-2.1-3.4-3.7
		c-0.8-1.6-1.2-3.5-1.2-5.7v-1.5c0-2.2,0.4-4.2,1.1-5.8c0.8-1.6,1.8-2.9,3.3-3.8c1.4-0.9,3.1-1.3,5-1.3c2.7,0,4.7,0.6,6.2,1.9
		c1.5,1.3,2.4,3.1,2.7,5.5h-4.5c-0.2-1.3-0.7-2.2-1.4-2.8s-1.7-0.9-2.9-0.9c-1.6,0-2.8,0.6-3.6,1.8c-0.8,1.2-1.2,2.9-1.2,5.3v1.4
		c0,2.3,0.4,4.1,1.3,5.3c0.9,1.2,2.2,1.8,3.9,1.8c1.7,0,3-0.4,3.7-1.1v-3.9h-4.2v-3.4h8.8V71.5z"/>
</g>
</svg>
