<?xml version="1.0" encoding="utf-8"?>
<!-- Generator: Adobe Illustrator 23.0.2, SVG Export Plug-In . SVG Version: 6.00 Build 0)  -->
<svg version="1.1" id="Layer_1" xmlns="http://www.w3.org/2000/svg" xmlns:xlink="http://www.w3.org/1999/xlink" x="0px" y="0px"
	 viewBox="0 0 150 150" style="enable-background:new 0 0 150 150;" xml:space="preserve">
<style type="text/css">
	.st0{fill:#2D3441;}
	.st1{fill:#22F4BB;}
</style>
<g id="Layer_1_2_">
	<path class="st0" d="M75,113.3c11.2-4.7,20.9-13,27.9-24.1c7.3-11.4,11.1-24.9,11.1-39c0-2.6-0.1-5.3-0.4-7.9H111
		c-12.9,0-25.4-1.8-36-5.3c-10.6,3.4-23.1,5.3-36,5.3h-2.6c-0.3,2.6-0.4,5.3-0.4,7.9c0,14.1,3.8,27.6,11.1,39
		C54.1,100.2,63.8,108.5,75,113.3z"/>
	<path class="st1" d="M119.5,41.1c-0.3-2.8-2.6-4.8-5.4-4.8H111c-12.8,0-24.6-1.9-34.3-5C76.2,31.1,75.6,31,75,31s-1.2,0.1-1.7,0.3
		c-9.7,3.2-21.5,5-34.3,5h-3.1c-2.8,0-5.1,2.1-5.4,4.8c-0.3,3-0.5,6-0.5,9.1c0,31.5,17.8,58.3,42.9,68.7c0.7,0.3,1.4,0.4,2.1,0.4
		s1.5-0.1,2.1-0.4c25-10.4,42.9-37.2,42.9-68.7C120,47.1,119.8,44.1,119.5,41.1z M36,50.2c0-2.6,0.1-5.3,0.4-7.9H39
		c12.9,0,25.4-1.8,36-5.3c10.6,3.4,23.1,5.3,36,5.3h2.6c0.3,2.6,0.4,5.3,0.4,7.9c0,14.1-3.8,27.6-11.1,39c-7,11-16.6,19.3-27.9,24.1
		c-11.2-4.7-20.9-13-27.9-24.1C39.8,77.8,36,64.3,36,50.2z"/>
	<g>
		<circle class="st1" cx="75" cy="92.1" r="13.3"/>
		<path class="st0" d="M75,82.2L75,82.2c-1.3,0-3,1.1-3,2.4l0.6,9.4c0,1.3,1.1,2.4,2.4,2.4l0,0c1.3,0,2.4-1.1,2.4-2.4l0.6-9.4
			C78,83.3,76.3,82.2,75,82.2z"/>
		<circle class="st0" cx="75" cy="100.7" r="2.4"/>
	</g>
	<g>
		<path class="st1" d="M58,61.9c0,1.7-0.3,3.3-0.9,4.6c-0.6,1.3-1.5,2.3-2.6,3c-1.1,0.7-2.5,1.1-3.9,1.1c-1.5,0-2.8-0.4-3.9-1.1
			s-2-1.7-2.7-3s-1-2.8-1-4.5v-0.9c0-1.7,0.3-3.3,0.9-4.6c0.6-1.3,1.5-2.3,2.7-3.1c1.1-0.7,2.5-1.1,3.9-1.1s2.8,0.4,3.9,1.1
			c1.1,0.7,2,1.7,2.7,3.1c0.6,1.3,0.9,2.9,0.9,4.6V61.9z M54.3,61.1c0-1.9-0.3-3.3-1-4.2c-0.7-1-1.6-1.4-2.8-1.4
			c-1.2,0-2.2,0.5-2.8,1.4c-0.7,1-1,2.3-1,4.2v0.9c0,1.8,0.3,3.2,1,4.2c0.7,1,1.6,1.5,2.9,1.5c1.2,0,2.2-0.5,2.8-1.4
			c0.7-1,1-2.4,1-4.2V61.1z"/>
		<path class="st1" d="M66.9,66l4-13.3H75l-6.2,17.7H65l-6.1-17.7h4L66.9,66z"/>
		<path class="st1" d="M80.3,64.1v6.2h-3.6V52.7h6.9c1.3,0,2.5,0.2,3.5,0.7c1,0.5,1.8,1.2,2.3,2.1c0.5,0.9,0.8,1.9,0.8,3.1
			c0,1.7-0.6,3.1-1.8,4.1c-1.2,1-2.8,1.5-4.9,1.5H80.3z M80.3,61.2h3.3c1,0,1.7-0.2,2.2-0.7c0.5-0.5,0.8-1.1,0.8-1.9
			c0-0.9-0.3-1.6-0.8-2.1c-0.5-0.5-1.2-0.8-2.1-0.8h-3.3V61.2z"/>
		<path class="st1" d="M107.1,70.3h-3.6l-7.1-11.6v11.6h-3.6V52.7h3.6l7.1,11.7V52.7h3.6V70.3z"/>
	</g>
</g>
</svg>
