<?xml version="1.0" encoding="utf-8"?>
<!-- Generator: Adobe Illustrator 22.1.0, SVG Export Plug-In . SVG Version: 6.00 Build 0)  -->
<svg version="1.1" id="Layer_1" xmlns="http://www.w3.org/2000/svg" xmlns:xlink="http://www.w3.org/1999/xlink" x="0px" y="0px"
	 viewBox="0 0 150 150" style="enable-background:new 0 0 150 150;" xml:space="preserve">
<style type="text/css">
	.st0{fill:#2D3441;}
	.st1{fill:#22F4BB;}
</style>
<g id="Layer_1_1_">
	<path class="st0" d="M75,113.3c11.2-4.7,20.9-13,27.9-24.1c7.3-11.4,11.1-24.9,11.1-39c0-2.6-0.1-5.3-0.4-7.9H111
		c-12.9,0-25.4-1.8-36-5.3c-10.6,3.4-23.1,5.3-36,5.3h-2.6c-0.3,2.6-0.4,5.3-0.4,7.9c0,14.1,3.8,27.6,11.1,39
		C54.1,100.2,63.8,108.5,75,113.3z"/>
	<path class="st1" d="M119.5,41.1c-0.3-2.8-2.6-4.8-5.4-4.8H111c-12.8,0-24.6-1.9-34.3-5C76.2,31.1,75.6,31,75,31s-1.2,0.1-1.7,0.3
		c-9.7,3.2-21.5,5-34.3,5h-3.1c-2.8,0-5.1,2.1-5.4,4.8c-0.3,3-0.5,6-0.5,9.1c0,31.5,17.8,58.3,42.9,68.7c0.7,0.3,1.4,0.4,2.1,0.4
		s1.5-0.1,2.1-0.4c25-10.4,42.9-37.2,42.9-68.7C120,47.1,119.8,44.1,119.5,41.1z M36,50.2c0-2.6,0.1-5.3,0.4-7.9H39
		c12.9,0,25.4-1.8,36-5.3c10.6,3.4,23.1,5.3,36,5.3h2.6c0.3,2.6,0.4,5.3,0.4,7.9c0,14.1-3.8,27.6-11.1,39c-7,11-16.6,19.3-27.9,24.1
		c-11.2-4.7-20.9-13-27.9-24.1C39.8,77.8,36,64.3,36,50.2z"/>
	<path class="st1" d="M53.8,68.1l0.2,0.8h0.1l0.2-0.7L58.6,52H64l-7.2,22.2h-5.6L44.1,52h5.4L53.8,68.1z M70.9,66.6v7.6h-5.1V52h8.5
		c2.6,0,4.7,0.7,6.3,2c1.5,1.3,2.3,3.1,2.3,5.3s-0.8,3.9-2.3,5.3c-1.5,1.4-3.6,2-6.3,2H70.9z M70.9,62.6h3.3c1.1,0,2-0.3,2.6-0.9
		c0.6-0.6,0.9-1.4,0.9-2.4s-0.3-1.8-0.9-2.4c-0.6-0.6-1.4-0.9-2.6-0.9h-3.3C70.9,56,70.9,62.6,70.9,62.6z M104.1,74.2H99l-8.1-13.9
		h-0.1v13.9h-5.1V52h5.1l8.1,13.9H99V52h5.1C104.1,52,104.1,74.2,104.1,74.2z"/>
	<g>
		<circle class="st1" cx="75" cy="92.1" r="13.3"/>
		<path class="st0" d="M75,82.2L75,82.2c-1.3,0-3,1.1-3,2.4l0.6,9.4c0,1.3,1.1,2.4,2.4,2.4l0,0c1.3,0,2.4-1.1,2.4-2.4l0.6-9.4
			C78,83.3,76.3,82.2,75,82.2z"/>
		<circle class="st0" cx="75" cy="100.7" r="2.4"/>
	</g>
</g>
</svg>
