<?xml version="1.0" encoding="utf-8"?>
<!-- Generator: Adobe Illustrator 23.0.2, SVG Export Plug-In . SVG Version: 6.00 Build 0)  -->
<svg version="1.1" id="Layer_1" xmlns="http://www.w3.org/2000/svg" xmlns:xlink="http://www.w3.org/1999/xlink" x="0px" y="0px"
	 viewBox="0 0 150 150" style="enable-background:new 0 0 150 150;" xml:space="preserve">
<style type="text/css">
	.st0{fill:#2D3441;}
	.st1{fill:#22F4BB;}
</style>
<path class="st0" d="M75,113.3c11.2-4.7,20.9-13,27.9-24.1c7.3-11.4,11.1-24.9,11.1-39c0-2.6-0.1-5.3-0.4-7.9H111
	c-12.9,0-25.4-1.8-36-5.3c-10.6,3.4-23.1,5.3-36,5.3h-2.6c-0.3,2.6-0.4,5.3-0.4,7.9c0,14.1,3.8,27.6,11.1,39
	C54.1,100.2,63.8,108.5,75,113.3z"/>
<path class="st1" d="M119.5,41.1c-0.3-2.8-2.6-4.8-5.4-4.8H111c-12.8,0-24.6-1.9-34.3-5C76.2,31.1,75.6,31,75,31s-1.2,0.1-1.7,0.3
	c-9.7,3.2-21.5,5-34.3,5h-3.1c-2.8,0-5.1,2.1-5.4,4.8c-0.3,3-0.5,6-0.5,9.1c0,31.5,17.8,58.3,42.9,68.7c0.7,0.3,1.4,0.4,2.1,0.4
	s1.5-0.1,2.1-0.4c25-10.4,42.9-37.2,42.9-68.7C120,47.1,119.8,44.1,119.5,41.1z M36,50.2c0-2.6,0.1-5.3,0.4-7.9H39
	c12.9,0,25.4-1.8,36-5.3c10.6,3.4,23.1,5.3,36,5.3h2.6c0.3,2.6,0.4,5.3,0.4,7.9c0,14.1-3.8,27.6-11.1,39c-7,11-16.6,19.3-27.9,24.1
	c-11.2-4.7-20.9-13-27.9-24.1C39.8,77.8,36,64.3,36,50.2z"/>
<g>
	<circle class="st1" cx="75" cy="92.1" r="13.3"/>
	<path class="st0" d="M75,82.2L75,82.2c-1.3,0-3,1.1-3,2.4l0.6,9.4c0,1.3,1.1,2.4,2.4,2.4l0,0c1.3,0,2.4-1.1,2.4-2.4l0.6-9.4
		C78,83.3,76.3,82.2,75,82.2z"/>
	<circle class="st0" cx="75" cy="100.7" r="2.4"/>
</g>
<g>
	<path class="st1" d="M70.5,67.8l3-15.9h4.6l-5,22.4h-4.6l-3.6-15l-3.6,15h-4.6l-5-22.4h4.6l3,15.9L63,51.9h3.9L70.5,67.8z"/>
	<path class="st1" d="M98.4,71.5c-0.8,1-2,1.8-3.5,2.3c-1.5,0.5-3.2,0.8-5,0.8c-1.9,0-3.6-0.4-5.1-1.3c-1.5-0.8-2.6-2.1-3.4-3.7
		c-0.8-1.6-1.2-3.5-1.2-5.7v-1.5c0-2.2,0.4-4.2,1.1-5.8c0.8-1.6,1.8-2.9,3.3-3.8c1.4-0.9,3.1-1.3,5-1.3c2.7,0,4.7,0.6,6.2,1.9
		c1.5,1.3,2.4,3.1,2.7,5.5h-4.5c-0.2-1.3-0.7-2.2-1.4-2.8s-1.7-0.9-2.9-0.9c-1.6,0-2.8,0.6-3.6,1.8c-0.8,1.2-1.2,2.9-1.2,5.3v1.4
		c0,2.3,0.4,4.1,1.3,5.3c0.9,1.2,2.2,1.8,3.9,1.8c1.7,0,3-0.4,3.7-1.1v-3.9h-4.2v-3.4h8.8V71.5z"/>
</g>
</svg>
