<?xml version="1.0" encoding="utf-8"?>
<!-- Generator: Adobe Illustrator 22.1.0, SVG Export Plug-In . SVG Version: 6.00 Build 0)  -->
<svg version="1.1" id="Layer_1" xmlns="http://www.w3.org/2000/svg" xmlns:xlink="http://www.w3.org/1999/xlink" x="0px" y="0px"
	 viewBox="0 0 150 150" style="enable-background:new 0 0 150 150;" xml:space="preserve">
<style type="text/css">
	.st0{fill:#22F4BB;}
	.st1{fill:#2D3341;}
</style>
<path class="st0" d="M110.7,36.3c-12.8,0-24.6-1.9-34.3-5c-1.1-0.4-2.3-0.4-3.4,0c-9.7,3.2-21.5,5-34.3,5h-3c-2.8-0.1-5.2,2-5.5,4.8
	c-0.3,3-0.5,6-0.5,9.1c0,31.5,17.8,58.3,42.9,68.7c1.4,0.6,2.9,0.6,4.3,0c25-10.4,42.9-37.2,42.9-68.7c0-3.1-0.2-6.1-0.5-9.1
	c-0.3-2.8-2.7-4.9-5.5-4.8H110.7z"/>
<g>
	<path class="st1" d="M66.8,95.2L66.8,95.2c0,1.9,0.6,3.7,1.8,5.1l0,0c0.9,1.1,2.1,1.9,3.4,2.3l0,0c1.3-0.4,2.5-1.2,3.4-2.3l0,0
		c1.2-1.4,1.8-3.2,1.8-5.1l0,0l0,0c0-1.9-0.6-3.7-1.8-5.1l0,0c-0.9-1.1-2.1-1.9-3.4-2.3l0,0c-1.3,0.4-2.5,1.2-3.4,2.3l0,0
		C67.4,91.5,66.8,93.3,66.8,95.2L66.8,95.2z M68.4,95.2c0-2.4,1.4-4.5,3.4-5.4l0,0l0,0c0,0,0,0,0.1,0l0,0l0,0l0,0l0,0l0,0l0,0l0,0
		l0,0H72l0,0l0,0c2,0.8,3.4,3,3.4,5.4s-1.3,4.5-3.3,5.3l0,0l0,0c0,0,0,0-0.1,0l0,0c0,0,0,0-0.1,0l0,0h-0.1l0,0l0,0h-0.1l0,0
		c0,0,0,0-0.1,0l0,0c0,0,0,0-0.1,0l0,0l0,0C69.7,99.7,68.4,97.6,68.4,95.2z"/>
	<path class="st1" d="M62.2,95.2c0,6.9,5.6,12.5,12.5,12.5c6.9,0,12.5-5.6,12.5-12.5c0-4.2-2-7.8-5.1-10.1c0,0-0.7-0.6-1.2-0.8
		c-0.6-0.3-1.2-0.6-1.9-0.9c-1.5-0.9-2.2-2.2-2.3-4c-0.1-2.1-1.5-2.7-3.1-1.5c-0.7,0.6-1.3,1.1-1.4,2c0,0.3-0.1,0.6-0.2,0.9
		c-0.2,1.2-0.9,2.1-1.9,2.6c-0.4,0.2-0.8,0.3-1.2,0.5c-0.6,0.3-1.7,1.1-1.7,1.1C64.2,87.4,62.2,91.1,62.2,95.2z M64.9,95.2
		L64.9,95.2L64.9,95.2c0-2.3,0.8-4.6,2.2-6.3c0,0,0-0.1,0.1-0.1c1.2-1.4,2.7-2.3,4.3-2.8c0.2,0,0.3-0.1,0.5-0.1s0.3,0,0.5,0.1
		c1.7,0.5,3.2,1.4,4.3,2.8l0.1,0.1c1.4,1.7,2.2,4,2.2,6.3l0,0l0,0c0,2.3-0.8,4.6-2.2,6.3c0,0,0,0.1-0.1,0.1
		c-1.2,1.4-2.7,2.3-4.3,2.8c-0.2,0-0.3,0.1-0.5,0.1s-0.3,0-0.5-0.1c-1.7-0.5-3.2-1.4-4.3-2.8l-0.1-0.1
		C65.7,99.8,64.9,97.6,64.9,95.2z"/>
	<path class="st1" d="M69.7,95.2c0,1.8,0.9,3.4,2.4,4.1c1.4-0.7,2.3-2.3,2.4-4.1c0-1.8-0.9-3.4-2.4-4.1
		C70.6,91.9,69.7,93.5,69.7,95.2z M71,95.2c0-1,0.4-1.9,1-2.5c0.6,0.6,1,1.5,1,2.5s-0.4,1.9-1,2.5C71.4,97.1,71,96.2,71,95.2z"/>
</g>
<g>
	<path class="st1" d="M70.4,54.5h-7.3v19.7h-5.8V54.5h-7.1V50h20.2V54.5z"/>
	<path class="st1" d="M68.5,65.1c0-1.8,0.3-3.4,1-4.8c0.7-1.4,1.7-2.5,3-3.2c1.3-0.8,2.8-1.1,4.6-1.1c2.7,0,4.8,0.8,6.4,2.5
		c1.5,1.7,2.3,3.9,2.3,6.8v0.2c0,2.8-0.8,5-2.3,6.7c-1.6,1.6-3.7,2.5-6.3,2.5c-2.6,0-4.6-0.8-6.2-2.3c-1.5-1.5-2.4-3.6-2.5-6.2
		L68.5,65.1z M74.1,65.4c0,1.7,0.3,2.9,0.8,3.7c0.5,0.8,1.3,1.2,2.3,1.2c2,0,3-1.5,3.1-4.6v-0.6c0-3.2-1-4.8-3.1-4.8
		c-1.9,0-2.9,1.4-3,4.2L74.1,65.4z"/>
	<path class="st1" d="M99.1,61.3l-1.8-0.1c-1.8,0-2.9,0.6-3.4,1.7v11.4h-5.6v-18h5.2l0.2,2.3c0.9-1.8,2.3-2.6,3.9-2.6
		c0.6,0,1.1,0.1,1.6,0.2L99.1,61.3z"/>
</g>
</svg>
