<?xml version="1.0" encoding="utf-8"?>
<!-- Generator: Adobe Illustrator 22.1.0, SVG Export Plug-In . SVG Version: 6.00 Build 0)  -->
<svg version="1.1" id="Layer_1" xmlns="http://www.w3.org/2000/svg" xmlns:xlink="http://www.w3.org/1999/xlink" x="0px" y="0px"
	 viewBox="0 0 366 255.1" style="enable-background:new 0 0 366 255.1;" xml:space="preserve">
<style type="text/css">
	.st0{fill:none;stroke:#22F3BA;stroke-width:2;stroke-miterlimit:10;}
	.st1{fill:none;stroke:#22F3BA;stroke-width:0.5;stroke-miterlimit:10;}
	.st2{fill:none;stroke:#22F3BA;stroke-linecap:round;stroke-linejoin:round;stroke-miterlimit:10;}
</style>
<g>
	<path class="st0" d="M154.3,58.9l-29.8,120.8c0,0-6.5,22.5,10.3,26.8l42.8,3.3c0,0,21.3,3.8,28.3-22.5s28.8-121.5,28.8-121.5
		s6.5-16.5-8-23.2c-1.5-0.7-3.2-1.1-4.9-1.1l-44.4-1.2C177.3,40.1,158.7,40.8,154.3,58.9z"/>
	<path class="st0" d="M149.3,79.1c0,0,7-1.5,12-1.3s65.9,0.6,69.3,4.9"/>
	<path class="st0" d="M131.8,205.3c0,0,5.2,6.3,14.2,6.8s41.8,2.8,41.8,2.8s17.5,2.3,24.5-19.8S242,68.4,242,68.4s4.5-14.3-9.9-21.9
		"/>
	<path class="st1" d="M235,79.6l-0.2-0.2c-0.4-0.3-0.6-0.8-0.5-1.3l2.4-8.6c0.2-0.8,1.2-1.1,1.8-0.7l0,0c0.4,0.3,0.6,0.8,0.5,1.3
		l-2.2,8.8C236.7,79.7,235.7,80.1,235,79.6z"/>
	<path class="st1" d="M234.8,82l-0.4-0.3c-0.7-0.4-1-1.2-0.7-2l3.2-12.6c0.4-1.2,1.8-1.7,2.9-1h0c0.7,0.4,1,1.2,0.8,2L237.9,81
		C237.5,82.2,235.9,82.8,234.8,82z"/>
	<g>
		<path class="st1" d="M142,209.1l3.2,2c0,0,1.1,1,3.7,1.1c2.5,0.1,12.7,0.6,12.7,0.6s1.1,0.1,1.2-0.5c0.1-0.6,1.3-0.5,1.7-0.5
			c0.4,0,3.9,0.1,5.2,0.5c1.3,0.4,3,0.6,4.1,0.6c1.2,0,5.7,0.2,5.7,0.2s2.5,0,1.2-1c-1.3-1-2.8-1.6-4.4-1.7s-7.2-0.4-7.9-0.4
			s-1-0.1-1.6,0.2c-0.6,0.3-4.9,0-5.6-0.1c-0.7-0.1-3.2-1-4-1.2c-0.8-0.2-13.4-0.7-13.8-0.7C143,208.3,141.1,208.1,142,209.1z"/>
		<path class="st1" d="M143.7,208.4c0,0,2.9,2.6,4.2,2.6c1.1,0,10,0.5,12.5,0.6c0.2,0,0.3-0.2,0.1-0.3l-2.6-1.9"/>
		<path class="st1" d="M146.4,208.5l0.9,0.7c0.2,0.2,0.5,0.3,0.8,0.3l10.8,0.4"/>
		<path class="st1" d="M148.6,208.6c0,0-0.2,0.8,0,1"/>
		<path class="st1" d="M168.9,210.1c0,0-0.3,0.4,0.5,0.9c0.9,0.4,1.5,0.6,2.9,0.7s6,0.2,6,0.2s1.3,0.1,0.5-0.7"/>
	</g>
	<polygon class="st2" points="199.9,74.2 176.8,73.6 180,60.9 203.1,61.5 	"/>
</g>
</svg>
