<?xml version="1.0" encoding="utf-8"?>
<!-- Generator: Adobe Illustrator 22.1.0, SVG Export Plug-In . SVG Version: 6.00 Build 0)  -->
<svg version="1.1" id="Layer_1" xmlns="http://www.w3.org/2000/svg" xmlns:xlink="http://www.w3.org/1999/xlink" x="0px" y="0px"
	 viewBox="0 0 366 255.1" style="enable-background:new 0 0 366 255.1;" xml:space="preserve">
<style type="text/css">
	.st0{fill:#22F4BB;}
</style>
<g>
	<g>
		<path class="st0" d="M174.2,47.2c3.8,0,7.9,0.7,11.6,2.7c11.1,6.2,107.1,55,107.1,55s10.1,5.1,2.6,13.2l-1.4,0.7
			c0,0-1.2,16.6-2.2,28.1c7.2,6.7-1.4,12.7-1.4,12.7s-84.7,46.2-88.9,47.9c-1,0.4-1.9,0.6-2.8,0.6c-2.9,0-5.3-1.7-5.3-1.7
			L72.2,126.9c0,0-2.9-1.5-3.1-8.2s-1.4-22.6-1.4-22.6s0.7-9.9,11.6-14.2c11-4.3,80.8-32,80.8-32S166.6,47.2,174.2,47.2 M174.2,45.2
			c-7.7,0-14.2,2.7-14.7,2.9c-1.5,0.6-70,27.8-80.8,32c-12,4.7-12.9,15.5-12.9,15.9v0.1v0.1c0,0.2,1.2,15.9,1.4,22.5
			c0.2,7.1,3.3,9.4,4,9.9l121.3,79.3c0.4,0.3,3,2,6.4,2c1.2,0,2.4-0.2,3.6-0.7c4.2-1.7,85.6-46.1,89-48l0.1-0.1l0.1-0.1
			c0.2-0.1,4.7-3.4,5.1-8.1c0.2-2.5-0.8-4.8-2.8-6.9c0.8-9.6,1.8-22.2,2.1-26l0.4-0.2l0.3-0.2l0.2-0.3c2.6-2.8,3.7-5.7,3.2-8.6
			c-0.9-4.9-6.1-7.6-6.3-7.7c-1-0.5-96.1-48.8-107.1-54.9C183.1,46.2,178.9,45.2,174.2,45.2L174.2,45.2z"/>
	</g>
</g>
<g>
	<path class="st0" d="M198.9,208.1c-3,0-5.4-1.7-5.4-1.7L72.1,127.1c-0.1-0.1-3-1.7-3.2-8.4c-0.2-6.6-1.4-22.4-1.4-22.6
		c0-0.1,0.8-10.1,11.8-14.4c10.8-4.2,80.1-31.7,80.8-32c0.1-0.1,14.7-6.1,25.7,0s106.2,54.5,107.1,55c0.2,0.1,4.7,2.4,5.4,6.4
		c0.4,2.3-0.5,4.7-2.7,7.1h-0.1l-1.3,0.7c-0.1,1.5-1.2,17-2.2,27.9c2,1.9,3,4,2.9,6.1c-0.3,3.9-4.1,6.7-4.3,6.8
		c-0.9,0.5-84.8,46.3-88.9,48C200.7,208,199.8,208.1,198.9,208.1z M174.2,47.4c-7.5,0-13.8,2.7-13.9,2.7c-0.7,0.3-70,27.8-80.8,32
		C68.8,86.3,68,96,68,96.1s1.2,16,1.4,22.6c0.2,6.5,2.9,8,3,8l121.4,79.4c0,0,3.9,2.7,7.9,1.1c4.1-1.7,88-47.5,88.8-47.9
		c0,0,3.9-2.8,4.1-6.5c0.1-2-0.8-4-2.8-5.9l-0.1-0.1v-0.1c0.9-10.4,2-25.2,2.2-27.7l-89.2,46c0,0-5.7,3.7-6.1,12.2l-0.7,24.1
		c0,0,0.2,3,1.4,3.7c0.3,0.2,0.7,0.2,1.1,0l0.2,0.4c-0.5,0.2-1,0.2-1.4-0.1c-1.4-0.8-1.6-3.9-1.6-4.1l0.7-24.2
		c0.3-8.6,6.2-12.5,6.3-12.5l90.9-46.9c2.1-2.3,3-4.6,2.6-6.7c-0.7-3.8-5.1-6.1-5.2-6.1c-1-0.5-96.2-48.9-107.1-55
		C182,48,178,47.4,174.2,47.4z"/>
</g>
<g>
	<g>
		<path class="st0" d="M69.7,120.7l124.6,80.5c0.2,0.1,0.7,0.5,1.4,0.5c0.5,0,1-0.2,1.4-0.6l1,0.9c-0.7,0.7-1.5,1.1-2.4,1.1
			s-1.7-0.4-2.2-0.7L69.7,122.2V120.7 M69.6,120.5l-0.1,1.8l123.9,80.1c0.5,0.4,1.3,0.8,2.3,0.8c0.8,0,1.7-0.3,2.5-1.2l-1.1-1
			c-0.5,0.5-1,0.7-1.4,0.7c-0.7,0-1.2-0.4-1.4-0.5L69.6,120.5L69.6,120.5z"/>
	</g>
</g>
<g>
	<g>
		<path class="st0" d="M68.2,95.6l126.4,78.7c0.4,0.3,1.7,1,2.1,1.2c-0.2,0.4-0.3,0.5-0.5,0.5h-0.1c-0.1,0-0.3,0.1-0.4,0.1
			c-0.8,0-1.7-0.6-1.8-0.8l-126-78.7L68.2,95.6 M68.2,95.5l-0.4,1.2l126,78.8c0.2,0.1,1,0.8,1.9,0.8c0.1,0,0.3,0,0.4-0.1
			c0.4-0.1,0.5,0,0.7-0.7c0,0-1.7-0.9-2.2-1.3L68.2,95.5L68.2,95.5z"/>
	</g>
</g>
<g>
	<polygon class="st0" points="200.4,156.6 78.3,86.4 78.4,86.3 200.5,156.5 	"/>
</g>
<g>
	<path class="st0" d="M199.3,203.6c-0.8,0-1.3-0.1-1.3-0.1l0.1-0.4c0,0,2.3,0.6,5.1-0.9c2.9-1.6,86-47.3,86.8-47.8l0,0
		c0,0,1.3-1,1.4-5.5c0.2-5.5,1.1-14.3,1.1-14.4h0.4c0,0.1-0.9,8.9-1.1,14.4c-0.2,4.7-1.6,5.8-1.6,5.8c-0.9,0.5-84,46.2-86.9,47.8
		C201.7,203.4,200.3,203.6,199.3,203.6z"/>
</g>
<g>
	<path class="st0" d="M198.1,184.9l-0.1-0.2l91.2-47.9c0,0,3.6-1.5,3.8-4.5h0.2c-0.2,3.1-3.9,4.6-3.9,4.6L198.1,184.9z"/>
</g>
<g>
	<path class="st0" d="M198.3,181.7l-0.1-0.2l91.2-47.1c0,0,3.3-1.3,3.5-3.9h0.2c-0.3,2.8-3.6,4.1-3.7,4.1L198.3,181.7z"/>
</g>
<g>
	<path class="st0" d="M198.4,178.2l-0.1-0.2l92.1-47.6c0,0,2.8-1.5,2.9-2.9h0.2c-0.1,1.5-2.9,3-3,3.1L198.4,178.2z"/>
</g>
<g>
	<path class="st0" d="M198.6,175.6l-0.1-0.2l89.8-46.1c0,0,4.9-2.4,5.1-4.9h0.2c-0.2,2.6-5,5-5.2,5.1L198.6,175.6z"/>
</g>
<g>
	<path class="st0" d="M199.8,171.2L199.8,171.2l-0.2-0.1c0.1-0.3,68.8-35.3,89.8-46c0,0,4.3-2.5,4.4-3.7h0.2
		c-0.1,1.4-4.3,3.8-4.5,3.9C288.6,125.8,200.6,170.6,199.8,171.2z"/>
</g>
<g>
	<path class="st0" d="M201.9,167.6l-0.1-0.2l87.3-44.7c4-1.6,4.8-3.3,4.9-3.6c0.1-0.2,0-0.3,0-0.3l0,0v-0.2c0.1,0,0.2,0,0.2,0.1
		c0.1,0.5-0.8,2.5-5,4.1L201.9,167.6z"/>
</g>
<g>
	<g>
		<path class="st0" d="M244.6,173.6l-1.9-0.8c-0.7-0.7-1-1.7-0.9-3c0.2-2.1,1.8-4,3.5-4.2l0,0l0,0l1.5,0.3v0.2l-1.5-0.3
			c-1.6,0.2-3,2-3.3,4c-0.1,1.1,0.2,2.2,0.8,2.8l1.8,0.8L244.6,173.6z"/>
	</g>
	<g>
		<path class="st0" d="M245.2,173.7c-0.6,0-1.1-0.2-1.5-0.6c-0.7-0.7-1-1.7-0.8-2.9c0.2-2.1,1.8-4,3.5-4.2c0.7-0.1,1.3,0.1,1.8,0.6
			c0.7,0.7,1,1.7,0.8,2.9c-0.2,2.1-1.8,4-3.5,4.2C245.4,173.7,245.3,173.7,245.2,173.7z M246.6,166.1c-0.1,0-0.2,0-0.3,0
			c-1.6,0.2-3.1,2-3.3,4c-0.1,1.1,0.1,2.1,0.8,2.8c0.4,0.4,1,0.6,1.6,0.6c1.6-0.2,3.1-2,3.3-4c0.1-1.1-0.1-2.1-0.8-2.8
			C247.6,166.3,247.2,166.1,246.6,166.1z"/>
	</g>
</g>
<g>
	<path class="st0" d="M253,165.8c-0.1,0-0.3-0.1-0.4-0.2c-0.2-0.2-0.2-0.4-0.2-0.7c0.1-0.5,0.4-1,0.8-1c0.2,0,0.3,0,0.4,0.2
		c0.2,0.2,0.2,0.4,0.2,0.7l0,0C253.8,165.3,253.4,165.7,253,165.8L253,165.8z M253.3,164L253.3,164c-0.4,0-0.7,0.4-0.8,0.9
		c0,0.3,0,0.5,0.2,0.6c0.1,0.1,0.2,0.1,0.3,0.1c0.3,0,0.7-0.4,0.7-0.9l0,0c0-0.3,0-0.5-0.2-0.6C253.5,164.1,253.4,164,253.3,164z"/>
</g>
<g>
	<path class="st0" d="M261.8,162.5c0.2,0.1,0.3,0.1,0.5,0.1l-0.6-0.3c-0.2-0.2-0.4-0.5-0.5-0.8C261.3,162,261.5,162.4,261.8,162.5z"
		/>
	<g>
		<path class="st0" d="M273,157c-0.2,0-0.3,0-0.5,0.1l-5.4,3c0,0.1-0.1,0.2-0.1,0.3l5.6-3.1c0.1-0.1,0.2-0.1,0.3,0
			c0.1,0,0.2,0.1,0.2,0.2c0.1,0.2,0,0.5-0.2,0.6l-6.6,3.6c-0.1,0.1-0.2,0.3-0.3,0.4l6.9-3.8c0.3-0.2,0.4-0.5,0.2-0.8
			C273.3,157.2,273.2,157.1,273,157z"/>
		<path class="st0" d="M273.9,149.6c-0.1-0.1-0.2-0.2-0.4-0.3c-0.2,0-0.3,0-0.5,0.1l-9.9,5.4c-1.7,0.9-3.1,3.5-3.1,5.8
			c0,1.3,0.5,2.3,1.3,2.8c0.3,0.2,0.7,0.3,1.1,0.3s0.9-0.1,1.4-0.4l0.2-0.1c-0.1,0-0.3,0-0.4,0c-0.8,0.4-1.5,0.4-2.2,0.1
			c-0.8-0.4-1.2-1.4-1.2-2.6c0-2.2,1.3-4.7,3-5.6l9.9-5.4c0.1,0,0.1-0.1,0.2-0.1h0.1c0.1,0,0.2,0.1,0.2,0.2c0.1,0.1,0.1,0.2,0,0.3
			c0,0.1-0.1,0.2-0.2,0.2l-9.9,5.4c-0.5,0.3-0.9,0.7-1.3,1.2c0.2-0.2,0.5-0.4,0.8-0.6c0.2-0.2,0.4-0.3,0.6-0.4l9.9-5.4
			c0.1-0.1,0.2-0.2,0.3-0.4C274,149.9,273.9,149.8,273.9,149.6z"/>
	</g>
</g>
<g>
	<path class="st0" d="M198.3,191.4l-0.1-0.2l33.5-18c0.6-0.3,1.1-1.2,1.1-2c0-0.4-0.1-0.7-0.4-0.9c-0.2-0.1-0.4-0.1-0.6,0l-33.5,18
		l-0.1-0.2l33.5-18c0.3-0.2,0.6-0.2,0.8,0c0.3,0.2,0.4,0.5,0.4,1c0,0.9-0.5,1.9-1.2,2.2L198.3,191.4z"/>
</g>
<g>
	<path class="st0" d="M198.3,202.4l-0.1-0.2l33.1-17.6c0.5-0.3,0.9-1.1,0.9-1.8c0-0.4-0.1-0.6-0.3-0.8c-0.2-0.1-0.3-0.1-0.5,0
		l-33.6,18l-0.1-0.2l33.6-17.9c0.3-0.1,0.5-0.2,0.7,0c0.3,0.2,0.4,0.5,0.4,0.9c0,0.8-0.5,1.7-1.1,2L198.3,202.4z"/>
</g>
<g>
	<path class="st0" d="M197.7,197.6l-0.1-0.2l30.9-16.6c0.5-0.3,0.9-1.1,0.9-1.8c0-0.4-0.1-0.6-0.3-0.8c-0.2-0.1-0.3-0.1-0.5,0
		L197.7,195l-0.1-0.2l30.9-16.6c0.3-0.1,0.5-0.2,0.7,0c0.3,0.2,0.4,0.5,0.4,0.9c0,0.8-0.5,1.7-1.1,2L197.7,197.6z"/>
</g>
<g>
	<path class="st0" d="M283.7,145.7c-0.1,0-0.2,0-0.3-0.1c-0.3-0.2-0.4-0.5-0.4-0.9c0-0.8,0.5-1.6,1.1-1.9l6.4-3.3c0,0,1.5-0.7,2-1.7
		l0.2,0.1c-0.5,1-2,1.7-2.1,1.8l-6.4,3.3c-0.5,0.3-1,1.1-1,1.8c0,0.3,0.1,0.6,0.3,0.7c0.2,0.1,0.4,0.1,0.6,0l6.4-3.3
		c0.5-0.3,1.8-1.3,2-2.6h0.2c-0.2,1.3-1.5,2.4-2.1,2.7l-6.4,3.3C283.9,145.7,283.8,145.7,283.7,145.7z"/>
</g>
<g>
	<path class="st0" d="M281.8,157.4c-0.1,0-0.2,0-0.3-0.1c-0.2-0.1-0.4-0.5-0.4-0.9c0-0.8,0.5-1.7,1.1-2l6.6-3.7c0,0,2-0.8,2.6-2.8
		l0.2,0.1c-0.6,2.1-2.7,3-2.7,3l-6.6,3.7c-0.5,0.3-1,1.1-1,1.8c0,0.3,0.1,0.6,0.3,0.7c0.2,0.1,0.4,0.1,0.6-0.1l7.2-4.1
		c0.6-0.3,2.1-2.1,2.1-2.8h0.2c0,0.8-1.6,2.6-2.2,3l-7.2,4.1C282.1,157.3,281.9,157.4,281.8,157.4z"/>
</g>
<g>
	<path class="st0" d="M285.3,150.3c-0.1,0-0.2,0-0.3-0.1c-0.3-0.2-0.4-0.5-0.4-0.9c0-0.8,0.5-1.6,1.1-1.9l3.7-2.3c0,0,2.1-1.1,2.5-2
		l0.2,0.1c-0.5,1-2.5,2.1-2.6,2.1l-3.7,2.3c-0.5,0.3-1,1.1-1,1.8c0,0.3,0.1,0.6,0.3,0.7c0.2,0.1,0.4,0.1,0.6,0l3.7-2.3
		c0.8-0.4,2.5-1.5,2.5-2.1h0.2c0,0.9-2.6,2.3-2.6,2.3l-3.7,2.3C285.6,150.3,285.5,150.3,285.3,150.3z"/>
</g>
<g>
	<path class="st0" d="M209.1,185.5L209.1,185.5l-2.5-0.4c0,0-0.1,0-0.1-0.1v-1.3c0,0,0-0.1,0.1-0.1c0,0,0.1,0,0.1,0.1v1.2l2.4,0.3
		C209.1,185.4,209.1,185.4,209.1,185.5L209.1,185.5z"/>
</g>
<g>
	<path class="st0" d="M208.8,191.5L208.8,191.5l-2.5-0.4c0,0-0.1,0-0.1-0.1v-0.9c0,0,0-0.1,0.1-0.1c0,0,0.1,0,0.1,0.1v0.8l2.4,0.3
		C208.8,191.4,208.9,191.4,208.8,191.5C208.9,191.5,208.8,191.5,208.8,191.5z"/>
</g>
<g>
	<path class="st0" d="M208.8,196.7L208.8,196.7l-2.5-0.4c0,0-0.1,0-0.1-0.1v-1c0,0,0-0.1,0.1-0.1c0,0,0.1,0,0.1,0.1v0.9l2.4,0.3
		C208.8,196.6,208.9,196.6,208.8,196.7C208.9,196.7,208.8,196.7,208.8,196.7z"/>
</g>
<g>
	<path class="st0" d="M209.1,179L209.1,179l-2.5-0.4c0,0-0.1,0-0.1-0.1v-1.3c0,0,0-0.1,0.1-0.1c0,0,0.1,0,0.1,0.1v1.2l2.4,0.3
		C209.1,178.9,209.1,178.9,209.1,179L209.1,179z"/>
</g>
<g>
	<path class="st0" d="M208.6,172.9L208.6,172.9l-2-0.4c0,0,0,0,0-0.1v-1.3c0,0,0-0.1,0.1-0.1c0,0,0.1,0,0.1,0.1v1.2l1.9,0.3
		C208.6,172.7,208.6,172.8,208.6,172.9C208.6,172.8,208.6,172.9,208.6,172.9z"/>
</g>
<g>
	<path class="st0" d="M208.6,166.6L208.6,166.6l-2-0.3c0,0-0.1,0-0.1-0.1v-1c0,0,0-0.1,0.1-0.1c0,0,0.1,0,0.1,0.1v1l1.9,0.3
		C208.6,166.5,208.6,166.5,208.6,166.6L208.6,166.6z"/>
</g>
<g>
	<polygon class="st0" points="287,154.6 287,154.5 284.6,153.2 284.7,153.1 286.9,154.4 287.1,151.7 287.2,151.7 	"/>
</g>
<g>
	<polygon class="st0" points="287.4,149.2 285.2,147.9 285.2,147.8 287.3,149 287.5,146.3 287.6,146.3 	"/>
</g>
<g>
	<polygon class="st0" points="287.8,143.7 287.7,143.7 285.3,142.3 285.3,142.2 287.7,143.5 287.9,140.9 288,140.9 	"/>
</g>
<g>
	<polygon class="st0" points="288.2,137.6 285.9,136.3 286,136.2 288.1,137.4 288.3,135.1 288.4,135.1 	"/>
</g>
<g>
	<polygon class="st0" points="288.7,131.6 286.6,130.3 286.6,130.2 288.5,131.4 288.7,129.1 288.8,129.1 	"/>
</g>
<g>
	<polygon class="st0" points="289.1,125.6 286.6,124.2 286.6,124.1 289,125.4 289.1,122.8 289.3,122.8 	"/>
</g>
<g>
	<polygon class="st0" points="229.4,180 226.1,179.7 226.1,179.5 229.4,179.8 	"/>
</g>
<g>
	<polygon class="st0" points="232.3,183.9 228.5,183.6 228.5,183.4 232.3,183.7 	"/>
</g>
<g>
	<polygon class="st0" points="232.9,172.3 228.9,171.9 228.9,171.7 232.9,172.1 	"/>
</g>
<g>
	<path class="st0" d="M198.4,176.9C198.4,176.9,198.4,176.8,198.4,176.9c-0.1-0.1-0.1-0.1,0-0.1l8.2-4.3h0.1v0.1L198.4,176.9
		L198.4,176.9z"/>
</g>
<g>
	<path class="st0" d="M200.5,169.7C200.5,169.7,200.5,169.6,200.5,169.7c-0.1-0.1-0.1-0.1,0-0.1l6.1-3.2h0.1v0.1L200.5,169.7
		C200.6,169.7,200.6,169.7,200.5,169.7z"/>
</g>
<g>
	<path class="st0" d="M198.4,183L198.4,183c-0.1-0.1-0.1-0.1,0-0.1l8.2-4.3h0.1v0.1L198.4,183L198.4,183z"/>
</g>
<g>
	<path class="st0" d="M198.4,189.4L198.4,189.4c-0.1-0.1-0.1-0.1,0-0.1l8.2-4.3h0.1v0.1L198.4,189.4L198.4,189.4z"/>
</g>
<g>
	<path class="st0" d="M198,196.1L198,196.1c-0.1-0.1-0.1-0.1,0-0.1l8.7-4.9h0.1v0.1L198,196.1L198,196.1z"/>
</g>
<g>
	<path class="st0" d="M197.7,201.4C197.7,201.4,197.7,201.3,197.7,201.4c-0.1-0.1-0.1-0.1,0-0.1l8.7-4.9h0.1v0.1L197.7,201.4
		L197.7,201.4z"/>
</g>
<g>
	<g>
		<path class="st0" d="M269.2,134.8l0.2-0.3c0.2-0.4,0.4-0.7,0.4-1.1V133c0,0,0-0.1,2.5-1.4c1.1-0.6,2.5-1.3,2.6-1.3h0.1v0.1v0.5
			c0,0.4,0.1,0.5,0.3,0.6c0.1,0,0.1,0.1,0.2,0.1l0.1,0.1h-0.1L269.2,134.8z M269.9,133v0.3c0,0.5-0.1,0.8-0.4,1.2l5.7-3
			c0,0-0.1,0-0.1-0.1c-0.2-0.1-0.3-0.2-0.3-0.7v-0.4C274.2,130.6,270.2,132.7,269.9,133z"/>
	</g>
</g>
<g>
	<g>
		<g>
			<path class="st0" d="M225.9,156.9L225.9,156.9C225.8,156.9,225.8,156.9,225.9,156.9v-0.2c0.2-0.4,0.4-0.7,0.4-1.1v-0.4
				c0,0,0-0.1,2.5-1.4c1.1-0.6,2.5-1.3,2.6-1.3l0,0l0,0v0.5c0,0.4,0.1,0.5,0.3,0.6c0.1,0,0.1,0.1,0.2,0.1c0,0,0,0,0,0.1l0,0
				L225.9,156.9L225.9,156.9z M226.4,155.2v0.3c0,0.5-0.1,0.8-0.4,1.2l5.7-3c0,0-0.1,0-0.1-0.1c-0.2-0.1-0.3-0.2-0.3-0.7v-0.4
				C230.7,152.8,226.8,155,226.4,155.2z"/>
		</g>
	</g>
	<g>
		<path class="st0" d="M225.9,156.9L225.9,156.9l-1.7-0.8c0,0,0,0,0-0.1h0.1l1.7,0.8C225.9,156.8,226,156.9,225.9,156.9L225.9,156.9
			z"/>
	</g>
</g>
<g>
	<g>
		<g>
			<path class="st0" d="M248.1,145.7L248.1,145.7C248.1,145.7,248.1,145.6,248.1,145.7v-0.2c0.2-0.4,0.4-0.7,0.4-1.1V144
				c0,0,0-0.1,2.5-1.4c1.1-0.6,2.5-1.3,2.6-1.3l0,0l0,0v0.5c0,0.4,0.1,0.5,0.3,0.6c0.1,0,0.1,0.1,0.2,0.1c0,0,0,0,0,0.1l0,0
				L248.1,145.7L248.1,145.7z M248.7,144v0.3c0,0.5-0.1,0.8-0.4,1.2l5.7-3c0,0-0.1,0-0.1-0.1c-0.2-0.1-0.3-0.2-0.3-0.7v-0.4
				C253,141.6,249,143.8,248.7,144z"/>
		</g>
	</g>
	<g>
		<path class="st0" d="M248.1,145.7L248.1,145.7l-1.7-0.8c0,0,0,0,0-0.1h0.1l1.7,0.8C248.2,145.6,248.2,145.6,248.1,145.7
			C248.2,145.7,248.1,145.7,248.1,145.7z"/>
	</g>
</g>
<g>
	<g>
		<g>
			<path class="st0" d="M257.7,146.7L257.7,146.7C257.7,146.7,257.7,146.6,257.7,146.7v-0.2c0.2-0.4,0.4-0.7,0.4-1.1V145
				c0,0,0-0.1,2.5-1.4c1.1-0.6,2.5-1.3,2.6-1.3l0,0l0,0v0.5c0,0.4,0.1,0.5,0.3,0.6c0.1,0,0.1,0.1,0.2,0.1c0,0,0,0,0,0.1l0,0
				L257.7,146.7L257.7,146.7z M258.3,145v0.3c0,0.5-0.1,0.8-0.4,1.2l5.7-3c0,0-0.1,0-0.1-0.1c-0.2-0.1-0.3-0.2-0.3-0.7v-0.4
				C262.6,142.6,258.6,144.8,258.3,145z"/>
		</g>
	</g>
	<g>
		<path class="st0" d="M257.7,146.7L257.7,146.7l-1.7-0.8c0,0,0,0,0-0.1h0.1l1.7,0.8C257.8,146.6,257.8,146.6,257.7,146.7
			C257.8,146.7,257.8,146.7,257.7,146.7z"/>
	</g>
</g>
<g>
	<g>
		<g>
			<path class="st0" d="M249.7,156.9L249.7,156.9L249.7,156.9v-0.2c0.2-0.4,0.4-0.7,0.4-1.1v-0.4c0,0,0-0.1,2.5-1.4
				c1.1-0.6,2.5-1.3,2.6-1.3l0,0l0,0v0.5c0,0.4,0.1,0.5,0.3,0.6c0.1,0,0.1,0.1,0.2,0.1c0,0,0,0,0,0.1l0,0L249.7,156.9
				C249.8,156.9,249.7,156.9,249.7,156.9z M250.3,155.2v0.3c0,0.5-0.1,0.8-0.4,1.2l5.7-3c0,0-0.1,0-0.1-0.1
				c-0.2-0.1-0.3-0.2-0.3-0.7v-0.4C254.6,152.8,250.6,155,250.3,155.2z"/>
		</g>
	</g>
	<g>
		<path class="st0" d="M249.7,156.9L249.7,156.9l-1.7-0.8c0,0,0,0,0-0.1h0.1l1.7,0.8C249.8,156.8,249.8,156.9,249.7,156.9
			C249.8,156.9,249.8,156.9,249.7,156.9z"/>
	</g>
</g>
<g>
	<g>
		<g>
			<path class="st0" d="M221.6,165.4L221.6,165.4C221.6,165.3,221.6,165.3,221.6,165.4v-0.2c0.2-0.4,0.4-0.7,0.4-1.1v-0.4
				c0,0,0-0.1,2.5-1.4c1.1-0.6,2.5-1.3,2.6-1.3l0,0l0,0v0.5c0,0.4,0.1,0.5,0.3,0.6c0.1,0,0.1,0.1,0.2,0.1c0,0,0,0,0,0.1l0,0
				L221.6,165.4C221.7,165.4,221.7,165.4,221.6,165.4z M222.2,163.6v0.3c0,0.5-0.1,0.8-0.4,1.2l5.7-3c0,0-0.1,0-0.1-0.1
				c-0.2-0.1-0.3-0.2-0.3-0.7V161C226.5,161.3,222.5,163.4,222.2,163.6z"/>
		</g>
	</g>
	<g>
		<path class="st0" d="M221.6,165.4L221.6,165.4l-1.7-0.8c0,0,0,0,0-0.1h0.1l1.7,0.8C221.7,165.3,221.7,165.3,221.6,165.4
			C221.7,165.4,221.7,165.4,221.6,165.4z"/>
	</g>
</g>
<g>
	<g>
		<g>
			<path class="st0" d="M226.3,169L226.3,169C226.3,168.9,226.3,168.9,226.3,169v-0.2c0.2-0.4,0.4-0.6,0.4-1.1v-0.4
				c0,0,0-0.1,2.5-1.4c1.1-0.6,2.5-1.3,2.6-1.3l0,0l0,0v0.5c0,0.4,0.1,0.5,0.3,0.6c0.1,0,0.1,0.1,0.2,0.1c0,0,0,0,0,0.1l0,0
				L226.3,169C226.4,169,226.3,169,226.3,169z M226.9,167.3v0.3c0,0.5-0.1,0.8-0.4,1.2l5.7-3c0,0-0.1,0-0.1-0.1
				c-0.2-0.1-0.3-0.2-0.3-0.7v-0.4C231.2,164.9,227.2,167,226.9,167.3z"/>
		</g>
	</g>
	<g>
		<path class="st0" d="M226.3,169L226.3,169l-1.7-0.8c0,0,0,0,0-0.1h0.1l1.7,0.8C226.4,168.9,226.4,168.9,226.3,169
			C226.4,169,226.4,169,226.3,169z"/>
	</g>
</g>
<g>
	<g>
		<g>
			<path class="st0" d="M274.6,144C274.5,144,274.5,144,274.6,144C274.5,144,274.5,144,274.6,144v-0.2c0.2-0.4,0.4-0.7,0.4-1.1v-0.4
				c0,0,0-0.1,2.5-1.4c1.1-0.6,2.5-1.3,2.6-1.3l0,0l0,0v0.5c0,0.4,0.1,0.5,0.3,0.6c0.1,0,0.1,0.1,0.2,0.1c0,0,0,0,0,0.1l0,0
				L274.6,144L274.6,144z M275.1,142.3v0.3c0,0.5-0.1,0.8-0.4,1.2l5.7-3c0,0-0.1,0-0.1-0.1c-0.2-0.1-0.3-0.2-0.3-0.7v-0.4
				C279.4,139.9,275.4,142.1,275.1,142.3z"/>
		</g>
	</g>
	<g>
		<path class="st0" d="M274.6,144C274.6,144,274.5,144,274.6,144l-1.7-0.8c0,0,0,0,0-0.1h0.1l1.7,0.8
			C274.6,143.9,274.6,144,274.6,144L274.6,144z"/>
	</g>
</g>
<g>
	<g>
		<path class="st0" d="M242.1,178.8v-2.9l0.6-0.3v0.1l0.4,1.6l0.5-2.1l0.6-0.3v2.9l-0.5,0.3v-1.5l-0.4,1.7l-0.4,0.2v-0.1l-0.4-1.3
			v1.6L242.1,178.8z M242.3,176v2.6l0.3-0.1v-1.9l0.1-0.1v0.1l0.5,1.6l0.2-0.1l0.5-2.1h0.1v0.1v1.8l0.3-0.1V175l-0.4,0.2l-0.5,2.3
			h-0.1v-0.1l-0.5-1.7L242.3,176z"/>
	</g>
	<g>
		<path class="st0" d="M245.1,177.3c-0.1,0-0.2,0-0.3-0.1c-0.2-0.2-0.3-0.4-0.3-0.8v-0.5c0-0.3,0.1-0.7,0.2-1
			c0.2-0.3,0.4-0.5,0.6-0.7c0.3-0.1,0.5-0.1,0.7,0c0.2,0.2,0.3,0.4,0.3,0.8v0.5c0,0.3-0.1,0.7-0.2,1c-0.2,0.3-0.4,0.5-0.6,0.7
			C245.4,177.3,245.2,177.3,245.1,177.3z M245.8,174.3c-0.1,0-0.2,0-0.3,0.1c-0.2,0.1-0.4,0.3-0.6,0.6c-0.1,0.3-0.2,0.6-0.2,0.9v0.5
			c0,0.3,0.1,0.6,0.2,0.7c0.1,0.1,0.3,0.1,0.5,0s0.4-0.3,0.6-0.6c0.2-0.3,0.2-0.6,0.2-0.9v-0.5c0-0.3-0.1-0.5-0.2-0.7
			C245.9,174.3,245.9,174.3,245.8,174.3z M245.3,176.8c-0.1,0-0.2-0.1-0.2-0.1c-0.1-0.1-0.1-0.3-0.1-0.5v-0.5c0-0.2,0-0.4,0.1-0.6
			c0.1-0.2,0.2-0.3,0.3-0.4c0.2-0.1,0.3,0,0.4,0.1c0.1,0.1,0.1,0.3,0.1,0.5v0.5c0,0.2,0,0.4-0.1,0.6c-0.1,0.2-0.2,0.3-0.4,0.4
			C245.4,176.8,245.3,176.8,245.3,176.8z M245.6,174.8h-0.1c-0.1,0.1-0.2,0.2-0.3,0.3c-0.1,0.2-0.1,0.4-0.1,0.6v0.5
			c0,0.2,0,0.4,0.1,0.4c0,0.1,0.1,0.1,0.2,0c0.1-0.1,0.2-0.2,0.3-0.3c0.1-0.2,0.1-0.4,0.1-0.6v-0.5
			C245.8,175,245.8,174.9,245.6,174.8C245.7,174.8,245.7,174.8,245.6,174.8z"/>
	</g>
	<g>
		<path class="st0" d="M246.5,176.6v-2.9l0.7-0.4c0.3-0.1,0.5-0.1,0.7,0s0.3,0.4,0.3,0.8v0.5c0,0.3-0.1,0.7-0.2,1
			c-0.2,0.3-0.4,0.5-0.6,0.6L246.5,176.6z M246.7,173.8v2.6l0.6-0.3c0.2-0.1,0.4-0.3,0.6-0.6c0.2-0.3,0.2-0.6,0.2-0.9v-0.5
			c0-0.3-0.1-0.5-0.2-0.7c-0.1-0.1-0.3-0.1-0.5,0L246.7,173.8z M247,176v-2l0.3-0.2c0.2-0.1,0.3,0,0.4,0.1c0.1,0.1,0.1,0.3,0.1,0.5
			v0.5c0,0.2,0,0.4-0.1,0.6c-0.1,0.2-0.2,0.3-0.3,0.4L247,176z M247.1,174v1.8l0.2-0.1c0.1-0.1,0.2-0.2,0.3-0.3
			c0.1-0.2,0.1-0.4,0.1-0.6v-0.5c0-0.2,0-0.3-0.1-0.4c0-0.1-0.1-0.1-0.2,0L247.1,174z"/>
	</g>
	<g>
		<path class="st0" d="M248.4,175.7v-2.9l0,0l1.4-0.7v0.6l0,0l-0.8,0.4v0.6l0.7-0.4v0.6l-0.7,0.4v0.7l0.9-0.4v0.6l0,0L248.4,175.7z
			 M248.5,172.9v2.6l1.2-0.6v-0.3l-0.9,0.4v-0.9l0.7-0.4v-0.3l-0.7,0.4V173l0,0l0.8-0.4v-0.3L248.5,172.9z"/>
	</g>
</g>
<g>
	<g>
		<path class="st0" d="M263.4,163.3l-1.7-0.8c-0.6-0.6-0.9-1.6-0.8-2.7c0.2-1.9,1.7-3.7,3.2-3.9l0,0l0,0l1.4,0.3v0.2l-1.4-0.3
			c-1.4,0.2-2.8,1.8-3,3.7c-0.1,1,0.1,2,0.7,2.5l1.7,0.7L263.4,163.3z"/>
	</g>
	<g>
		<path class="st0" d="M263.9,163.3c-0.5,0-1-0.2-1.4-0.6c-0.6-0.6-0.9-1.6-0.7-2.7c0.2-1.9,1.7-3.7,3.2-3.9
			c0.6-0.1,1.2,0.1,1.7,0.6c0.6,0.6,0.9,1.6,0.7,2.7c-0.2,1.9-1.7,3.7-3.2,3.9C264.1,163.3,264,163.3,263.9,163.3z M265.2,156.4
			c-0.1,0-0.2,0-0.2,0c-1.4,0.2-2.8,1.8-3,3.7c-0.1,1,0.1,2,0.7,2.5c0.4,0.4,0.9,0.6,1.5,0.5c1.4-0.2,2.8-1.8,3-3.7
			c0.1-1-0.1-2-0.7-2.5C266.2,156.6,265.7,156.4,265.2,156.4z"/>
	</g>
</g>
<g>
	<path class="st0" d="M108.3,140.3c-0.3,0-0.6-0.4-0.6-0.9s0.3-0.9,0.6-0.9c0.3,0,0.6,0.4,0.6,0.9S108.6,140.3,108.3,140.3z
		 M108.3,138.7c-0.3,0-0.5,0.3-0.5,0.7s0.2,0.7,0.5,0.7s0.5-0.3,0.5-0.7S108.6,138.7,108.3,138.7z"/>
</g>
<g>
	<path class="st0" d="M127.3,152c-0.3,0-0.6-0.4-0.6-0.9s0.3-0.9,0.6-0.9c0.3,0,0.6,0.4,0.6,0.9S127.7,152,127.3,152z M127.3,150.4
		c-0.3,0-0.5,0.3-0.5,0.7s0.2,0.7,0.5,0.7s0.5-0.3,0.5-0.7S127.6,150.4,127.3,150.4z"/>
</g>
<g>
	<path class="st0" d="M146,164.3c-0.3,0-0.6-0.4-0.6-0.9s0.3-0.9,0.6-0.9s0.6,0.4,0.6,0.9S146.3,164.3,146,164.3z M146,162.7
		c-0.3,0-0.5,0.3-0.5,0.7s0.2,0.7,0.5,0.7s0.5-0.3,0.5-0.7S146.2,162.7,146,162.7z"/>
</g>
<g>
	<path class="st0" d="M212.1,154.9l-0.1-0.1c0.5-0.3,52.7-27.2,71.8-35.9c7.2-3.3,10.9-6.5,10.9-9.5s-3.7-4.7-3.7-4.7v-0.1
		c0,0,3.8,1.8,3.8,4.8c0,3.1-3.7,6.3-11,9.6C264.8,127.7,212.6,154.6,212.1,154.9z"/>
</g>
<path class="st0" d="M250.2,163.3c-0.5-0.3-1.2-0.3-1.9,0.1l-3.7,2.2c-1.6,0.9-2.9,3.4-2.9,5.6c0,1.2,0.4,2.1,1.1,2.5
	c0.2,0.1,0.5,0.2,0.8,0.2c0.4,0,0.8-0.1,1.1-0.3l0.2-0.1c-0.1,0-0.2,0-0.3-0.1c-0.6,0.4-1.2,0.4-1.7,0.1c-0.6-0.4-1-1.2-1-2.3
	c0-2.1,1.2-4.6,2.8-5.5l3.7-2.2c0.4-0.2,0.7-0.3,1-0.3C249.6,163.2,249.9,163.3,250.2,163.3c0.5,0.5,0.9,1.3,0.9,2.4
	c0,2.1-1.2,4.5-2.7,5.4c-0.1,0.1-0.1,0.2-0.2,0.3l0.2-0.1c1.6-0.9,2.9-3.4,2.9-5.6C251.2,164.6,250.8,163.7,250.2,163.3z"/>
<path class="st0" d="M264.8,163.3l0.3-0.2c0.1-0.1,0.1-0.2,0.2-0.3c-0.1,0-0.1,0.1-0.2,0.1c0,0,0,0.1-0.1,0.1l-0.5,0.3h0.1
	c0.5,0.2,0.8,0.6,0.8,1.2c0,0.9-0.7,1.8-1.5,2c-0.4,0.1-0.7,0-1-0.2s-0.5-0.6-0.5-1.1c0-0.1,0.1-0.3,0.2-0.3l0,0h0.1l0.1,0.1
	c0,0.3,0.1,0.6,0.3,0.8c0.2,0.2,0.5,0.2,0.8,0.1c0.6-0.2,1.1-0.8,1.1-1.5c0-0.5-0.3-0.9-0.8-0.9h-0.1l0.3,0.8c0,0.1,0,0.3-0.1,0.3
	c0,0,0,0-0.1,0s-0.1,0-0.2-0.1l-0.4-1.1c0-0.1,0-0.3,0.1-0.3l0.3-0.2c-0.1,0-0.1,0-0.2,0l-0.2,0.1c-0.2,0.1-0.2,0.3-0.2,0.5l0.4,1.1
	c0,0.1,0.2,0.2,0.3,0.1c0,0,0.1,0,0.1-0.1c0.2-0.1,0.2-0.3,0.2-0.5l-0.2-0.6c0.4,0.1,0.6,0.4,0.6,0.8c0,0.6-0.4,1.2-1,1.4
	c-0.2,0.1-0.5,0-0.7-0.1c-0.2-0.2-0.3-0.4-0.3-0.7c0-0.1,0-0.2-0.1-0.2s-0.1-0.1-0.2,0c-0.2,0-0.3,0.2-0.3,0.4
	c0,0.5,0.2,0.9,0.5,1.1c0.2,0.2,0.5,0.2,0.7,0.2c0.1,0,0.2,0,0.4-0.1c0.9-0.2,1.6-1.2,1.6-2.2C265.5,164,265.2,163.5,264.8,163.3z"
	/>
</svg>
