<?xml version="1.0" encoding="utf-8"?>
<!-- Generator: Adobe Illustrator 22.1.0, SVG Export Plug-In . SVG Version: 6.00 Build 0)  -->
<svg version="1.1" id="Layer_1" xmlns="http://www.w3.org/2000/svg" xmlns:xlink="http://www.w3.org/1999/xlink" x="0px" y="0px"
	 viewBox="0 0 366 255.1" style="enable-background:new 0 0 366 255.1;" xml:space="preserve">
<style type="text/css">
	.st0{fill:#22F4BB;}
	.st1{fill:#22F4BB;stroke:#22F4BB;stroke-width:0.5;stroke-miterlimit:10;}
</style>
<g>
	<g>
		<g>
			<path class="st0" d="M172.3,30.5c4.6,0,9.5,0.8,14,3.3c13.4,7.5,129.4,66.4,129.4,66.4s12.2,6.2,3.1,15.9l-1.7,0.8
				c0,0-1.4,20-2.7,33.9c8.7,8.1-1.7,15.3-1.7,15.3s-102.3,55.8-107.4,57.9c-1.2,0.5-2.3,0.7-3.4,0.7c-3.5,0-6.4-2.1-6.4-2.1
				l-146.5-96c0,0-3.5-1.8-3.7-9.9c-0.2-8.1-1.7-27.3-1.7-27.3s0.8-12,14-17.2c13.3-5.2,97.6-38.6,97.6-38.6S163.1,30.5,172.3,30.5
				 M172.3,28.1c-9.3,0-17.2,3.3-17.8,3.5C152.7,32.3,70,65.2,57,70.2C42.5,75.9,41.4,89,41.4,89.4v0.1v0.1c0,0.2,1.4,19.2,1.7,27.2
				c0.2,8.6,4,11.4,4.8,12l146.5,95.8c0.5,0.4,3.6,2.4,7.7,2.4c1.4,0,2.9-0.2,4.3-0.8c5.1-2.1,103.4-55.7,107.5-58l0.1-0.1l0.1-0.1
				c0.2-0.1,5.7-4.1,6.2-9.8c0.2-3-1-5.8-3.4-8.3c1-11.6,2.2-26.8,2.5-31.4l0.5-0.2l0.4-0.2l0.2-0.4c3.1-3.4,4.5-6.9,3.9-10.4
				c-1.1-5.9-7.4-9.2-7.6-9.3c-1.2-0.6-116.1-58.9-129.4-66.3C183,29.3,178,28.1,172.3,28.1L172.3,28.1z"/>
		</g>
	</g>
	<g>
		<path class="st1" d="M202.1,224.8c-3.6,0-6.5-2.1-6.5-2.1L49,127c-0.1-0.1-3.6-2.1-3.9-10.1c-0.2-8-1.7-27.1-1.7-27.3
			c0-0.1,1-12.2,14.3-17.4c13-5.1,96.7-38.3,97.6-38.6c0.1-0.1,17.8-7.4,31,0c13.3,7.4,128.3,65.8,129.4,66.4
			c0.2,0.1,5.7,2.9,6.5,7.7c0.5,2.8-0.6,5.7-3.3,8.6h-0.1l-1.6,0.8c-0.1,1.8-1.4,20.5-2.7,33.7c2.4,2.3,3.6,4.8,3.5,7.4
			c-0.4,4.7-5,8.1-5.2,8.2c-1.1,0.6-102.4,55.9-107.4,58C204.3,224.7,203.2,224.8,202.1,224.8z M172.3,30.7
			c-9.1,0-16.7,3.3-16.8,3.3c-0.8,0.4-84.5,33.6-97.6,38.6C45,77.7,44,89.4,44,89.6c0,0.1,1.4,19.3,1.7,27.3
			c0.2,7.9,3.5,9.7,3.6,9.7L196,222.4c0,0,4.7,3.3,9.5,1.3c5-2.1,106.3-57.4,107.3-57.9c0,0,4.7-3.4,5-7.9c0.1-2.4-1-4.8-3.4-7.1
			l-0.1-0.1v-0.1c1.1-12.6,2.4-30.4,2.7-33.5l-107.7,55.6c0,0-6.9,4.5-7.4,14.7l-0.8,29.1c0,0,0.2,3.6,1.7,4.5
			c0.4,0.2,0.8,0.2,1.3,0l0.2,0.5c-0.6,0.2-1.2,0.2-1.7-0.1c-1.7-1-1.9-4.7-1.9-5l0.8-29.2c0.4-10.4,7.5-15.1,7.6-15.1l109.8-56.6
			c2.5-2.8,3.6-5.6,3.1-8.1c-0.8-4.6-6.2-7.4-6.3-7.4c-1.2-0.6-116.2-59.1-129.4-66.4C181.7,31.5,176.9,30.7,172.3,30.7z"/>
	</g>
	<g>
		<g>
			<path class="st1" d="M46.1,119.3l150.5,97.2c0.2,0.1,0.8,0.6,1.7,0.6c0.6,0,1.2-0.2,1.7-0.7l1.2,1.1c-0.8,0.8-1.8,1.3-2.9,1.3
				c-1.1,0-2.1-0.5-2.7-0.8L46.1,121.1V119.3 M46,119l-0.1,2.2L195.5,218c0.6,0.5,1.6,1,2.8,1c1,0,2.1-0.4,3-1.4l-1.3-1.2
				c-0.6,0.6-1.2,0.8-1.7,0.8c-0.8,0-1.4-0.5-1.7-0.6L46,119L46,119z"/>
		</g>
	</g>
	<g>
		<g>
			<path class="st1" d="M44.3,89L196.9,184c0.5,0.4,2.1,1.2,2.5,1.4c-0.2,0.5-0.4,0.6-0.6,0.6h-0.1c-0.1,0-0.4,0.1-0.5,0.1
				c-1,0-2.1-0.7-2.2-1L43.9,90.2L44.3,89 M44.3,88.8l-0.5,1.4L196,185.5c0.2,0.1,1.2,1,2.3,1c0.1,0,0.4,0,0.5-0.1
				c0.5-0.1,0.6,0,0.8-0.8c0,0-2.1-1.1-2.7-1.6L44.3,88.8L44.3,88.8z"/>
		</g>
	</g>
	<g>
		<polygon class="st1" points="203.9,162.6 56.5,77.8 56.6,77.7 204.1,162.5 		"/>
	</g>
	<g>
		<path class="st1" d="M202.6,219.4c-1,0-1.6-0.1-1.6-0.1l0.1-0.5c0,0,2.8,0.7,6.2-1.1c3.5-1.9,103.9-57.1,104.8-57.7l0,0
			c0,0,1.6-1.2,1.7-6.6c0.2-6.6,1.3-17.3,1.3-17.4h0.5c0,0.1-1.1,10.7-1.3,17.4c-0.2,5.7-1.9,7-1.9,7c-1.1,0.6-101.5,55.8-105,57.7
			C205.5,219.2,203.8,219.4,202.6,219.4z"/>
	</g>
	<g>
		<path class="st1" d="M201.2,196.8l-0.1-0.2l110.2-57.9c0,0,4.3-1.8,4.6-5.4h0.2c-0.2,3.7-4.7,5.6-4.7,5.6L201.2,196.8z"/>
	</g>
	<g>
		<path class="st1" d="M201.4,193l-0.1-0.2l110.2-56.9c0,0,4-1.6,4.2-4.7h0.2c-0.4,3.4-4.3,5-4.5,5L201.4,193z"/>
	</g>
	<g>
		<path class="st1" d="M201.5,188.7l-0.1-0.2L312.6,131c0,0,3.4-1.8,3.5-3.5h0.2c-0.1,1.8-3.5,3.6-3.6,3.7L201.5,188.7z"/>
	</g>
	<g>
		<path class="st1" d="M201.8,185.6l-0.1-0.2l108.5-55.7c0,0,5.9-2.9,6.2-5.9h0.2c-0.2,3.1-6,6-6.3,6.2L201.8,185.6z"/>
	</g>
	<g>
		<path class="st1" d="M203.2,180.3L203.2,180.3l-0.2-0.1c0.1-0.4,83.1-42.6,108.5-55.6c0,0,5.2-3,5.3-4.5h0.2
			c-0.1,1.7-5.2,4.6-5.4,4.7C310.5,125.4,204.2,179.5,203.2,180.3z"/>
	</g>
	<g>
		<path class="st1" d="M205.8,175.9l-0.1-0.2l105.4-54c4.8-1.9,5.8-4,5.9-4.3c0.1-0.2,0-0.4,0-0.4l0,0v-0.2c0.1,0,0.2,0,0.2,0.1
			c0.1,0.6-1,3-6,5L205.8,175.9z"/>
	</g>
	<g>
		<g>
			<path class="st1" d="M257.3,183.2l-2.3-1c-0.8-0.8-1.2-2.1-1.1-3.6c0.2-2.5,2.2-4.8,4.2-5.1l0,0l0,0l1.8,0.4v0.2l-1.8-0.4
				c-1.9,0.2-3.6,2.4-4,4.8c-0.1,1.3,0.2,2.7,1,3.4l2.2,1L257.3,183.2z"/>
		</g>
		<g>
			<path class="st1" d="M258.1,183.3c-0.7,0-1.3-0.2-1.8-0.7c-0.8-0.8-1.2-2.1-1-3.5c0.2-2.5,2.2-4.8,4.2-5.1
				c0.8-0.1,1.6,0.1,2.2,0.7c0.8,0.8,1.2,2.1,1,3.5c-0.2,2.5-2.2,4.8-4.2,5.1C258.3,183.3,258.2,183.3,258.1,183.3z M259.7,174.1
				c-0.1,0-0.2,0-0.4,0c-1.9,0.2-3.7,2.4-4,4.8c-0.1,1.3,0.1,2.5,1,3.4c0.5,0.5,1.2,0.7,1.9,0.7c1.9-0.2,3.7-2.4,4-4.8
				c0.1-1.3-0.1-2.5-1-3.4C261,174.4,260.5,174.1,259.7,174.1z"/>
		</g>
	</g>
	<g>
		<path class="st1" d="M267.5,173.7c-0.1,0-0.4-0.1-0.5-0.2c-0.2-0.2-0.2-0.5-0.2-0.8c0.1-0.6,0.5-1.2,1-1.2c0.2,0,0.4,0,0.5,0.2
			c0.2,0.2,0.2,0.5,0.2,0.8l0,0C268.4,173.1,268,173.6,267.5,173.7L267.5,173.7z M267.8,171.6L267.8,171.6c-0.5,0-0.8,0.5-1,1.1
			c0,0.4,0,0.6,0.2,0.7c0.1,0.1,0.2,0.1,0.4,0.1c0.4,0,0.8-0.5,0.8-1.1l0,0c0-0.4,0-0.6-0.2-0.7C268.1,171.7,268,171.6,267.8,171.6z
			"/>
	</g>
	<g>
		<path class="st1" d="M278.1,169.8c0.2,0.1,0.4,0.1,0.6,0.1l-0.7-0.4c-0.2-0.2-0.5-0.6-0.6-1C277.5,169.2,277.7,169.6,278.1,169.8z
			"/>
		<g>
			<path class="st1" d="M291.6,163.1c-0.2,0-0.4,0-0.6,0.1l-6.5,3.6c0,0.1-0.1,0.2-0.1,0.4l6.8-3.7c0.1-0.1,0.2-0.1,0.4,0
				c0.1,0,0.2,0.1,0.2,0.2c0.1,0.2,0,0.6-0.2,0.7l-8,4.3c-0.1,0.1-0.2,0.4-0.4,0.5l8.3-4.6c0.4-0.2,0.5-0.6,0.2-1
				C292,163.4,291.9,163.2,291.6,163.1z"/>
			<path class="st1" d="M292.7,154.2c-0.1-0.1-0.2-0.2-0.5-0.4c-0.2,0-0.4,0-0.6,0.1l-12,6.5c-2.1,1.1-3.7,4.2-3.7,7
				c0,1.6,0.6,2.8,1.6,3.4c0.4,0.2,0.8,0.4,1.3,0.4c0.5,0,1.1-0.1,1.7-0.5l0.2-0.1c-0.1,0-0.4,0-0.5,0c-1,0.5-1.8,0.5-2.7,0.1
				c-1-0.5-1.4-1.7-1.4-3.1c0-2.7,1.6-5.7,3.6-6.8l12-6.5c0.1,0,0.1-0.1,0.2-0.1h0.1c0.1,0,0.2,0.1,0.2,0.2c0.1,0.1,0.1,0.2,0,0.4
				c0,0.1-0.1,0.2-0.2,0.2l-12,6.5c-0.6,0.4-1.1,0.8-1.6,1.4c0.2-0.2,0.6-0.5,1-0.7c0.2-0.2,0.5-0.4,0.7-0.5l12-6.5
				c0.1-0.1,0.2-0.2,0.4-0.5C292.8,154.5,292.7,154.4,292.7,154.2z"/>
		</g>
	</g>
	<g>
		<path class="st1" d="M201.4,204.7l-0.1-0.2l40.5-21.7c0.7-0.4,1.3-1.4,1.3-2.4c0-0.5-0.1-0.8-0.5-1.1c-0.2-0.1-0.5-0.1-0.7,0
			l-40.5,21.7l-0.1-0.2l40.5-21.7c0.4-0.2,0.7-0.2,1,0c0.4,0.2,0.5,0.6,0.5,1.2c0,1.1-0.6,2.3-1.4,2.7L201.4,204.7z"/>
	</g>
	<g>
		<path class="st1" d="M201.4,218l-0.1-0.2l40-21.3c0.6-0.4,1.1-1.3,1.1-2.2c0-0.5-0.1-0.7-0.4-1c-0.2-0.1-0.4-0.1-0.6,0l-40.6,21.7
			l-0.1-0.2l40.6-21.6c0.4-0.1,0.6-0.2,0.8,0c0.4,0.2,0.5,0.6,0.5,1.1c0,1-0.6,2.1-1.3,2.4L201.4,218z"/>
	</g>
	<g>
		<path class="st1" d="M200.7,212.2l-0.1-0.2l37.3-20c0.6-0.4,1.1-1.3,1.1-2.2c0-0.5-0.1-0.7-0.4-1c-0.2-0.1-0.4-0.1-0.6,0
			L200.7,209l-0.1-0.2l37.3-20c0.4-0.1,0.6-0.2,0.8,0c0.4,0.2,0.5,0.6,0.5,1.1c0,1-0.6,2.1-1.3,2.4L200.7,212.2z"/>
	</g>
	<g>
		<path class="st1" d="M304.6,149.5c-0.1,0-0.2,0-0.4-0.1c-0.4-0.2-0.5-0.6-0.5-1.1c0-1,0.6-1.9,1.3-2.3l7.7-4c0,0,1.8-0.8,2.4-2.1
			l0.2,0.1c-0.6,1.2-2.4,2.1-2.5,2.2l-7.7,4c-0.6,0.4-1.2,1.3-1.2,2.2c0,0.4,0.1,0.7,0.4,0.8c0.2,0.1,0.5,0.1,0.7,0l7.7-4
			c0.6-0.4,2.2-1.6,2.4-3.1h0.2c-0.2,1.6-1.8,2.9-2.5,3.3l-7.7,4C304.8,149.5,304.7,149.5,304.6,149.5z"/>
	</g>
	<g>
		<path class="st1" d="M302.3,163.6c-0.1,0-0.2,0-0.4-0.1c-0.2-0.1-0.5-0.6-0.5-1.1c0-1,0.6-2.1,1.3-2.4l8-4.5c0,0,2.4-1,3.1-3.4
			l0.2,0.1c-0.7,2.5-3.3,3.6-3.3,3.6l-8,4.5c-0.6,0.4-1.2,1.3-1.2,2.2c0,0.4,0.1,0.7,0.4,0.8c0.2,0.1,0.5,0.1,0.7-0.1l8.7-5
			c0.7-0.4,2.5-2.5,2.5-3.4h0.2c0,1-1.9,3.1-2.7,3.6l-8.7,5C302.6,163.5,302.4,163.6,302.3,163.6z"/>
	</g>
	<g>
		<path class="st1" d="M306.5,155c-0.1,0-0.2,0-0.4-0.1c-0.4-0.2-0.5-0.6-0.5-1.1c0-1,0.6-1.9,1.3-2.3l4.5-2.8c0,0,2.5-1.3,3-2.4
			l0.2,0.1c-0.6,1.2-3,2.5-3.1,2.5l-4.5,2.8c-0.6,0.4-1.2,1.3-1.2,2.2c0,0.4,0.1,0.7,0.4,0.8c0.2,0.1,0.5,0.1,0.7,0l4.5-2.8
			c1-0.5,3-1.8,3-2.5h0.2c0,1.1-3.1,2.8-3.1,2.8l-4.5,2.8C306.8,155,306.7,155,306.5,155z"/>
	</g>
	<g>
		<path class="st1" d="M214.5,197.5L214.5,197.5l-3-0.5c0,0-0.1,0-0.1-0.1v-1.6c0,0,0-0.1,0.1-0.1c0,0,0.1,0,0.1,0.1v1.4l2.9,0.4
			C214.5,197.4,214.5,197.4,214.5,197.5L214.5,197.5z"/>
	</g>
	<g>
		<path class="st1" d="M214.1,204.8L214.1,204.8l-3-0.5c0,0-0.1,0-0.1-0.1v-1.1c0,0,0-0.1,0.1-0.1c0,0,0.1,0,0.1,0.1v1l2.9,0.4
			C214.1,204.7,214.2,204.7,214.1,204.8C214.2,204.8,214.1,204.8,214.1,204.8z"/>
	</g>
	<g>
		<path class="st1" d="M214.1,211.1L214.1,211.1l-3-0.5c0,0-0.1,0-0.1-0.1v-1.2c0,0,0-0.1,0.1-0.1c0,0,0.1,0,0.1,0.1v1.1l2.9,0.4
			C214.1,210.9,214.2,210.9,214.1,211.1C214.2,211.1,214.1,211.1,214.1,211.1z"/>
	</g>
	<g>
		<path class="st1" d="M214.5,189.7L214.5,189.7l-3-0.5c0,0-0.1,0-0.1-0.1v-1.6c0,0,0-0.1,0.1-0.1c0,0,0.1,0,0.1,0.1v1.4l2.9,0.4
			C214.5,189.6,214.5,189.6,214.5,189.7L214.5,189.7z"/>
	</g>
	<g>
		<path class="st1" d="M213.8,182.3L213.8,182.3l-2.4-0.5c0,0,0,0,0-0.1v-1.6c0,0,0-0.1,0.1-0.1c0,0,0.1,0,0.1,0.1v1.4l2.3,0.4
			C213.8,182.1,213.8,182.2,213.8,182.3C213.8,182.2,213.8,182.3,213.8,182.3z"/>
	</g>
	<g>
		<path class="st1" d="M213.8,174.7L213.8,174.7l-2.4-0.4c0,0-0.1,0-0.1-0.1V173c0,0,0-0.1,0.1-0.1c0,0,0.1,0,0.1,0.1v1.2l2.3,0.4
			C213.8,174.6,213.8,174.6,213.8,174.7L213.8,174.7z"/>
	</g>
	<g>
		<polygon class="st1" points="308.5,160.2 308.5,160.1 305.6,158.5 305.8,158.4 308.4,160 308.7,156.7 308.8,156.7 		"/>
	</g>
	<g>
		<polygon class="st1" points="309,153.7 306.4,152.1 306.4,152 308.9,153.5 309.1,150.2 309.3,150.2 		"/>
	</g>
	<g>
		<polygon class="st1" points="309.5,147.1 309.4,147.1 306.5,145.4 306.5,145.2 309.4,146.8 309.6,143.7 309.7,143.7 		"/>
	</g>
	<g>
		<polygon class="st1" points="310,139.7 307.2,138.1 307.3,138 309.9,139.4 310.1,136.7 310.2,136.7 		"/>
	</g>
	<g>
		<polygon class="st1" points="310.6,132.4 308.1,130.9 308.1,130.8 310.4,132.2 310.6,129.4 310.7,129.4 		"/>
	</g>
	<g>
		<polygon class="st1" points="311.1,125.2 308.1,123.5 308.1,123.4 311,125 311.1,121.8 311.3,121.8 		"/>
	</g>
	<g>
		<polygon class="st1" points="239,190.9 235,190.5 235,190.3 239,190.7 		"/>
	</g>
	<g>
		<polygon class="st1" points="242.5,195.6 237.9,195.2 237.9,195 242.5,195.4 		"/>
	</g>
	<g>
		<polygon class="st1" points="243.2,181.6 238.4,181.1 238.4,180.9 243.2,181.4 		"/>
	</g>
	<g>
		<path class="st1" d="M201.5,187.2C201.5,187.2,201.5,187,201.5,187.2c-0.1-0.1-0.1-0.1,0-0.1l9.9-5.2h0.1v0.1L201.5,187.2
			L201.5,187.2z"/>
	</g>
	<g>
		<path class="st1" d="M204.1,178.5C204.1,178.5,204.1,178.3,204.1,178.5c-0.1-0.1-0.1-0.1,0-0.1l7.4-3.9h0.1v0.1L204.1,178.5
			C204.2,178.5,204.2,178.5,204.1,178.5z"/>
	</g>
	<g>
		<path class="st1" d="M201.5,194.5L201.5,194.5c-0.1-0.1-0.1-0.1,0-0.1l9.9-5.2h0.1v0.1L201.5,194.5L201.5,194.5z"/>
	</g>
	<g>
		<path class="st1" d="M201.5,202.3L201.5,202.3c-0.1-0.1-0.1-0.1,0-0.1l9.9-5.2h0.1v0.1L201.5,202.3L201.5,202.3z"/>
	</g>
	<g>
		<path class="st1" d="M201,210.3L201,210.3c-0.1-0.1-0.1-0.1,0-0.1l10.5-5.9h0.1v0.1L201,210.3L201,210.3z"/>
	</g>
	<g>
		<path class="st1" d="M200.7,216.7C200.7,216.7,200.7,216.6,200.7,216.7c-0.1-0.1-0.1-0.1,0-0.1l10.5-5.9h0.1v0.1L200.7,216.7
			L200.7,216.7z"/>
	</g>
	<g>
		<g>
			<path class="st1" d="M287,136.3l0.2-0.4c0.2-0.5,0.5-0.8,0.5-1.3v-0.5c0,0,0-0.1,3-1.7c1.3-0.7,3-1.6,3.1-1.6h0.1v0.1v0.6
				c0,0.5,0.1,0.6,0.4,0.7c0.1,0,0.1,0.1,0.2,0.1l0.1,0.1h-0.1L287,136.3z M287.9,134.1v0.4c0,0.6-0.1,1-0.5,1.4l6.9-3.6
				c0,0-0.1,0-0.1-0.1c-0.2-0.1-0.4-0.2-0.4-0.8v-0.5C293.1,131.2,288.2,133.8,287.9,134.1z"/>
		</g>
	</g>
	<g>
		<g>
			<g>
				<path class="st1" d="M234.7,163L234.7,163C234.6,163,234.6,163,234.7,163v-0.2c0.2-0.5,0.5-0.8,0.5-1.3v-0.5c0,0,0-0.1,3-1.7
					c1.3-0.7,3-1.6,3.1-1.6l0,0l0,0v0.6c0,0.5,0.1,0.6,0.4,0.7c0.1,0,0.1,0.1,0.2,0.1c0,0,0,0,0,0.1l0,0L234.7,163L234.7,163z
					 M235.3,160.9v0.4c0,0.6-0.1,1-0.5,1.4l6.9-3.6c0,0-0.1,0-0.1-0.1c-0.2-0.1-0.4-0.2-0.4-0.8v-0.5
					C240.5,158,235.8,160.7,235.3,160.9z"/>
			</g>
		</g>
		<g>
			<path class="st1" d="M234.7,163L234.7,163l-2.1-1c0,0,0,0,0-0.1h0.1l2.1,1C234.7,162.9,234.9,163,234.7,163L234.7,163z"/>
		</g>
	</g>
	<g>
		<g>
			<g>
				<path class="st1" d="M261.6,149.5L261.6,149.5C261.6,149.5,261.6,149.4,261.6,149.5v-0.2c0.2-0.5,0.5-0.8,0.5-1.3v-0.5
					c0,0,0-0.1,3-1.7c1.3-0.7,3-1.6,3.1-1.6l0,0l0,0v0.6c0,0.5,0.1,0.6,0.4,0.7c0.1,0,0.1,0.1,0.2,0.1c0,0,0,0,0,0.1l0,0
					L261.6,149.5L261.6,149.5z M262.3,147.4v0.4c0,0.6-0.1,1-0.5,1.4l6.9-3.6c0,0-0.1,0-0.1-0.1c-0.2-0.1-0.4-0.2-0.4-0.8v-0.5
					C267.5,144.5,262.6,147.2,262.3,147.4z"/>
			</g>
		</g>
		<g>
			<path class="st1" d="M261.6,149.5L261.6,149.5l-2.1-1c0,0,0,0,0-0.1h0.1l2.1,1C261.7,149.4,261.7,149.4,261.6,149.5
				C261.7,149.5,261.6,149.5,261.6,149.5z"/>
		</g>
	</g>
	<g>
		<g>
			<g>
				<path class="st1" d="M273.2,150.7L273.2,150.7C273.2,150.7,273.2,150.6,273.2,150.7v-0.2c0.2-0.5,0.5-0.8,0.5-1.3v-0.5
					c0,0,0-0.1,3-1.7c1.3-0.7,3-1.6,3.1-1.6l0,0l0,0v0.6c0,0.5,0.1,0.6,0.4,0.7c0.1,0,0.1,0.1,0.2,0.1c0,0,0,0,0,0.1l0,0
					L273.2,150.7L273.2,150.7z M273.9,148.6v0.4c0,0.6-0.1,1-0.5,1.4l6.9-3.6c0,0-0.1,0-0.1-0.1c-0.2-0.1-0.4-0.2-0.4-0.8v-0.5
					C279.1,145.7,274.2,148.4,273.9,148.6z"/>
			</g>
		</g>
		<g>
			<path class="st1" d="M273.2,150.7L273.2,150.7l-2.1-1c0,0,0,0,0-0.1h0.1l2.1,1C273.3,150.6,273.3,150.6,273.2,150.7
				C273.3,150.7,273.3,150.7,273.2,150.7z"/>
		</g>
	</g>
	<g>
		<g>
			<g>
				<path class="st1" d="M263.5,163L263.5,163L263.5,163v-0.2c0.2-0.5,0.5-0.8,0.5-1.3v-0.5c0,0,0-0.1,3-1.7c1.3-0.7,3-1.6,3.1-1.6
					l0,0l0,0v0.6c0,0.5,0.1,0.6,0.4,0.7c0.1,0,0.1,0.1,0.2,0.1c0,0,0,0,0,0.1l0,0L263.5,163C263.6,163,263.5,163,263.5,163z
					 M264.2,160.9v0.4c0,0.6-0.1,1-0.5,1.4l6.9-3.6c0,0-0.1,0-0.1-0.1c-0.2-0.1-0.4-0.2-0.4-0.8v-0.5
					C269.4,158,264.6,160.7,264.2,160.9z"/>
			</g>
		</g>
		<g>
			<path class="st1" d="M263.5,163L263.5,163l-2.1-1c0,0,0,0,0-0.1h0.1l2.1,1C263.6,162.9,263.6,163,263.5,163
				C263.6,163,263.6,163,263.5,163z"/>
		</g>
	</g>
	<g>
		<g>
			<g>
				<path class="st1" d="M229.6,173.3L229.6,173.3C229.6,173.1,229.6,173.1,229.6,173.3V173c0.2-0.5,0.5-0.8,0.5-1.3v-0.5
					c0,0,0-0.1,3-1.7c1.3-0.7,3-1.6,3.1-1.6l0,0l0,0v0.6c0,0.5,0.1,0.6,0.4,0.7c0.1,0,0.1,0.1,0.2,0.1c0,0,0,0,0,0.1l0,0
					L229.6,173.3C229.7,173.3,229.7,173.3,229.6,173.3z M230.3,171.1v0.4c0,0.6-0.1,1-0.5,1.4l6.9-3.6c0,0-0.1,0-0.1-0.1
					c-0.2-0.1-0.4-0.2-0.4-0.8V168C235.5,168.3,230.6,170.8,230.3,171.1z"/>
			</g>
		</g>
		<g>
			<path class="st1" d="M229.6,173.3L229.6,173.3l-2.1-1c0,0,0,0,0-0.1h0.1l2.1,1C229.7,173.1,229.7,173.1,229.6,173.3
				C229.7,173.3,229.7,173.3,229.6,173.3z"/>
		</g>
	</g>
	<g>
		<g>
			<g>
				<path class="st1" d="M235.2,177.6L235.2,177.6C235.2,177.5,235.2,177.5,235.2,177.6v-0.2c0.2-0.5,0.5-0.7,0.5-1.3v-0.5
					c0,0,0-0.1,3-1.7c1.3-0.7,3-1.6,3.1-1.6l0,0l0,0v0.6c0,0.5,0.1,0.6,0.4,0.7c0.1,0,0.1,0.1,0.2,0.1c0,0,0,0,0,0.1l0,0
					L235.2,177.6C235.3,177.6,235.2,177.6,235.2,177.6z M236,175.6v0.4c0,0.6-0.1,1-0.5,1.4l6.9-3.6c0,0-0.1,0-0.1-0.1
					c-0.2-0.1-0.4-0.2-0.4-0.8v-0.5C241.1,172.7,236.3,175.2,236,175.6z"/>
			</g>
		</g>
		<g>
			<path class="st1" d="M235.2,177.6L235.2,177.6l-2.1-1c0,0,0,0,0-0.1h0.1l2.1,1C235.3,177.5,235.3,177.5,235.2,177.6
				C235.3,177.6,235.3,177.6,235.2,177.6z"/>
		</g>
	</g>
	<g>
		<g>
			<g>
				<path class="st1" d="M293.6,147.4C293.4,147.4,293.4,147.4,293.6,147.4C293.4,147.4,293.4,147.4,293.6,147.4v-0.2
					c0.2-0.5,0.5-0.8,0.5-1.3v-0.5c0,0,0-0.1,3-1.7c1.3-0.7,3-1.6,3.1-1.6l0,0l0,0v0.6c0,0.5,0.1,0.6,0.4,0.7c0.1,0,0.1,0.1,0.2,0.1
					c0,0,0,0,0,0.1l0,0L293.6,147.4L293.6,147.4z M294.2,145.4v0.4c0,0.6-0.1,1-0.5,1.4l6.9-3.6c0,0-0.1,0-0.1-0.1
					c-0.2-0.1-0.4-0.2-0.4-0.8v-0.5C299.4,142.5,294.5,145.1,294.2,145.4z"/>
			</g>
		</g>
		<g>
			<path class="st1" d="M293.6,147.4C293.6,147.4,293.4,147.4,293.6,147.4l-2.1-1c0,0,0,0,0-0.1h0.1l2.1,1
				C293.6,147.3,293.6,147.4,293.6,147.4L293.6,147.4z"/>
		</g>
	</g>
	<g>
		<g>
			<path class="st1" d="M254.3,189.4v-3.5l0.7-0.4v0.1l0.5,1.9l0.6-2.5l0.7-0.4v3.5l-0.6,0.4v-1.8l-0.5,2.1l-0.5,0.2V189l-0.5-1.6
				v1.9L254.3,189.4z M254.6,186.1v3.1l0.4-0.1v-2.3l0.1-0.1v0.1l0.6,1.9l0.2-0.1l0.6-2.5h0.1v0.1v2.2l0.4-0.1v-3.4l-0.5,0.2
				l-0.6,2.8h-0.1v-0.1l-0.6-2.1L254.6,186.1z"/>
		</g>
		<g>
			<path class="st1" d="M257.9,187.6c-0.1,0-0.2,0-0.4-0.1c-0.2-0.2-0.4-0.5-0.4-1v-0.6c0-0.4,0.1-0.8,0.2-1.2
				c0.2-0.4,0.5-0.6,0.7-0.8c0.4-0.1,0.6-0.1,0.8,0c0.2,0.2,0.4,0.5,0.4,1v0.6c0,0.4-0.1,0.8-0.2,1.2c-0.2,0.4-0.5,0.6-0.7,0.8
				C258.3,187.6,258.1,187.6,257.9,187.6z M258.8,184c-0.1,0-0.2,0-0.4,0.1c-0.2,0.1-0.5,0.4-0.7,0.7c-0.1,0.4-0.2,0.7-0.2,1.1v0.6
				c0,0.4,0.1,0.7,0.2,0.8c0.1,0.1,0.4,0.1,0.6,0c0.2-0.1,0.5-0.4,0.7-0.7c0.2-0.4,0.2-0.7,0.2-1.1V185c0-0.4-0.1-0.6-0.2-0.8
				C258.9,184,258.9,184,258.8,184z M258.2,187c-0.1,0-0.2-0.1-0.2-0.1c-0.1-0.1-0.1-0.4-0.1-0.6v-0.6c0-0.2,0-0.5,0.1-0.7
				c0.1-0.2,0.2-0.4,0.4-0.5c0.2-0.1,0.4,0,0.5,0.1c0.1,0.1,0.1,0.4,0.1,0.6v0.6c0,0.2,0,0.5-0.1,0.7c-0.1,0.2-0.2,0.4-0.5,0.5
				C258.3,187,258.2,187,258.2,187z M258.5,184.6h-0.1c-0.1,0.1-0.2,0.2-0.4,0.4c-0.1,0.2-0.1,0.5-0.1,0.7v0.6c0,0.2,0,0.5,0.1,0.5
				c0,0.1,0.1,0.1,0.2,0s0.2-0.2,0.4-0.4c0.1-0.2,0.1-0.5,0.1-0.7v-0.6C258.8,184.9,258.8,184.7,258.5,184.6
				C258.7,184.6,258.7,184.6,258.5,184.6z"/>
		</g>
		<g>
			<path class="st1" d="M259.6,186.8v-3.5l0.8-0.5c0.4-0.1,0.6-0.1,0.8,0c0.2,0.1,0.4,0.5,0.4,1v0.6c0,0.4-0.1,0.8-0.2,1.2
				c-0.2,0.4-0.5,0.6-0.7,0.7L259.6,186.8z M259.9,183.4v3.1l0.7-0.4c0.2-0.1,0.5-0.4,0.7-0.7c0.2-0.4,0.2-0.7,0.2-1.1v-0.6
				c0-0.4-0.1-0.6-0.2-0.8c-0.1-0.1-0.4-0.1-0.6,0L259.9,183.4z M260.2,186.1v-2.4l0.4-0.2c0.2-0.1,0.4,0,0.5,0.1
				c0.1,0.1,0.1,0.4,0.1,0.6v0.6c0,0.2,0,0.5-0.1,0.7c-0.1,0.2-0.2,0.4-0.4,0.5L260.2,186.1z M260.3,183.7v2.2l0.2-0.1
				c0.1-0.1,0.2-0.2,0.4-0.4c0.1-0.2,0.1-0.5,0.1-0.7V184c0-0.2,0-0.4-0.1-0.5c0-0.1-0.1-0.1-0.2,0L260.3,183.7z"/>
		</g>
		<g>
			<path class="st1" d="M261.9,185.7v-3.5l0,0l1.7-0.8v0.7l0,0l-1,0.5v0.7l0.8-0.5v0.7l-0.8,0.5v0.8l1.1-0.5v0.7l0,0L261.9,185.7z
				 M262,182.3v3.1l1.4-0.7v-0.4l-1.1,0.5v-1.1l0.8-0.5v-0.4l-0.8,0.5v-1l0,0l1-0.5v-0.4L262,182.3z"/>
		</g>
	</g>
	<g>
		<g>
			<path class="st1" d="M280,170.7l-2.1-1c-0.7-0.7-1.1-1.9-1-3.3c0.2-2.3,2.1-4.5,3.9-4.7l0,0l0,0l1.7,0.4v0.2l-1.7-0.4
				c-1.7,0.2-3.4,2.2-3.6,4.5c-0.1,1.2,0.1,2.4,0.8,3l2.1,0.8L280,170.7z"/>
		</g>
		<g>
			<path class="st1" d="M280.6,170.7c-0.6,0-1.2-0.2-1.7-0.7c-0.7-0.7-1.1-1.9-0.8-3.3c0.2-2.3,2.1-4.5,3.9-4.7
				c0.7-0.1,1.4,0.1,2.1,0.7c0.7,0.7,1.1,1.9,0.8,3.3c-0.2,2.3-2.1,4.5-3.9,4.7C280.9,170.7,280.8,170.7,280.6,170.7z M282.2,162.4
				c-0.1,0-0.2,0-0.2,0c-1.7,0.2-3.4,2.2-3.6,4.5c-0.1,1.2,0.1,2.4,0.8,3c0.5,0.5,1.1,0.7,1.8,0.6c1.7-0.2,3.4-2.2,3.6-4.5
				c0.1-1.2-0.1-2.4-0.8-3C283.4,162.6,282.8,162.4,282.2,162.4z"/>
		</g>
	</g>
	<g>
		<path class="st0" d="M92.7,142.9c-0.4,0-0.7-0.5-0.7-1.1s0.4-1.1,0.7-1.1c0.4,0,0.7,0.5,0.7,1.1S93.1,142.9,92.7,142.9z M92.7,141
			c-0.4,0-0.6,0.4-0.6,0.8s0.2,0.8,0.6,0.8s0.6-0.4,0.6-0.8S93.1,141,92.7,141z"/>
	</g>
	<g>
		<path class="st0" d="M115.7,157.1c-0.4,0-0.7-0.5-0.7-1.1c0-0.6,0.4-1.1,0.7-1.1c0.4,0,0.7,0.5,0.7,1.1
			C116.4,156.6,116.1,157.1,115.7,157.1z M115.7,155.1c-0.4,0-0.6,0.4-0.6,0.8s0.2,0.8,0.6,0.8s0.6-0.4,0.6-0.8
			S116,155.1,115.7,155.1z"/>
	</g>
	<g>
		<path class="st0" d="M138.2,171.9c-0.4,0-0.7-0.5-0.7-1.1s0.4-1.1,0.7-1.1c0.4,0,0.7,0.5,0.7,1.1S138.6,171.9,138.2,171.9z
			 M138.2,170c-0.4,0-0.6,0.4-0.6,0.8c0,0.5,0.2,0.8,0.6,0.8c0.4,0,0.6-0.4,0.6-0.8C138.8,170.4,138.5,170,138.2,170z"/>
	</g>
	<g>
		<path class="st1" d="M218.1,160.6l-0.1-0.1c0.6-0.4,63.7-32.9,86.7-43.4c8.7-4,13.2-7.9,13.2-11.5s-4.5-5.7-4.5-5.7v-0.1
			c0,0,4.6,2.2,4.6,5.8c0,3.7-4.5,7.6-13.3,11.6C281.7,127.7,218.7,160.2,218.1,160.6z"/>
	</g>
	<path class="st1" d="M264.1,170.7c-0.6-0.4-1.4-0.4-2.3,0.1l-4.5,2.7c-1.9,1.1-3.5,4.1-3.5,6.8c0,1.4,0.5,2.5,1.3,3
		c0.2,0.1,0.6,0.2,1,0.2c0.5,0,1-0.1,1.3-0.4l0.2-0.1c-0.1,0-0.2,0-0.4-0.1c-0.7,0.5-1.4,0.5-2.1,0.1c-0.7-0.5-1.2-1.4-1.2-2.8
		c0-2.5,1.4-5.6,3.4-6.6l4.5-2.7c0.5-0.2,0.8-0.4,1.2-0.4C263.4,170.6,263.7,170.7,264.1,170.7c0.6,0.6,1.1,1.6,1.1,2.9
		c0,2.5-1.4,5.4-3.3,6.5c-0.1,0.1-0.1,0.2-0.2,0.4l0.2-0.1c1.9-1.1,3.5-4.1,3.5-6.8C265.3,172.3,264.8,171.2,264.1,170.7z"/>
	<path class="st1" d="M281.7,170.7l0.4-0.2c0.1-0.1,0.1-0.2,0.2-0.4c-0.1,0-0.1,0.1-0.2,0.1c0,0,0,0.1-0.1,0.1l-0.6,0.4h0.1
		c0.6,0.2,1,0.7,1,1.4c0,1.1-0.8,2.2-1.8,2.4c-0.5,0.1-0.8,0-1.2-0.2c-0.4-0.2-0.6-0.7-0.6-1.3c0-0.1,0.1-0.4,0.2-0.4l0,0h0.1
		l0.1,0.1c0,0.4,0.1,0.7,0.4,1c0.2,0.2,0.6,0.2,1,0.1c0.7-0.2,1.3-1,1.3-1.8c0-0.6-0.4-1.1-1-1.1h-0.1l0.4,1c0,0.1,0,0.4-0.1,0.4
		c0,0,0,0-0.1,0s-0.1,0-0.2-0.1l-0.5-1.3c0-0.1,0-0.4,0.1-0.4l0.4-0.2c-0.1,0-0.1,0-0.2,0l-0.2,0.1c-0.2,0.1-0.2,0.4-0.2,0.6
		l0.5,1.3c0,0.1,0.2,0.2,0.4,0.1c0,0,0.1,0,0.1-0.1c0.2-0.1,0.2-0.4,0.2-0.6L281,171c0.5,0.1,0.7,0.5,0.7,1c0,0.7-0.5,1.4-1.2,1.7
		c-0.2,0.1-0.6,0-0.8-0.1c-0.2-0.2-0.4-0.5-0.4-0.8c0-0.1,0-0.2-0.1-0.2s-0.1-0.1-0.2,0c-0.2,0-0.4,0.2-0.4,0.5
		c0,0.6,0.2,1.1,0.6,1.3c0.2,0.2,0.6,0.2,0.8,0.2c0.1,0,0.2,0,0.5-0.1c1.1-0.2,1.9-1.4,1.9-2.7C282.6,171.6,282.2,171,281.7,170.7z"
		/>
</g>
</svg>
