<?xml version="1.0" encoding="utf-8"?>
<!-- Generator: Adobe Illustrator 22.1.0, SVG Export Plug-In . SVG Version: 6.00 Build 0)  -->
<svg version="1.0" id="Layer_1" xmlns="http://www.w3.org/2000/svg" xmlns:xlink="http://www.w3.org/1999/xlink" x="0px" y="0px"
	 viewBox="0 0 366 255.1" enable-background="new 0 0 366 255.1" xml:space="preserve">
<g>
	<path fill="none" stroke="#22F3BA" stroke-width="2" stroke-miterlimit="10" d="M61.7,181.8c-0.1-12.8-0.4-44.9-0.9-62.4
		c-0.7-20.3-2.1-77.2-2.4-86.8c0-0.8-0.7-1.3-1.4-1.3l-5.4,0.5c-0.7,0.1-1.2,0.6-1.2,1.3v166c0,0,3.8,1.2,4.1-3
		c0.2-2.3,0.2-3.9,0.1-5c-0.1-1.1,0.4-2.2,1.3-3c0.7-0.6,1.6-1,2.5-0.7l0-4.9L61.7,181.8z"/>
	<line fill="none" stroke="#22F3BA" stroke-width="2" stroke-miterlimit="10" x1="160.9" y1="171" x2="151" y2="172.1"/>
	<path fill="none" stroke="#22F3BA" stroke-width="2" stroke-miterlimit="10" d="M138.4,173.5l-80.1,8.9v31.5l62,24.3l183.6-22v-2.9
		l0,0c-0.9-0.5-1.5-1.4-1.4-2.4l0.2-23l-0.3-3.8l-64.9-21.6l-65.5,7.2"/>
	<line fill="none" stroke="#22F3BA" stroke-width="2" stroke-miterlimit="10" x1="120.3" y1="238.1" x2="120.3" y2="207.3"/>
	<line fill="none" stroke="#22F3BA" stroke-width="2" stroke-miterlimit="10" x1="58.3" y1="182.8" x2="120.3" y2="207.3"/>
	<path fill="none" stroke="#22F3BA" stroke-width="2" stroke-miterlimit="10" d="M138,205.1c-5.7,1-11.7,2-17.7,2.2"/>
	<path fill="none" stroke="#22F3BA" stroke-width="2" stroke-miterlimit="10" d="M160.2,202.4c-2.8,0.3-5.5,0.7-8.3,1"/>
	<path fill="none" stroke="#22F3BA" stroke-width="2" stroke-miterlimit="10" d="M302.8,184.6c-33.9,4.4-66.7,8.5-100.6,12.7
		c-9.6,1.2-19.2,2.4-28.9,3.5"/>
	<path fill="none" stroke="#22F3BA" stroke-width="2" stroke-miterlimit="10" d="M58.3,199.2c0,0-4.5-0.8-3.7-6.5
		c0.8-5.7,3.7-4.9,3.7-4.9"/>
	<path fill="none" stroke="#22F3BA" stroke-width="2" stroke-miterlimit="10" d="M70.7,181V31.4c0-0.8,0.6-1.4,1.3-1.5l4.7-0.7
		c0.9-0.1,1.7,0.5,1.7,1.5c0.5,13,3.3,97.9,3.6,149.1L70.7,181z"/>
	<path fill="none" stroke="#22F3BA" stroke-width="2" stroke-miterlimit="10" d="M190,167.8l0.9-147.2c0-0.5,0.3-0.8,0.8-0.9
		l5.8-0.7c0.5-0.1,1,0.3,1,0.9c0.4,11.2,3.7,113,2.8,146.8L190,167.8z"/>
	<path fill="none" stroke="#22F3BA" stroke-width="2" stroke-miterlimit="10" d="M209.5,165.6L210.6,19c0-0.6,0.4-1.1,1-1.1l5-0.6
		c0.7-0.1,1.3,0.4,1.3,1.1c0.4,13.6,4.3,134.1,2.6,146.1L209.5,165.6z"/>
	<path fill="none" stroke="#22F3BA" stroke-width="2" stroke-miterlimit="10" d="M162.8,57.7l-2.9,172.5c0,0,0.9,1.5,6.7,1.1
		c5.8-0.4,5.3-1.3,5.3-1.3s0.5-159.1-0.9-172.7c-0.1-0.5-0.5-0.9-1-0.9l-6.3,0.4C163.2,56.8,162.8,57.2,162.8,57.7z"/>
	<polygon fill="none" stroke="#22F3BA" stroke-width="0.5" stroke-miterlimit="10" points="193.3,217.6 188.1,218 188.1,205.9 
		193.3,205.4 	"/>
	<polygon fill="none" stroke="#22F3BA" stroke-width="0.5" stroke-miterlimit="10" points="212.7,215.9 199.7,217.5 199.7,214.8 
		212.7,213.2 	"/>
	<polygon fill="none" stroke="#22F3BA" stroke-width="0.5" stroke-miterlimit="10" points="233.4,218.9 216.9,220.8 216.9,217.5 
		233.4,215.6 	"/>
	<polygon fill="none" stroke="#22F3BA" stroke-width="0.5" stroke-miterlimit="10" points="257.7,216.2 241.2,218.1 241.2,214.7 
		257.7,212.9 	"/>
	<circle fill="none" stroke="#22F3BA" stroke-width="0.5" stroke-miterlimit="10" cx="235.7" cy="215.8" r="1.1"/>
	<circle fill="none" stroke="#22F3BA" stroke-width="0.5" stroke-miterlimit="10" cx="260" cy="212.9" r="1.1"/>
	<circle fill="none" stroke="#22F3BA" stroke-width="0.5" stroke-miterlimit="10" cx="266.4" cy="202.3" r="1.5"/>
	<circle fill="none" stroke="#22F3BA" stroke-width="0.5" stroke-miterlimit="10" cx="176.3" cy="213" r="1.6"/>
	<circle fill="none" stroke="#22F3BA" stroke-width="0.5" stroke-miterlimit="10" cx="176.3" cy="217.9" r="1.6"/>
	<circle fill="none" stroke="#22F3BA" stroke-width="0.5" stroke-miterlimit="10" cx="183.3" cy="217" r="1.6"/>
	<circle fill="none" stroke="#22F3BA" stroke-width="0.5" stroke-miterlimit="10" cx="183.3" cy="212.2" r="1.6"/>
	<circle fill="none" stroke="#22F3BA" stroke-width="0.5" stroke-miterlimit="10" cx="266.6" cy="207.1" r="1.5"/>
	<circle fill="none" stroke="#22F3BA" stroke-width="0.5" stroke-miterlimit="10" cx="274.1" cy="201.5" r="1.5"/>
	<circle fill="none" stroke="#22F3BA" stroke-width="0.5" stroke-miterlimit="10" cx="274.3" cy="206.1" r="1.5"/>
	<circle fill="none" stroke="#22F3BA" stroke-width="0.5" stroke-miterlimit="10" cx="279.2" cy="200.9" r="1.5"/>
	<circle fill="none" stroke="#22F3BA" stroke-width="0.5" stroke-miterlimit="10" cx="279.4" cy="205.5" r="1.5"/>
	<circle fill="none" stroke="#22F3BA" stroke-width="0.5" stroke-miterlimit="10" cx="284.3" cy="200.2" r="1.5"/>
	<circle fill="none" stroke="#22F3BA" stroke-width="0.5" stroke-miterlimit="10" cx="284.6" cy="204.8" r="1.5"/>
	<rect x="190.7" y="205.6" fill="none" stroke="#22F3BA" stroke-width="0.5" stroke-miterlimit="10" width="1.1" height="12.1"/>
	<rect x="159.2" y="218.8" fill="none" stroke="#22F3BA" stroke-width="0.5" stroke-miterlimit="10" width="0.9" height="7.9"/>
	<path fill="none" stroke="#22F3BA" stroke-width="2" stroke-miterlimit="10" d="M308.6,43.3c-0.7,0.1-1.2,0.6-1.2,1.3
		c-0.5,14.8-6.1,165.4-4.8,167.5c0,0-0.5,2.6,11,1.1c0.4,0,0.6-0.4,0.6-0.7c0.2-10.6,2.3-152.6,1-168.4c-0.1-0.7-0.7-1.3-1.5-1.2
		L308.6,43.3z"/>
	<path opacity="0.8" fill="none" stroke="#22F3BA" stroke-width="0.5" stroke-miterlimit="10" d="M62.2,191.7v0.4
		c0,0.3,0.2,0.6,0.5,0.7l4.5,1.7c0.5,0.2,1-0.2,1-0.7v-0.4c0-0.3-0.2-0.6-0.5-0.7l-4.5-1.7C62.7,190.9,62.2,191.2,62.2,191.7z"/>
	<path opacity="0.8" fill="none" stroke="#22F3BA" stroke-width="0.5" stroke-miterlimit="10" d="M69.3,194.4v0.4
		c0,0.3,0.2,0.6,0.5,0.7l2.5,1c0.5,0.2,1-0.2,1-0.7v-0.4c0-0.3-0.2-0.6-0.5-0.7l-2.5-1C69.8,193.5,69.3,193.9,69.3,194.4z"/>
	<path opacity="0.8" fill="none" stroke="#22F3BA" stroke-width="0.5" stroke-miterlimit="10" d="M74.8,196.5v0.4
		c0,0.3,0.2,0.6,0.5,0.7l4.2,1.7c0.5,0.2,1-0.2,1-0.7v-0.4c0-0.3-0.2-0.6-0.5-0.7l-4.2-1.6C75.3,195.6,74.8,196,74.8,196.5z"/>
	<path opacity="0.8" fill="none" stroke="#22F3BA" stroke-width="0.5" stroke-miterlimit="10" d="M81.6,199v0.4
		c0,0.3,0.2,0.6,0.5,0.7l2.7,1.1c0.5,0.2,1-0.2,1-0.7v-0.4c0-0.3-0.2-0.6-0.5-0.7l-2.7-1C82.1,198.2,81.6,198.5,81.6,199z"/>
	<path opacity="0.8" fill="none" stroke="#22F3BA" stroke-width="0.5" stroke-miterlimit="10" d="M86.8,201v0.4
		c0,0.3,0.2,0.6,0.5,0.7l4.7,1.8c0.5,0.2,1-0.2,1-0.7v-0.4c0-0.3-0.2-0.6-0.5-0.7l-4.7-1.8C87.3,200.1,86.8,200.5,86.8,201z"/>
	<path opacity="0.8" fill="none" stroke="#22F3BA" stroke-width="0.5" stroke-miterlimit="10" d="M94.1,203.7v0.4
		c0,0.3,0.2,0.6,0.5,0.7l2.7,1c0.5,0.2,1-0.2,1-0.7v-0.4c0-0.3-0.2-0.6-0.5-0.7l-2.7-1C94.6,202.9,94.1,203.2,94.1,203.7z"/>
	<path opacity="0.8" fill="none" stroke="#22F3BA" stroke-width="0.5" stroke-miterlimit="10" d="M99.3,205.8v0.4
		c0,0.3,0.2,0.6,0.5,0.7l4.7,1.8c0.5,0.2,1-0.2,1-0.7v-0.4c0-0.3-0.2-0.6-0.5-0.7l-4.7-1.8C99.8,204.9,99.3,205.2,99.3,205.8z"/>
	<path opacity="0.8" fill="none" stroke="#22F3BA" stroke-width="0.5" stroke-miterlimit="10" d="M106.7,208.5v0.4
		c0,0.3,0.2,0.6,0.5,0.7l2.7,1c0.5,0.2,1-0.2,1-0.7v-0.4c0-0.3-0.2-0.6-0.5-0.7l-2.7-1C107.2,207.6,106.7,208,106.7,208.5z"/>
	<path opacity="0.8" fill="none" stroke="#22F3BA" stroke-width="0.5" stroke-miterlimit="10" d="M64,198.6v0.4
		c0,0.3,0.2,0.6,0.5,0.7l4.5,1.7c0.5,0.2,1-0.2,1-0.7v-0.4c0-0.3-0.2-0.6-0.5-0.7l-4.5-1.7C64.5,197.7,64,198.1,64,198.6z"/>
	<path opacity="0.8" fill="none" stroke="#22F3BA" stroke-width="0.5" stroke-miterlimit="10" d="M71.1,201.3v0.4
		c0,0.3,0.2,0.6,0.5,0.7l2.5,1c0.5,0.2,1-0.2,1-0.7v-0.4c0-0.3-0.2-0.6-0.5-0.7l-2.5-1C71.6,200.4,71.1,200.7,71.1,201.3z"/>
	<path opacity="0.8" fill="none" stroke="#22F3BA" stroke-width="0.5" stroke-miterlimit="10" d="M76.6,203.3v0.4
		c0,0.3,0.2,0.6,0.5,0.7l4.2,1.7c0.5,0.2,1-0.2,1-0.7V205c0-0.3-0.2-0.6-0.5-0.7l-4.2-1.6C77.1,202.5,76.6,202.8,76.6,203.3z"/>
	<path opacity="0.8" fill="none" stroke="#22F3BA" stroke-width="0.5" stroke-miterlimit="10" d="M83.4,205.9v0.4
		c0,0.3,0.2,0.6,0.5,0.7l2.7,1.1c0.5,0.2,1-0.2,1-0.7v-0.4c0-0.3-0.2-0.6-0.5-0.7l-2.7-1C83.9,205,83.4,205.4,83.4,205.9z"/>
	<path opacity="0.8" fill="none" stroke="#22F3BA" stroke-width="0.5" stroke-miterlimit="10" d="M88.6,207.8v0.4
		c0,0.3,0.2,0.6,0.5,0.7l4.7,1.8c0.5,0.2,1-0.2,1-0.7v-0.4c0-0.3-0.2-0.6-0.5-0.7l-4.7-1.8C89.1,207,88.6,207.3,88.6,207.8z"/>
	<path opacity="0.8" fill="none" stroke="#22F3BA" stroke-width="0.5" stroke-miterlimit="10" d="M95.9,210.6v0.4
		c0,0.3,0.2,0.6,0.5,0.7l2.7,1c0.5,0.2,1-0.2,1-0.7v-0.4c0-0.3-0.2-0.6-0.5-0.7l-2.7-1C96.4,209.7,95.9,210.1,95.9,210.6z"/>
	<path opacity="0.8" fill="none" stroke="#22F3BA" stroke-width="0.5" stroke-miterlimit="10" d="M101.1,212.6v0.4
		c0,0.3,0.2,0.6,0.5,0.7l4.7,1.8c0.5,0.2,1-0.2,1-0.7v-0.4c0-0.3-0.2-0.6-0.5-0.7l-4.7-1.8C101.7,211.7,101.1,212.1,101.1,212.6z"/>
	<path opacity="0.8" fill="none" stroke="#22F3BA" stroke-width="0.5" stroke-miterlimit="10" d="M108.5,215.3v0.4
		c0,0.3,0.2,0.6,0.5,0.7l2.7,1c0.5,0.2,1-0.2,1-0.7v-0.4c0-0.3-0.2-0.6-0.5-0.7l-2.7-1C109,214.5,108.5,214.8,108.5,215.3z"/>
	<path opacity="0.8" fill="none" stroke="#22F3BA" stroke-width="0.5" stroke-miterlimit="10" d="M65.7,205.6v0.4
		c0,0.3,0.2,0.6,0.5,0.7l4.5,1.7c0.5,0.2,1-0.2,1-0.7v-0.4c0-0.3-0.2-0.6-0.5-0.7l-4.5-1.7C66.2,204.7,65.7,205.1,65.7,205.6z"/>
	<path opacity="0.8" fill="none" stroke="#22F3BA" stroke-width="0.5" stroke-miterlimit="10" d="M72.8,208.2v0.4
		c0,0.3,0.2,0.6,0.5,0.7l2.5,1c0.5,0.2,1-0.2,1-0.7v-0.4c0-0.3-0.2-0.6-0.5-0.7l-2.5-1C73.3,207.3,72.8,207.7,72.8,208.2z"/>
	<path opacity="0.8" fill="none" stroke="#22F3BA" stroke-width="0.5" stroke-miterlimit="10" d="M78.3,210.3v0.4
		c0,0.3,0.2,0.6,0.5,0.7L83,213c0.5,0.2,1-0.2,1-0.7v-0.4c0-0.3-0.2-0.6-0.5-0.7l-4.2-1.6C78.8,209.4,78.3,209.8,78.3,210.3z"/>
	<path opacity="0.8" fill="none" stroke="#22F3BA" stroke-width="0.5" stroke-miterlimit="10" d="M85.1,212.9v0.4
		c0,0.3,0.2,0.6,0.5,0.7l2.7,1.1c0.5,0.2,1-0.2,1-0.7v-0.4c0-0.3-0.2-0.6-0.5-0.7l-2.7-1C85.6,212,85.1,212.3,85.1,212.9z"/>
	<path opacity="0.8" fill="none" stroke="#22F3BA" stroke-width="0.5" stroke-miterlimit="10" d="M90.3,214.8v0.4
		c0,0.3,0.2,0.6,0.5,0.7l4.7,1.8c0.5,0.2,1-0.2,1-0.7v-0.4c0-0.3-0.2-0.6-0.5-0.7l-4.7-1.8C90.8,213.9,90.3,214.3,90.3,214.8z"/>
	<path opacity="0.8" fill="none" stroke="#22F3BA" stroke-width="0.5" stroke-miterlimit="10" d="M97.6,217.5v0.4
		c0,0.3,0.2,0.6,0.5,0.7l2.7,1c0.5,0.2,1-0.2,1-0.7v-0.4c0-0.3-0.2-0.6-0.5-0.7l-2.7-1C98.1,216.7,97.6,217,97.6,217.5z"/>
	<path opacity="0.8" fill="none" stroke="#22F3BA" stroke-width="0.5" stroke-miterlimit="10" d="M102.8,219.6v0.4
		c0,0.3,0.2,0.6,0.5,0.7l4.7,1.8c0.5,0.2,1-0.2,1-0.7v-0.4c0-0.3-0.2-0.6-0.5-0.7l-4.7-1.8C103.3,218.7,102.8,219.1,102.8,219.6z"/>
	<path opacity="0.8" fill="none" stroke="#22F3BA" stroke-width="0.5" stroke-miterlimit="10" d="M110.2,222.3v0.4
		c0,0.3,0.2,0.6,0.5,0.7l2.7,1c0.5,0.2,1-0.2,1-0.7v-0.4c0-0.3-0.2-0.6-0.5-0.7l-2.7-1C110.7,221.4,110.2,221.8,110.2,222.3z"/>
	<ellipse fill="none" stroke="#22F3BA" stroke-width="0.5" stroke-miterlimit="10" cx="107" cy="228.7" rx="1.1" ry="1.9"/>
	<ellipse fill="none" stroke="#22F3BA" stroke-width="0.5" stroke-miterlimit="10" cx="71.6" cy="214.9" rx="1.1" ry="1.9"/>
	<ellipse fill="none" stroke="#22F3BA" stroke-width="0.5" stroke-miterlimit="10" cx="175.8" cy="213" rx="1.2" ry="1.6"/>
	<ellipse fill="none" stroke="#22F3BA" stroke-width="0.5" stroke-miterlimit="10" cx="175.8" cy="217.9" rx="1.2" ry="1.6"/>
	<ellipse fill="none" stroke="#22F3BA" stroke-width="0.5" stroke-miterlimit="10" cx="183" cy="217" rx="1.3" ry="1.6"/>
	<ellipse fill="none" stroke="#22F3BA" stroke-width="0.5" stroke-miterlimit="10" cx="183" cy="212.2" rx="1.3" ry="1.6"/>
	<ellipse fill="none" stroke="#22F3BA" stroke-width="0.5" stroke-miterlimit="10" cx="265.9" cy="202.3" rx="1.1" ry="1.5"/>
	<ellipse fill="none" stroke="#22F3BA" stroke-width="0.5" stroke-miterlimit="10" cx="266.2" cy="207.1" rx="1.1" ry="1.5"/>
	<ellipse fill="none" stroke="#22F3BA" stroke-width="0.5" stroke-miterlimit="10" cx="273.8" cy="201.5" rx="1.2" ry="1.5"/>
	<ellipse fill="none" stroke="#22F3BA" stroke-width="0.5" stroke-miterlimit="10" cx="274.1" cy="206.1" rx="1.2" ry="1.5"/>
	<ellipse fill="none" stroke="#22F3BA" stroke-width="0.5" stroke-miterlimit="10" cx="278.9" cy="200.9" rx="1.2" ry="1.5"/>
	<ellipse fill="none" stroke="#22F3BA" stroke-width="0.5" stroke-miterlimit="10" cx="279.2" cy="205.5" rx="1.2" ry="1.5"/>
	<ellipse fill="none" stroke="#22F3BA" stroke-width="0.5" stroke-miterlimit="10" cx="284" cy="200.2" rx="1.2" ry="1.5"/>
	<ellipse fill="none" stroke="#22F3BA" stroke-width="0.5" stroke-miterlimit="10" cx="284.3" cy="204.8" rx="1.2" ry="1.5"/>
	<polyline fill="none" stroke="#22F3BA" stroke-width="0.5" stroke-miterlimit="10" points="138.5,221.4 138,221.4 138,228.9 
		138.9,229.2 	"/>
	<path fill="none" stroke="#22F3BA" stroke-width="0.5" stroke-miterlimit="10" d="M138.4,216.9c0,0-3.9-2-7.8-0.9
		c-3.9,1.1-3.5,5-3.5,5.8c0,0.8,0.5,2.9,3.8,4.9s7.9,3.3,7.9,3.3c-2.2-0.9-2.8-3.4-2.6-5.7c0.1-2.3,2.2-4.3,2.2-4.3"/>
	<path fill="none" stroke="#22F3BA" stroke-width="0.5" stroke-miterlimit="10" d="M150.6,223.2c2.7,2.1,6.1,3.4,9.3,4.3
		c-4.1-1.6-2.8-7.5-0.5-10"/>
	<path fill="none" stroke="#22F3BA" stroke-width="0.5" stroke-miterlimit="10" d="M159.5,214.4c-2.6-1.3-5.9-1.8-8.7-0.6"/>
	<path fill="none" stroke="#22F3BA" stroke-width="0.5" stroke-miterlimit="10" d="M133,227.5c0,0-2.5-3.2-0.6-7.2
		c1.9-4,5.7-3.3,5.7-3.3"/>
	<path fill="none" stroke="#22F3BA" stroke-width="0.5" stroke-miterlimit="10" d="M129.8,226.3c0,0-2.5-3.2-0.6-7.2
		c1.9-4,5.7-3.3,5.7-3.3"/>
	<path fill="none" stroke="#22F3BA" stroke-width="0.5" stroke-miterlimit="10" d="M130.7,226.6c0,0-2.5-3.2-0.6-7.2
		c1.9-4,5.7-3.3,5.7-3.3"/>
	<path fill="none" stroke="#22F3BA" stroke-width="0.5" stroke-miterlimit="10" d="M131.6,226.8c0,0-2.5-3.2-0.6-7.2
		c1.9-4,5.7-3.3,5.7-3.3"/>
	<path fill="none" stroke="#22F3BA" stroke-width="0.5" stroke-miterlimit="10" d="M154.2,225.1c0,0-2.5-3.2-0.6-7.2
		c1.9-4,5.7-3.3,5.7-3.3"/>
	<path fill="none" stroke="#22F3BA" stroke-width="0.5" stroke-miterlimit="10" d="M151.2,215.4c1.1-1.5,3-2.2,4.9-2"/>
	<path fill="none" stroke="#22F3BA" stroke-width="0.5" stroke-miterlimit="10" d="M151.9,224.3c0,0-2.5-3.2-0.6-7.2
		c1.9-4,5.7-3.3,5.7-3.3"/>
	<path fill="none" stroke="#22F3BA" stroke-width="0.5" stroke-miterlimit="10" d="M152.8,224.5c0,0-2.5-3.2-0.6-7.2
		c1.9-4,5.7-3.3,5.7-3.3"/>
	<path fill="none" stroke="#22F3BA" stroke-width="0.5" stroke-miterlimit="10" d="M302,197.9c0,0-4-1.9-8-0.9c-4,1-3.6,4.7-3.6,5.5
		c0,0.8,0.5,2.7,3.9,4.6c3.5,1.9,8.1,3.1,8.1,3.1c-2.3-0.8-2.8-3.2-2.7-5.3c0.1-2.5,2.6-4.4,2.6-4.4"/>
	<path fill="none" stroke="#22F3BA" stroke-width="0.5" stroke-miterlimit="10" d="M296.7,208c0,0-2.5-3-0.6-6.8
		c1.9-3.8,5.9-3.4,5.9-3.4"/>
	<path fill="none" stroke="#22F3BA" stroke-width="0.5" stroke-miterlimit="10" d="M293.6,206.8c0,0-2.5-3-0.6-6.8
		c1.9-3.8,5.7-3.1,5.7-3.1"/>
	<path fill="none" stroke="#22F3BA" stroke-width="0.5" stroke-miterlimit="10" d="M294.4,207.2c0,0-2.5-3-0.6-6.8s5.7-3.1,5.7-3.1"
		/>
	<path fill="none" stroke="#22F3BA" stroke-width="0.5" stroke-miterlimit="10" d="M295.3,207.3c0,0-2.5-3-0.6-6.8
		c1.9-3.8,5.7-3.1,5.7-3.1"/>
	<path fill="none" stroke="#22F3BA" stroke-width="2" stroke-miterlimit="10" d="M141.7,60.1c-0.5,15.9-5.2,161.8-2.5,172.1
		c0,0,3.9,2.7,11.7,0c0,0,0.4-155.1-1-172.5c-0.1-0.8-0.8-1.4-1.6-1.4l-5.1,0.2C142.4,58.7,141.7,59.3,141.7,60.1z"/>
	<line fill="none" stroke="#22F3BA" stroke-width="0.25" stroke-miterlimit="10" x1="216.9" y1="220.2" x2="233.4" y2="218.4"/>
	<line fill="none" stroke="#22F3BA" stroke-width="0.25" stroke-miterlimit="10" x1="241.2" y1="217.5" x2="257.7" y2="215.7"/>
</g>
</svg>
