<?xml version="1.0" encoding="utf-8"?>
<!-- Generator: Adobe Illustrator 23.0.2, SVG Export Plug-In . SVG Version: 6.00 Build 0)  -->
<svg version="1.1" id="Layer_3" xmlns="http://www.w3.org/2000/svg" xmlns:xlink="http://www.w3.org/1999/xlink" x="0px" y="0px"
	 viewBox="0 0 366 255.1" style="enable-background:new 0 0 366 255.1;" xml:space="preserve">
<style type="text/css">
	.st0{fill:none;stroke:#22F3BA;stroke-width:0.5;stroke-linecap:round;stroke-linejoin:round;}
	.st1{fill:#22F3BA;}
	.st2{fill:none;stroke:#22F3BA;stroke-width:0.5;stroke-miterlimit:10;}
	.st3{fill:none;stroke:#22F3BA;stroke-width:0.5;stroke-linecap:round;stroke-linejoin:round;stroke-miterlimit:10;}
	.st4{fill:none;stroke:#22F3BA;stroke-width:1.5;stroke-linecap:round;stroke-linejoin:round;}
</style>
<g>
	<g>
		<polygon class="st0" points="169.5,210.4 169.5,216.8 193.8,221.5 193.8,215.1 189.4,214.3 189.5,213.2 173.8,210.3 173.8,211.2 
					"/>
		<path class="st0" d="M174.9,212.9v4.2h0.4c0,0,0.5-0.3,1.1-0.1s0.9,0.5,0.9,0.5l0.5,0.1v-4.1l-0.9-0.2v-0.7l0.4,0.1l0.3-0.7
			l-2.3-0.5l0.2,0.8h0.4v0.7L174.9,212.9z"/>
		<line class="st0" x1="174.9" y1="216.9" x2="177.6" y2="214.9"/>
		<line class="st0" x1="175.4" y1="216.9" x2="177.6" y2="215.3"/>
		<ellipse class="st0" cx="176.7" cy="214.6" rx="0.4" ry="0.4"/>
		<line class="st0" x1="177.6" y1="213.5" x2="176.5" y2="214.3"/>
		<line class="st0" x1="177.7" y1="214.5" x2="177" y2="214.9"/>
		<line class="st0" x1="175.7" y1="212.3" x2="176.4" y2="211.8"/>
		<line class="st0" x1="175.7" y1="213" x2="177.2" y2="212"/>
		<path class="st0" d="M178.3,213.5v4.2h0.4c0,0,0.5-0.3,1.1-0.1s0.9,0.5,0.9,0.5l0.5,0.1V214l-0.9-0.2v-0.7l0.4,0.1l0.3-0.7
			l-2.3-0.5l0.2,0.8h0.4v0.7L178.3,213.5z"/>
		<line class="st0" x1="178.4" y1="217.5" x2="181.1" y2="215.5"/>
		<line class="st0" x1="178.9" y1="217.5" x2="181.1" y2="215.8"/>
		<ellipse class="st0" cx="180.2" cy="215.2" rx="0.4" ry="0.4"/>
		<line class="st0" x1="181.1" y1="214.1" x2="180" y2="214.9"/>
		<line class="st0" x1="181.2" y1="215.1" x2="180.5" y2="215.5"/>
		<line class="st0" x1="179.2" y1="212.9" x2="179.8" y2="212.4"/>
		<line class="st0" x1="179.2" y1="213.6" x2="180.7" y2="212.6"/>
		<path class="st0" d="M181.8,214.1v4.2h0.4c0,0,0.5-0.3,1.1-0.1c0.6,0.1,0.9,0.5,0.9,0.5l0.5,0.1v-4.1l-0.9-0.2v-0.7l0.4,0.1
			l0.3-0.7l-2.3-0.5l0.2,0.8h0.4v0.7L181.8,214.1z"/>
		<line class="st0" x1="181.8" y1="218.2" x2="184.6" y2="216.1"/>
		<line class="st0" x1="182.4" y1="218.2" x2="184.6" y2="216.5"/>
		<ellipse class="st0" cx="183.7" cy="215.9" rx="0.4" ry="0.4"/>
		<line class="st0" x1="184.5" y1="214.7" x2="183.5" y2="215.5"/>
		<line class="st0" x1="184.6" y1="215.7" x2="184" y2="216.2"/>
		<line class="st0" x1="182.7" y1="213.6" x2="183.3" y2="213.1"/>
		<line class="st0" x1="182.7" y1="214.3" x2="184.1" y2="213.3"/>
		<path class="st0" d="M185.3,214.8v4.2h0.4c0,0,0.5-0.3,1.1-0.1c0.6,0.1,0.9,0.5,0.9,0.5l0.5,0.1v-4.1l-0.9-0.2v-0.7l0.4,0.1
			l0.3-0.7l-2.3-0.5l0.2,0.8h0.4v0.7L185.3,214.8z"/>
		<line class="st0" x1="185.4" y1="218.9" x2="188.1" y2="216.8"/>
		<line class="st0" x1="185.9" y1="218.9" x2="188.1" y2="217.2"/>
		<ellipse class="st0" cx="187.2" cy="216.6" rx="0.4" ry="0.4"/>
		<line class="st0" x1="188.1" y1="215.4" x2="187" y2="216.2"/>
		<line class="st0" x1="188.2" y1="216.4" x2="187.5" y2="216.9"/>
		<line class="st0" x1="186.2" y1="214.3" x2="186.8" y2="213.8"/>
		<line class="st0" x1="186.2" y1="215" x2="187.7" y2="214"/>
	</g>
	<ellipse transform="matrix(0.9439 -0.3302 0.3302 0.9439 -61.104 68.8824)" class="st1" cx="172.2" cy="214.3" rx="1.2" ry="1.4"/>
	
		<ellipse transform="matrix(0.9439 -0.3302 0.3302 0.9439 -61.2135 75.2194)" class="st1" cx="190.8" cy="217.8" rx="1.2" ry="1.4"/>
	<g>
		<ellipse transform="matrix(0.866 -0.5 0.5 0.866 -91.7896 92.8759)" class="st2" cx="127.4" cy="217.7" rx="1.9" ry="2.4"/>
		<polygon class="st3" points="127,216.2 127,217.2 126,217 126,217.9 127,218.2 127,219 127.8,219.2 127.8,218.3 128.8,218.5 
			128.8,217.6 127.8,217.3 127.8,216.5 		"/>
	</g>
	<g>
		<ellipse transform="matrix(0.866 -0.5 0.5 0.866 -81.9588 90.1145)" class="st2" cx="127.2" cy="198" rx="1.9" ry="2.4"/>
		<polygon class="st3" points="126.7,196.6 126.7,197.5 125.8,197.3 125.8,198.3 126.7,198.5 126.7,199.4 127.5,199.6 127.5,198.6 
			128.5,198.9 128.5,197.9 127.6,197.7 127.6,196.8 		"/>
	</g>
	<g>
		<ellipse transform="matrix(0.866 -0.5 0.5 0.866 -89.4783 128.4883)" class="st2" cx="195" cy="231.2" rx="2" ry="2.6"/>
		<polygon class="st3" points="194.6,229.6 194.6,230.6 193.5,230.4 193.5,231.4 194.6,231.7 194.6,232.6 195.4,232.8 195.4,231.8 
			196.5,232.1 196.5,231 195.5,230.8 195.5,229.9 		"/>
	</g>
	<g>
		<ellipse transform="matrix(0.866 -0.5 0.5 0.866 -79.1958 125.8343)" class="st2" cx="195.2" cy="210.7" rx="2" ry="2.6"/>
		<polygon class="st3" points="194.7,209.2 194.7,210.1 193.7,209.9 193.7,210.9 194.7,211.2 194.7,212.1 195.6,212.3 195.6,211.3 
			196.6,211.6 196.6,210.6 195.6,210.3 195.6,209.4 		"/>
	</g>
	<polygon class="st0" points="139.7,198.9 139.7,210.8 167.8,216.1 167.8,204.2 	"/>
	<polygon class="st0" points="142.1,201.5 142.1,208.5 143.7,208.8 143.7,210.2 151.1,211.6 151.1,210.3 152.8,210.5 152.8,203.4 	
		"/>
	<polygon class="st0" points="154.6,203.8 154.6,210.8 156.1,211.1 156.1,212.4 163.5,213.9 163.5,212.5 165.2,212.8 165.2,205.7 	
		"/>
	
		<ellipse transform="matrix(0.9681 -0.2507 0.2507 0.9681 -46.4865 39.6782)" class="st0" cx="132.5" cy="202.3" rx="1.2" ry="1.5"/>
	<ellipse transform="matrix(0.9681 -0.2507 0.2507 0.9681 -46.5287 40.7306)" class="st0" cx="136.6" cy="203" rx="1.2" ry="1.5"/>
	<ellipse transform="matrix(0.9681 -0.2507 0.2507 0.9681 -47.615 39.8206)" class="st0" cx="132.5" cy="206.8" rx="1.2" ry="1.5"/>
	
		<ellipse transform="matrix(0.9681 -0.2507 0.2507 0.9681 -47.6573 40.8729)" class="st0" cx="136.6" cy="207.5" rx="1.2" ry="1.5"/>
	<ellipse transform="matrix(0.9681 -0.2507 0.2507 0.9681 -46.4488 39.747)" class="st2" cx="132.8" cy="202.2" rx="0.9" ry="1.5"/>
	<ellipse transform="matrix(0.9681 -0.2507 0.2507 0.9681 -46.4983 40.7747)" class="st0" cx="136.8" cy="202.9" rx="1" ry="1.5"/>
	
		<ellipse transform="matrix(0.9681 -0.2507 0.2507 0.9681 -47.6015 39.8991)" class="st0" cx="132.8" cy="206.8" rx="0.9" ry="1.5"/>
	<ellipse transform="matrix(0.9681 -0.2507 0.2507 0.9681 -47.6267 40.917)" class="st0" cx="136.8" cy="207.4" rx="1" ry="1.5"/>
	<path class="st4" d="M124.2,197.4v23l5.4,1l0.8-0.2l61.1,12.3l1,0.6l5.6,1.2l0.4-23.7c0-2.4-1.7-4.5-4-4.9l-66.7-12.2
		C126,194.1,124.2,195.5,124.2,197.4L124.2,197.4z"/>
	<polyline class="st4" points="124.2,211.3 116,216.6 116,218.1 124.2,219.7 	"/>
	<path class="st4" d="M116,216.6l6.5,1.3c0.2,0,0.5,0,0.7,0l1.1-0.3"/>
	<path class="st4" d="M198.2,234.6l11,2.2l40.6-35.5c0.2-0.2,0.3-0.4,0.3-0.6v-1l-6.9-1.2c-1.2-0.2-2.1-1.3-2.1-2.5l0.3-18.1
		c0-1.7-1.2-3.1-2.8-3.3l-60.8-10c-1.3-0.2-2.7,0-3.8,0.7l-48,29.3"/>
	<path class="st4" d="M198.3,229.6c0.3,1.9,1.9,4.1,3.9,4.5l8.2,1.6"/>
	<line class="st4" x1="198.3" y1="227.2" x2="241.2" y2="192.1"/>
	<line class="st4" x1="198.3" y1="224.4" x2="241.2" y2="189.7"/>
	<line class="st4" x1="198.5" y1="221.4" x2="241.2" y2="187.2"/>
	<line class="st4" x1="198.4" y1="218.6" x2="241.3" y2="184.6"/>
	<line class="st4" x1="198.5" y1="215.9" x2="241.3" y2="181.8"/>
	<line class="st4" x1="198.5" y1="213" x2="241.3" y2="179.5"/>
	<path class="st4" d="M210.1,227.7c-0.8,0.6-1.8,1.5-2.4,2c-0.3,0.3-0.2,0.8,0.2,0.9l0.5,0.2c1.1,0.3,2.3,0.1,3.2-0.7l2.2-2
		c0.2-0.2,0.2-0.6-0.1-0.7l-0.9-0.3C211.8,226.9,210.8,227.1,210.1,227.7z"/>
	<path class="st4" d="M208.1,230.8l1.8-1.6c0.7-0.7,1.8-0.8,2.7-0.5l0.5,0.2"/>
	<path class="st4" d="M240.3,202.2L238,204c-0.1,0.1-0.1,0.3,0,0.3l0.6,0.3c1,0.5,2.3,0.3,3.1-0.5l1.5-1.5c0.1-0.1,0.1-0.4-0.1-0.4
		l-1.5-0.4C241.3,201.8,240.7,201.9,240.3,202.2z"/>
	<path class="st4" d="M238.5,204.6l1.3-1c0.6-0.5,1.5-0.6,2.2-0.3l0.6,0.2"/>
	<path class="st4" d="M222,219.3c0.2,0.1,0.4,0.2,0.7,0.3c0.7,0.4,1.6,0.2,2.3-0.3l7.7-6.7c0.1-0.1,0.1-0.3-0.1-0.3l-0.9-0.2
		c-0.8-0.2-1.6,0-2.3,0.5l-7.5,6.3C221.8,219,221.8,219.2,222,219.3z"/>
	<path class="st4" d="M222.6,219.5l6.7-5.6c0.7-0.6,1.6-0.7,2.4-0.4h0.1"/>
	<path class="st4" d="M182.7,165.3l8.6-5.5L194.2,26c0-1.3,0.3-2.6,0.8-3.8l1.7-4l6.1,0.3l-0.9,150"/>
	<path class="st4" d="M217.2,171.1l8.6-5.4L228.7,33c0-2.1,0.6-4.1,1.6-5.9l3.5-6.6L240,21l-3.5,153.5"/>
	<path class="st4" d="M191.1,159.9c0,0,4-1.5,6.5,1.2c2.1,2.3,2,3.9,1.1,7"/>
	<path class="st4" d="M226.1,165.5c0,0,3.4-2.3,6.8,0.9c2.3,2.1,2,3.9,1.1,7"/>
	<path class="st4" d="M188.7,162c0,0,4.6,1.3,5.2,4.9"/>
	<path class="st4" d="M223.5,167.2c0,0,4.5,0.4,6.2,5.4"/>
	<line class="st0" x1="142.2" y1="204.2" x2="145.2" y2="202.3"/>
	<line class="st0" x1="142.2" y1="206.2" x2="147.4" y2="202.6"/>
	<line class="st0" x1="143.7" y1="208.8" x2="148.7" y2="205.3"/>
	<line class="st0" x1="150.9" y1="210.2" x2="152.6" y2="208.9"/>
	<line class="st0" x1="154.7" y1="206.3" x2="157.8" y2="204.4"/>
	<line class="st0" x1="154.7" y1="208.3" x2="159.8" y2="204.8"/>
	<line class="st0" x1="156.3" y1="210.9" x2="163.9" y2="205.5"/>
	<line class="st0" x1="163.5" y1="212.3" x2="165.1" y2="211"/>
	<line class="st0" x1="148.7" y1="205.3" x2="151.6" y2="203.2"/>
</g>
</svg>
